<?xml version="1.0" encoding="UTF-8" standalone="no"?>
<!DOCTYPE svg PUBLIC "-//W3C//DTD SVG 1.1//EN" "http://www.w3.org/Graphics/SVG/1.1/DTD/svg11.dtd">
<svg width="100%" height="100%" viewBox="0 0 1024 600" version="1.1" xmlns="http://www.w3.org/2000/svg" xmlns:xlink="http://www.w3.org/1999/xlink" xml:space="preserve" xmlns:serif="http://www.serif.com/" style="fill-rule:evenodd;clip-rule:evenodd;stroke-linecap:round;stroke-linejoin:round;stroke-miterlimit:1.5;">
    <g id="white-background" transform="matrix(0.999823,0,0,0.999855,-0.16221,-0.0169147)">
        <rect x="0.216" y="-0.027" width="1024.18" height="600.087" style="fill:white;"/>
    </g>
    <g id="gray-fill">
        <path d="M164.236,253.549L386.928,253.549L402.411,226.444L670.481,226.444L659.176,253.721L931.599,253.721C1043.38,263.59 1030.36,392.951 931.104,394.196L658.203,394.196L666.58,421.124L402.279,421.124L386.371,394.85L164.378,394.85C-28.537,370.694 -23.927,276.796 164.236,253.549Z" style="fill:rgb(229,229,229);"/>
    </g>
    <g id="seats">
        <g id="seat-11K" transform="matrix(1.21088,0,0,1.06092,134.405,72.4219)">
            <path d="M298,191.203C298,190.539 297.528,190 296.946,190L289.054,190C288.472,190 288,190.539 288,191.203L288,199.797C288,200.461 288.472,201 289.054,201L296.946,201C297.528,201 298,200.461 298,199.797L298,191.203Z" fill="#B1B1B1"/>
        </g>
        <g id="seat-12K" transform="matrix(1.21088,0,0,1.06092,155.168,72.4219)">
            <path d="M298,191.203C298,190.539 297.528,190 296.946,190L289.054,190C288.472,190 288,190.539 288,191.203L288,199.797C288,200.461 288.472,201 289.054,201L296.946,201C297.528,201 298,200.461 298,199.797L298,191.203Z" fill="#B1B1B1"/>
        </g>
        <g id="seat-13K" transform="matrix(1.21088,0,0,1.06092,172.608,72.4219)">
            <path d="M298,191.203C298,190.539 297.528,190 296.946,190L289.054,190C288.472,190 288,190.539 288,191.203L288,199.797C288,200.461 288.472,201 289.054,201L296.946,201C297.528,201 298,200.461 298,199.797L298,191.203Z" fill="#B1B1B1"/>
        </g>
        <g id="seat-14K" transform="matrix(1.21088,0,0,1.06092,190.233,72.4219)">
            <path d="M298,191.203C298,190.539 297.528,190 296.946,190L289.054,190C288.472,190 288,190.539 288,191.203L288,199.797C288,200.461 288.472,201 289.054,201L296.946,201C297.528,201 298,200.461 298,199.797L298,191.203Z" fill="#B1B1B1"/>
        </g>
        <g id="seat-15K" transform="matrix(1.21088,0,0,1.06092,207.765,72.4219)">
            <path d="M298,191.203C298,190.539 297.528,190 296.946,190L289.054,190C288.472,190 288,190.539 288,191.203L288,199.797C288,200.461 288.472,201 289.054,201L296.946,201C297.528,201 298,200.461 298,199.797L298,191.203Z" fill="#B1B1B1"/>
        </g>
        <g id="seat-16K" transform="matrix(1.21088,0,0,1.06092,225.39,72.4219)">
            <path d="M298,191.203C298,190.539 297.528,190 296.946,190L289.054,190C288.472,190 288,190.539 288,191.203L288,199.797C288,200.461 288.472,201 289.054,201L296.946,201C297.528,201 298,200.461 298,199.797L298,191.203Z" fill="#B1B1B1"/>
        </g>
        <g id="seat-17K" transform="matrix(1.21088,0,0,1.06092,242.831,72.4219)">
            <path d="M298,191.203C298,190.539 297.528,190 296.946,190L289.054,190C288.472,190 288,190.539 288,191.203L288,199.797C288,200.461 288.472,201 289.054,201L296.946,201C297.528,201 298,200.461 298,199.797L298,191.203Z" fill="#B1B1B1"/>
        </g>
        <g id="seat-18K" transform="matrix(1.21088,0,0,1.06092,260.548,72.4219)">
            <path d="M298,191.203C298,190.539 297.528,190 296.946,190L289.054,190C288.472,190 288,190.539 288,191.203L288,199.797C288,200.461 288.472,201 289.054,201L296.946,201C297.528,201 298,200.461 298,199.797L298,191.203Z" fill="#B1B1B1"/>
        </g>
        <g id="seat-19K" transform="matrix(1.21088,0,0,1.06092,278.357,72.4219)">
            <path d="M298,191.203C298,190.539 297.528,190 296.946,190L289.054,190C288.472,190 288,190.539 288,191.203L288,199.797C288,200.461 288.472,201 289.054,201L296.946,201C297.528,201 298,200.461 298,199.797L298,191.203Z" fill="#B1B1B1"/>
        </g>
        <g id="seat-20K" transform="matrix(1.21088,0,0,1.06092,295.982,72.4219)">
            <path d="M298,191.203C298,190.539 297.528,190 296.946,190L289.054,190C288.472,190 288,190.539 288,191.203L288,199.797C288,200.461 288.472,201 289.054,201L296.946,201C297.528,201 298,200.461 298,199.797L298,191.203Z" fill="#B1B1B1"/>
        </g>
        <g id="seat-22K" transform="matrix(1.21088,0,0,1.06092,361.381,72.4219)">
            <path d="M298,191.203C298,190.539 297.528,190 296.946,190L289.054,190C288.472,190 288,190.539 288,191.203L288,199.797C288,200.461 288.472,201 289.054,201L296.946,201C297.528,201 298,200.461 298,199.797L298,191.203Z" fill="#B1B1B1"/>
        </g>
        <g id="seat-23K" transform="matrix(1.21088,0,0,1.06092,382.143,72.4219)">
            <path d="M298,191.203C298,190.539 297.528,190 296.946,190L289.054,190C288.472,190 288,190.539 288,191.203L288,199.797C288,200.461 288.472,201 289.054,201L296.946,201C297.528,201 298,200.461 298,199.797L298,191.203Z" fill="#B1B1B1"/>
        </g>
        <g id="seat-24K" transform="matrix(1.21088,0,0,1.06092,399.583,72.4219)">
            <path d="M298,191.203C298,190.539 297.528,190 296.946,190L289.054,190C288.472,190 288,190.539 288,191.203L288,199.797C288,200.461 288.472,201 289.054,201L296.946,201C297.528,201 298,200.461 298,199.797L298,191.203Z" fill="#B1B1B1"/>
        </g>
        <g id="seat-25K" transform="matrix(1.21088,0,0,1.06092,417.208,72.4219)">
            <path d="M298,191.203C298,190.539 297.528,190 296.946,190L289.054,190C288.472,190 288,190.539 288,191.203L288,199.797C288,200.461 288.472,201 289.054,201L296.946,201C297.528,201 298,200.461 298,199.797L298,191.203Z" fill="#B1B1B1"/>
        </g>
        <g id="seat-26K" transform="matrix(1.21088,0,0,1.06092,434.741,72.4219)">
            <path d="M298,191.203C298,190.539 297.528,190 296.946,190L289.054,190C288.472,190 288,190.539 288,191.203L288,199.797C288,200.461 288.472,201 289.054,201L296.946,201C297.528,201 298,200.461 298,199.797L298,191.203Z" fill="#B1B1B1"/>
        </g>
        <g id="seat-27K" transform="matrix(1.21088,0,0,1.06092,452.366,72.4219)">
            <path d="M298,191.203C298,190.539 297.528,190 296.946,190L289.054,190C288.472,190 288,190.539 288,191.203L288,199.797C288,200.461 288.472,201 289.054,201L296.946,201C297.528,201 298,200.461 298,199.797L298,191.203Z" fill="#B1B1B1"/>
        </g>
        <g id="seat-28K" transform="matrix(1.21088,0,0,1.06092,469.806,72.4219)">
            <path d="M298,191.203C298,190.539 297.528,190 296.946,190L289.054,190C288.472,190 288,190.539 288,191.203L288,199.797C288,200.461 288.472,201 289.054,201L296.946,201C297.528,201 298,200.461 298,199.797L298,191.203Z" fill="#B1B1B1"/>
        </g>
        <g id="seat-29K" transform="matrix(1.21088,0,0,1.06092,487.523,72.4219)">
            <path d="M298,191.203C298,190.539 297.528,190 296.946,190L289.054,190C288.472,190 288,190.539 288,191.203L288,199.797C288,200.461 288.472,201 289.054,201L296.946,201C297.528,201 298,200.461 298,199.797L298,191.203Z" fill="#B1B1B1"/>
        </g>
        <g id="seat-30K" transform="matrix(1.21088,0,0,1.06092,505.333,72.4219)">
            <path d="M298,191.203C298,190.539 297.528,190 296.946,190L289.054,190C288.472,190 288,190.539 288,191.203L288,199.797C288,200.461 288.472,201 289.054,201L296.946,201C297.528,201 298,200.461 298,199.797L298,191.203Z" fill="#B1B1B1"/>
        </g>
        <g id="seat-31K" transform="matrix(1.21088,0,0,1.06092,522.958,72.4219)">
            <path d="M298,191.203C298,190.539 297.528,190 296.946,190L289.054,190C288.472,190 288,190.539 288,191.203L288,199.797C288,200.461 288.472,201 289.054,201L296.946,201C297.528,201 298,200.461 298,199.797L298,191.203Z" fill="#B1B1B1"/>
        </g>
        <g id="seat-21K" transform="matrix(1.21088,0,0,1.06092,313.976,72.4219)">
            <path d="M298,191.203C298,190.539 297.528,190 296.946,190L289.054,190C288.472,190 288,190.539 288,191.203L288,199.797C288,200.461 288.472,201 289.054,201L296.946,201C297.528,201 298,200.461 298,199.797L298,191.203Z" fill="#B1B1B1"/>
        </g>
        <g id="seat-1A" transform="matrix(1.96268,0,0,1.713,-363.337,41.7563)">
            <path d="M298,190.745C298,190.334 297.709,190 297.35,190L288.65,190C288.291,190 288,190.334 288,190.745L288,200.255C288,200.666 288.291,201 288.65,201L297.35,201C297.709,201 298,200.666 298,200.255L298,190.745Z" fill="#B1B1B1"/>
        </g>
        <g id="seat-2A" transform="matrix(1.96268,0,0,1.713,-341.578,41.7563)">
            <path d="M298,190.745C298,190.334 297.709,190 297.35,190L288.65,190C288.291,190 288,190.334 288,190.745L288,200.255C288,200.666 288.291,201 288.65,201L297.35,201C297.709,201 298,200.666 298,200.255L298,190.745Z" fill="#B1B1B1"/>
        </g>
        <g id="seat-3A" transform="matrix(1.96268,0,0,1.713,-319.653,41.7563)">
            <path d="M298,190.745C298,190.334 297.709,190 297.35,190L288.65,190C288.291,190 288,190.334 288,190.745L288,200.255C288,200.666 288.291,201 288.65,201L297.35,201C297.709,201 298,200.666 298,200.255L298,190.745Z" fill="#B1B1B1"/>
        </g>
        <g id="seat-4A" transform="matrix(1.96268,0,0,1.713,-297.894,41.7563)">
            <path d="M298,190.745C298,190.334 297.709,190 297.35,190L288.65,190C288.291,190 288,190.334 288,190.745L288,200.255C288,200.666 288.291,201 288.65,201L297.35,201C297.709,201 298,200.666 298,200.255L298,190.745Z" fill="#B1B1B1"/>
        </g>
        <g id="seat-5A" transform="matrix(1.96268,0,0,1.713,-276.301,41.7563)">
            <path d="M298,190.745C298,190.334 297.709,190 297.35,190L288.65,190C288.291,190 288,190.334 288,190.745L288,200.255C288,200.666 288.291,201 288.65,201L297.35,201C297.709,201 298,200.666 298,200.255L298,190.745Z" fill="#B1B1B1"/>
        </g>
        <g id="seat-1L" transform="matrix(1.96268,0,0,1.713,-363.337,-63.8721)">
            <path d="M298,190.745C298,190.334 297.709,190 297.35,190L288.65,190C288.291,190 288,190.334 288,190.745L288,200.255C288,200.666 288.291,201 288.65,201L297.35,201C297.709,201 298,200.666 298,200.255L298,190.745Z" fill="#B1B1B1"/>
        </g>
        <g id="seat-1F" transform="matrix(1.96268,0,0,1.713,-373.624,-21.3333)">
            <path d="M298,190.745C298,190.334 297.709,190 297.35,190L288.65,190C288.291,190 288,190.334 288,190.745L288,200.255C288,200.666 288.291,201 288.65,201L297.35,201C297.709,201 298,200.666 298,200.255L298,190.745Z" fill="#B1B1B1"/>
        </g>
        <g id="seat-1D" transform="matrix(1.96268,0,0,1.713,-373.624,-1.7026)">
            <path d="M298,190.745C298,190.334 297.709,190 297.35,190L288.65,190C288.291,190 288,190.334 288,190.745L288,200.255C288,200.666 288.291,201 288.65,201L297.35,201C297.709,201 298,200.666 298,200.255L298,190.745Z" fill="#B1B1B1"/>
        </g>
        <g id="seat-2F" transform="matrix(1.96268,0,0,1.713,-351.088,-21.3333)">
            <path d="M298,190.745C298,190.334 297.709,190 297.35,190L288.65,190C288.291,190 288,190.334 288,190.745L288,200.255C288,200.666 288.291,201 288.65,201L297.35,201C297.709,201 298,200.666 298,200.255L298,190.745Z" fill="#B1B1B1"/>
        </g>
        <g id="seat-2D" transform="matrix(1.96268,0,0,1.713,-351.088,-1.7026)">
            <path d="M298,190.745C298,190.334 297.709,190 297.35,190L288.65,190C288.291,190 288,190.334 288,190.745L288,200.255C288,200.666 288.291,201 288.65,201L297.35,201C297.709,201 298,200.666 298,200.255L298,190.745Z" fill="#B1B1B1"/>
        </g>
        <g id="seat-3F" transform="matrix(1.96268,0,0,1.713,-329.192,-21.3333)">
            <path d="M298,190.745C298,190.334 297.709,190 297.35,190L288.65,190C288.291,190 288,190.334 288,190.745L288,200.255C288,200.666 288.291,201 288.65,201L297.35,201C297.709,201 298,200.666 298,200.255L298,190.745Z" fill="#B1B1B1"/>
        </g>
        <g id="seat-3D" transform="matrix(1.96268,0,0,1.713,-329.192,-1.7026)">
            <path d="M298,190.745C298,190.334 297.709,190 297.35,190L288.65,190C288.291,190 288,190.334 288,190.745L288,200.255C288,200.666 288.291,201 288.65,201L297.35,201C297.709,201 298,200.666 298,200.255L298,190.745Z" fill="#B1B1B1"/>
        </g>
        <g id="seat-4F" transform="matrix(1.96268,0,0,1.713,-306.656,-21.3333)">
            <path d="M298,190.745C298,190.334 297.709,190 297.35,190L288.65,190C288.291,190 288,190.334 288,190.745L288,200.255C288,200.666 288.291,201 288.65,201L297.35,201C297.709,201 298,200.666 298,200.255L298,190.745Z" fill="#B1B1B1"/>
        </g>
        <g id="seat-4D" transform="matrix(1.96268,0,0,1.713,-306.656,-1.7026)">
            <path d="M298,190.745C298,190.334 297.709,190 297.35,190L288.65,190C288.291,190 288,190.334 288,190.745L288,200.255C288,200.666 288.291,201 288.65,201L297.35,201C297.709,201 298,200.666 298,200.255L298,190.745Z" fill="#B1B1B1"/>
        </g>
        <g id="seat-6F" transform="matrix(1.96268,0,0,1.713,-223.304,-21.3333)">
            <path d="M298,190.745C298,190.334 297.709,190 297.35,190L288.65,190C288.291,190 288,190.334 288,190.745L288,200.255C288,200.666 288.291,201 288.65,201L297.35,201C297.709,201 298,200.666 298,200.255L298,190.745Z" fill="#B1B1B1"/>
        </g>
        <g id="seat-6D" transform="matrix(1.96268,0,0,1.713,-223.304,-1.7026)">
            <path d="M298,190.745C298,190.334 297.709,190 297.35,190L288.65,190C288.291,190 288,190.334 288,190.745L288,200.255C288,200.666 288.291,201 288.65,201L297.35,201C297.709,201 298,200.666 298,200.255L298,190.745Z" fill="#B1B1B1"/>
        </g>
        <g id="seat-7F" transform="matrix(1.96268,0,0,1.713,-200.768,-21.3333)">
            <path d="M298,190.745C298,190.334 297.709,190 297.35,190L288.65,190C288.291,190 288,190.334 288,190.745L288,200.255C288,200.666 288.291,201 288.65,201L297.35,201C297.709,201 298,200.666 298,200.255L298,190.745Z" fill="#B1B1B1"/>
        </g>
        <g id="seat-6L" transform="matrix(1.96268,0,0,1.713,-223.304,-63.8961)">
            <path d="M298,190.745C298,190.334 297.709,190 297.35,190L288.65,190C288.291,190 288,190.334 288,190.745L288,200.255C288,200.666 288.291,201 288.65,201L297.35,201C297.709,201 298,200.666 298,200.255L298,190.745Z" fill="#B1B1B1"/>
        </g>
        <g id="seat-7L" transform="matrix(1.96268,0,0,1.713,-200.768,-63.8961)">
            <path d="M298,190.745C298,190.334 297.709,190 297.35,190L288.65,190C288.291,190 288,190.334 288,190.745L288,200.255C288,200.666 288.291,201 288.65,201L297.35,201C297.709,201 298,200.666 298,200.255L298,190.745Z" fill="#B1B1B1"/>
        </g>
        <g id="seat-7D" transform="matrix(1.96268,0,0,1.713,-200.768,-1.7026)">
            <path d="M298,190.745C298,190.334 297.709,190 297.35,190L288.65,190C288.291,190 288,190.334 288,190.745L288,200.255C288,200.666 288.291,201 288.65,201L297.35,201C297.709,201 298,200.666 298,200.255L298,190.745Z" fill="#B1B1B1"/>
        </g>
        <g id="seat-6A" transform="matrix(1.96268,0,0,1.713,-223.304,41.5523)">
            <path d="M298,190.745C298,190.334 297.709,190 297.35,190L288.65,190C288.291,190 288,190.334 288,190.745L288,200.255C288,200.666 288.291,201 288.65,201L297.35,201C297.709,201 298,200.666 298,200.255L298,190.745Z" fill="#B1B1B1"/>
        </g>
        <g id="seat-7A" transform="matrix(1.96268,0,0,1.713,-200.768,41.5523)">
            <path d="M298,190.745C298,190.334 297.709,190 297.35,190L288.65,190C288.291,190 288,190.334 288,190.745L288,200.255C288,200.666 288.291,201 288.65,201L297.35,201C297.709,201 298,200.666 298,200.255L298,190.745Z" fill="#B1B1B1"/>
        </g>
        <g id="seat-8A" transform="matrix(1.56881,0,0,1.14375,-47.4545,153.133)">
            <path d="M298,191.116C298,190.5 297.635,190 297.187,190L288.813,190C288.365,190 288,190.5 288,191.116L288,199.884C288,200.5 288.365,201 288.813,201L297.187,201C297.635,201 298,200.5 298,199.884L298,191.116Z" fill="#B1B1B1"/>
        </g>
        <g id="seat-8B" transform="matrix(1.56881,0,0,1.14375,-47.4545,140.022)">
            <path d="M298,191.116C298,190.5 297.635,190 297.187,190L288.813,190C288.365,190 288,190.5 288,191.116L288,199.884C288,200.5 288.365,201 288.813,201L297.187,201C297.635,201 298,200.5 298,199.884L298,191.116Z" fill="#B1B1B1"/>
        </g>
        <g id="seat-9A" transform="matrix(1.56881,0,0,1.14375,-28.3531,153.133)">
            <path d="M298,191.116C298,190.5 297.635,190 297.187,190L288.813,190C288.365,190 288,190.5 288,191.116L288,199.884C288,200.5 288.365,201 288.813,201L297.187,201C297.635,201 298,200.5 298,199.884L298,191.116Z" fill="#B1B1B1"/>
        </g>
        <g id="seat-9B" transform="matrix(1.56881,0,0,1.14375,-28.3531,140.022)">
            <path d="M298,191.116C298,190.5 297.635,190 297.187,190L288.813,190C288.365,190 288,190.5 288,191.116L288,199.884C288,200.5 288.365,201 288.813,201L297.187,201C297.635,201 298,200.5 298,199.884L298,191.116Z" fill="#B1B1B1"/>
        </g>
        <g id="seat-10A" transform="matrix(1.56881,0,0,1.14375,-8.97492,153.133)">
            <path d="M298,191.116C298,190.5 297.635,190 297.187,190L288.813,190C288.365,190 288,190.5 288,191.116L288,199.884C288,200.5 288.365,201 288.813,201L297.187,201C297.635,201 298,200.5 298,199.884L298,191.116Z" fill="#B1B1B1"/>
        </g>
        <g id="seat-11A" transform="matrix(1.21088,0,0,1.06092,134.405,172.441)">
            <path d="M298,191.203C298,190.539 297.528,190 296.946,190L289.054,190C288.472,190 288,190.539 288,191.203L288,199.797C288,200.461 288.472,201 289.054,201L296.946,201C297.528,201 298,200.461 298,199.797L298,191.203Z" fill="#B1B1B1"/>
        </g>
        <g id="seat-11B" transform="matrix(1.21088,0,0,1.06092,134.405,160.025)">
            <path d="M298,191.203C298,190.539 297.528,190 296.946,190L289.054,190C288.472,190 288,190.539 288,191.203L288,199.797C288,200.461 288.472,201 289.054,201L296.946,201C297.528,201 298,200.461 298,199.797L298,191.203Z" fill="#B1B1B1"/>
        </g>
        <g id="seat-11C" transform="matrix(1.21088,0,0,1.06092,134.405,147.665)">
            <path d="M298,191.203C298,190.539 297.528,190 296.946,190L289.054,190C288.472,190 288,190.539 288,191.203L288,199.797C288,200.461 288.472,201 289.054,201L296.946,201C297.528,201 298,200.461 298,199.797L298,191.203Z" fill="#B1B1B1"/>
        </g>
        <g id="seat-11D" transform="matrix(1.21088,0,0,1.06092,137.523,128.88)">
            <path d="M298,191.203C298,190.539 297.528,190 296.946,190L289.054,190C288.472,190 288,190.539 288,191.203L288,199.797C288,200.461 288.472,201 289.054,201L296.946,201C297.528,201 298,200.461 298,199.797L298,191.203Z" fill="#B1B1B1"/>
        </g>
        <g id="seat-11E" transform="matrix(1.21088,0,0,1.06092,137.523,116.464)">
            <path d="M298,191.203C298,190.539 297.528,190 296.946,190L289.054,190C288.472,190 288,190.539 288,191.203L288,199.797C288,200.461 288.472,201 289.054,201L296.946,201C297.528,201 298,200.461 298,199.797L298,191.203Z" fill="#B1B1B1"/>
        </g>
        <g id="seat-11F" transform="matrix(1.21088,0,0,1.06092,137.523,104.104)">
            <path d="M298,191.203C298,190.539 297.528,190 296.946,190L289.054,190C288.472,190 288,190.539 288,191.203L288,199.797C288,200.461 288.472,201 289.054,201L296.946,201C297.528,201 298,200.461 298,199.797L298,191.203Z" fill="#B1B1B1"/>
        </g>
        <g id="seat-12D" transform="matrix(1.21088,0,0,1.06092,156.611,128.88)">
            <path d="M298,191.203C298,190.539 297.528,190 296.946,190L289.054,190C288.472,190 288,190.539 288,191.203L288,199.797C288,200.461 288.472,201 289.054,201L296.946,201C297.528,201 298,200.461 298,199.797L298,191.203Z" fill="#B1B1B1"/>
        </g>
        <g id="seat-12E" transform="matrix(1.21088,0,0,1.06092,156.611,116.464)">
            <path d="M298,191.203C298,190.539 297.528,190 296.946,190L289.054,190C288.472,190 288,190.539 288,191.203L288,199.797C288,200.461 288.472,201 289.054,201L296.946,201C297.528,201 298,200.461 298,199.797L298,191.203Z" fill="#B1B1B1"/>
        </g>
        <g id="seat-12F" transform="matrix(1.21088,0,0,1.06092,156.611,104.104)">
            <path d="M298,191.203C298,190.539 297.528,190 296.946,190L289.054,190C288.472,190 288,190.539 288,191.203L288,199.797C288,200.461 288.472,201 289.054,201L296.946,201C297.528,201 298,200.461 298,199.797L298,191.203Z" fill="#B1B1B1"/>
        </g>
        <g id="seat-13D" transform="matrix(1.21088,0,0,1.06092,175.887,128.88)">
            <path d="M298,191.203C298,190.539 297.528,190 296.946,190L289.054,190C288.472,190 288,190.539 288,191.203L288,199.797C288,200.461 288.472,201 289.054,201L296.946,201C297.528,201 298,200.461 298,199.797L298,191.203Z" fill="#B1B1B1"/>
        </g>
        <g id="seat-13E" transform="matrix(1.21088,0,0,1.06092,175.887,116.464)">
            <path d="M298,191.203C298,190.539 297.528,190 296.946,190L289.054,190C288.472,190 288,190.539 288,191.203L288,199.797C288,200.461 288.472,201 289.054,201L296.946,201C297.528,201 298,200.461 298,199.797L298,191.203Z" fill="#B1B1B1"/>
        </g>
        <g id="seat-13F" transform="matrix(1.21088,0,0,1.06092,175.887,104.104)">
            <path d="M298,191.203C298,190.539 297.528,190 296.946,190L289.054,190C288.472,190 288,190.539 288,191.203L288,199.797C288,200.461 288.472,201 289.054,201L296.946,201C297.528,201 298,200.461 298,199.797L298,191.203Z" fill="#B1B1B1"/>
        </g>
        <g id="seat-14D" transform="matrix(1.21088,0,0,1.06092,194.974,128.88)">
            <path d="M298,191.203C298,190.539 297.528,190 296.946,190L289.054,190C288.472,190 288,190.539 288,191.203L288,199.797C288,200.461 288.472,201 289.054,201L296.946,201C297.528,201 298,200.461 298,199.797L298,191.203Z" fill="#B1B1B1"/>
        </g>
        <g id="seat-14E" transform="matrix(1.21088,0,0,1.06092,194.974,116.464)">
            <path d="M298,191.203C298,190.539 297.528,190 296.946,190L289.054,190C288.472,190 288,190.539 288,191.203L288,199.797C288,200.461 288.472,201 289.054,201L296.946,201C297.528,201 298,200.461 298,199.797L298,191.203Z" fill="#B1B1B1"/>
        </g>
        <g id="seat-14F" transform="matrix(1.21088,0,0,1.06092,194.974,104.104)">
            <path d="M298,191.203C298,190.539 297.528,190 296.946,190L289.054,190C288.472,190 288,190.539 288,191.203L288,199.797C288,200.461 288.472,201 289.054,201L296.946,201C297.528,201 298,200.461 298,199.797L298,191.203Z" fill="#B1B1B1"/>
        </g>
        <g id="seat-15D" transform="matrix(1.21088,0,0,1.06092,213.589,128.88)">
            <path d="M298,191.203C298,190.539 297.528,190 296.946,190L289.054,190C288.472,190 288,190.539 288,191.203L288,199.797C288,200.461 288.472,201 289.054,201L296.946,201C297.528,201 298,200.461 298,199.797L298,191.203Z" fill="#B1B1B1"/>
        </g>
        <g id="seat-15E" transform="matrix(1.21088,0,0,1.06092,213.589,116.464)">
            <path d="M298,191.203C298,190.539 297.528,190 296.946,190L289.054,190C288.472,190 288,190.539 288,191.203L288,199.797C288,200.461 288.472,201 289.054,201L296.946,201C297.528,201 298,200.461 298,199.797L298,191.203Z" fill="#B1B1B1"/>
        </g>
        <g id="seat-15F" transform="matrix(1.21088,0,0,1.06092,213.589,104.104)">
            <path d="M298,191.203C298,190.539 297.528,190 296.946,190L289.054,190C288.472,190 288,190.539 288,191.203L288,199.797C288,200.461 288.472,201 289.054,201L296.946,201C297.528,201 298,200.461 298,199.797L298,191.203Z" fill="#B1B1B1"/>
        </g>
        <g id="seat-16D" transform="matrix(1.21088,0,0,1.06092,232.488,128.88)">
            <path d="M298,191.203C298,190.539 297.528,190 296.946,190L289.054,190C288.472,190 288,190.539 288,191.203L288,199.797C288,200.461 288.472,201 289.054,201L296.946,201C297.528,201 298,200.461 298,199.797L298,191.203Z" fill="#B1B1B1"/>
        </g>
        <g id="seat-16E" transform="matrix(1.21088,0,0,1.06092,232.488,116.464)">
            <path d="M298,191.203C298,190.539 297.528,190 296.946,190L289.054,190C288.472,190 288,190.539 288,191.203L288,199.797C288,200.461 288.472,201 289.054,201L296.946,201C297.528,201 298,200.461 298,199.797L298,191.203Z" fill="#B1B1B1"/>
        </g>
        <g id="seat-16F" transform="matrix(1.21088,0,0,1.06092,232.488,104.104)">
            <path d="M298,191.203C298,190.539 297.528,190 296.946,190L289.054,190C288.472,190 288,190.539 288,191.203L288,199.797C288,200.461 288.472,201 289.054,201L296.946,201C297.528,201 298,200.461 298,199.797L298,191.203Z" fill="#B1B1B1"/>
        </g>
        <g id="seat-17D" transform="matrix(1.21088,0,0,1.06092,251.008,128.88)">
            <path d="M298,191.203C298,190.539 297.528,190 296.946,190L289.054,190C288.472,190 288,190.539 288,191.203L288,199.797C288,200.461 288.472,201 289.054,201L296.946,201C297.528,201 298,200.461 298,199.797L298,191.203Z" fill="#B1B1B1"/>
        </g>
        <g id="seat-17E" transform="matrix(1.21088,0,0,1.06092,251.008,116.464)">
            <path d="M298,191.203C298,190.539 297.528,190 296.946,190L289.054,190C288.472,190 288,190.539 288,191.203L288,199.797C288,200.461 288.472,201 289.054,201L296.946,201C297.528,201 298,200.461 298,199.797L298,191.203Z" fill="#B1B1B1"/>
        </g>
        <g id="seat-17F" transform="matrix(1.21088,0,0,1.06092,251.008,104.104)">
            <path d="M298,191.203C298,190.539 297.528,190 296.946,190L289.054,190C288.472,190 288,190.539 288,191.203L288,199.797C288,200.461 288.472,201 289.054,201L296.946,201C297.528,201 298,200.461 298,199.797L298,191.203Z" fill="#B1B1B1"/>
        </g>
        <g id="seat-18D" transform="matrix(1.21088,0,0,1.06092,269.339,128.88)">
            <path d="M298,191.203C298,190.539 297.528,190 296.946,190L289.054,190C288.472,190 288,190.539 288,191.203L288,199.797C288,200.461 288.472,201 289.054,201L296.946,201C297.528,201 298,200.461 298,199.797L298,191.203Z" fill="#B1B1B1"/>
        </g>
        <g id="seat-18E" transform="matrix(1.21088,0,0,1.06092,269.339,116.464)">
            <path d="M298,191.203C298,190.539 297.528,190 296.946,190L289.054,190C288.472,190 288,190.539 288,191.203L288,199.797C288,200.461 288.472,201 289.054,201L296.946,201C297.528,201 298,200.461 298,199.797L298,191.203Z" fill="#B1B1B1"/>
        </g>
        <g id="seat-18F" transform="matrix(1.21088,0,0,1.06092,269.339,104.104)">
            <path d="M298,191.203C298,190.539 297.528,190 296.946,190L289.054,190C288.472,190 288,190.539 288,191.203L288,199.797C288,200.461 288.472,201 289.054,201L296.946,201C297.528,201 298,200.461 298,199.797L298,191.203Z" fill="#B1B1B1"/>
        </g>
        <g id="seat-19D" transform="matrix(1.21088,0,0,1.06092,287.576,128.88)">
            <path d="M298,191.203C298,190.539 297.528,190 296.946,190L289.054,190C288.472,190 288,190.539 288,191.203L288,199.797C288,200.461 288.472,201 289.054,201L296.946,201C297.528,201 298,200.461 298,199.797L298,191.203Z" fill="#B1B1B1"/>
        </g>
        <g id="seat-19E" transform="matrix(1.21088,0,0,1.06092,287.576,116.464)">
            <path d="M298,191.203C298,190.539 297.528,190 296.946,190L289.054,190C288.472,190 288,190.539 288,191.203L288,199.797C288,200.461 288.472,201 289.054,201L296.946,201C297.528,201 298,200.461 298,199.797L298,191.203Z" fill="#B1B1B1"/>
        </g>
        <g id="seat-19F" transform="matrix(1.21088,0,0,1.06092,287.576,104.104)">
            <path d="M298,191.203C298,190.539 297.528,190 296.946,190L289.054,190C288.472,190 288,190.539 288,191.203L288,199.797C288,200.461 288.472,201 289.054,201L296.946,201C297.528,201 298,200.461 298,199.797L298,191.203Z" fill="#B1B1B1"/>
        </g>
        <g id="seat-20D" transform="matrix(1.21088,0,0,1.06092,306.664,128.88)">
            <path d="M298,191.203C298,190.539 297.528,190 296.946,190L289.054,190C288.472,190 288,190.539 288,191.203L288,199.797C288,200.461 288.472,201 289.054,201L296.946,201C297.528,201 298,200.461 298,199.797L298,191.203Z" fill="#B1B1B1"/>
        </g>
        <g id="seat-20E" transform="matrix(1.21088,0,0,1.06092,306.664,116.464)">
            <path d="M298,191.203C298,190.539 297.528,190 296.946,190L289.054,190C288.472,190 288,190.539 288,191.203L288,199.797C288,200.461 288.472,201 289.054,201L296.946,201C297.528,201 298,200.461 298,199.797L298,191.203Z" fill="#B1B1B1"/>
        </g>
        <g id="seat-20F" transform="matrix(1.21088,0,0,1.06092,306.664,104.104)">
            <path d="M298,191.203C298,190.539 297.528,190 296.946,190L289.054,190C288.472,190 288,190.539 288,191.203L288,199.797C288,200.461 288.472,201 289.054,201L296.946,201C297.528,201 298,200.461 298,199.797L298,191.203Z" fill="#B1B1B1"/>
        </g>
        <g id="seat-21D" transform="matrix(1.21088,0,0,1.06092,359.205,128.88)">
            <path d="M298,191.203C298,190.539 297.528,190 296.946,190L289.054,190C288.472,190 288,190.539 288,191.203L288,199.797C288,200.461 288.472,201 289.054,201L296.946,201C297.528,201 298,200.461 298,199.797L298,191.203Z" fill="#B1B1B1"/>
        </g>
        <g id="seat-21E" transform="matrix(1.21088,0,0,1.06092,359.205,116.464)">
            <path d="M298,191.203C298,190.539 297.528,190 296.946,190L289.054,190C288.472,190 288,190.539 288,191.203L288,199.797C288,200.461 288.472,201 289.054,201L296.946,201C297.528,201 298,200.461 298,199.797L298,191.203Z" fill="#B1B1B1"/>
        </g>
        <g id="seat-21F" transform="matrix(1.21088,0,0,1.06092,359.205,104.104)">
            <path d="M298,191.203C298,190.539 297.528,190 296.946,190L289.054,190C288.472,190 288,190.539 288,191.203L288,199.797C288,200.461 288.472,201 289.054,201L296.946,201C297.528,201 298,200.461 298,199.797L298,191.203Z" fill="#B1B1B1"/>
        </g>
        <g id="seat-22D" transform="matrix(1.21088,0,0,1.06092,378.292,128.88)">
            <path d="M298,191.203C298,190.539 297.528,190 296.946,190L289.054,190C288.472,190 288,190.539 288,191.203L288,199.797C288,200.461 288.472,201 289.054,201L296.946,201C297.528,201 298,200.461 298,199.797L298,191.203Z" fill="#B1B1B1"/>
        </g>
        <g id="seat-22E" transform="matrix(1.21088,0,0,1.06092,378.292,116.464)">
            <path d="M298,191.203C298,190.539 297.528,190 296.946,190L289.054,190C288.472,190 288,190.539 288,191.203L288,199.797C288,200.461 288.472,201 289.054,201L296.946,201C297.528,201 298,200.461 298,199.797L298,191.203Z" fill="#B1B1B1"/>
        </g>
        <g id="seat-22F" transform="matrix(1.21088,0,0,1.06092,378.292,104.104)">
            <path d="M298,191.203C298,190.539 297.528,190 296.946,190L289.054,190C288.472,190 288,190.539 288,191.203L288,199.797C288,200.461 288.472,201 289.054,201L296.946,201C297.528,201 298,200.461 298,199.797L298,191.203Z" fill="#B1B1B1"/>
        </g>
        <g id="seat-23D" transform="matrix(1.21088,0,0,1.06092,397.568,128.88)">
            <path d="M298,191.203C298,190.539 297.528,190 296.946,190L289.054,190C288.472,190 288,190.539 288,191.203L288,199.797C288,200.461 288.472,201 289.054,201L296.946,201C297.528,201 298,200.461 298,199.797L298,191.203Z" fill="#B1B1B1"/>
        </g>
        <g id="seat-23E" transform="matrix(1.21088,0,0,1.06092,397.568,116.464)">
            <path d="M298,191.203C298,190.539 297.528,190 296.946,190L289.054,190C288.472,190 288,190.539 288,191.203L288,199.797C288,200.461 288.472,201 289.054,201L296.946,201C297.528,201 298,200.461 298,199.797L298,191.203Z" fill="#B1B1B1"/>
        </g>
        <g id="seat-23F" transform="matrix(1.21088,0,0,1.06092,397.568,104.104)">
            <path d="M298,191.203C298,190.539 297.528,190 296.946,190L289.054,190C288.472,190 288,190.539 288,191.203L288,199.797C288,200.461 288.472,201 289.054,201L296.946,201C297.528,201 298,200.461 298,199.797L298,191.203Z" fill="#B1B1B1"/>
        </g>
        <g id="seat-24D--" serif:id="seat-24D  " transform="matrix(1.21088,0,0,1.06092,416.656,128.88)">
            <path d="M298,191.203C298,190.539 297.528,190 296.946,190L289.054,190C288.472,190 288,190.539 288,191.203L288,199.797C288,200.461 288.472,201 289.054,201L296.946,201C297.528,201 298,200.461 298,199.797L298,191.203Z" fill="#B1B1B1"/>
        </g>
        <g id="seat-24E" transform="matrix(1.21088,0,0,1.06092,416.656,116.464)">
            <path d="M298,191.203C298,190.539 297.528,190 296.946,190L289.054,190C288.472,190 288,190.539 288,191.203L288,199.797C288,200.461 288.472,201 289.054,201L296.946,201C297.528,201 298,200.461 298,199.797L298,191.203Z" fill="#B1B1B1"/>
        </g>
        <g id="seat-24F" transform="matrix(1.21088,0,0,1.06092,416.656,104.104)">
            <path d="M298,191.203C298,190.539 297.528,190 296.946,190L289.054,190C288.472,190 288,190.539 288,191.203L288,199.797C288,200.461 288.472,201 289.054,201L296.946,201C297.528,201 298,200.461 298,199.797L298,191.203Z" fill="#B1B1B1"/>
        </g>
        <g id="seat-25D" transform="matrix(1.21088,0,0,1.06092,435.27,128.88)">
            <path d="M298,191.203C298,190.539 297.528,190 296.946,190L289.054,190C288.472,190 288,190.539 288,191.203L288,199.797C288,200.461 288.472,201 289.054,201L296.946,201C297.528,201 298,200.461 298,199.797L298,191.203Z" fill="#B1B1B1"/>
        </g>
        <g id="seat-25E" transform="matrix(1.21088,0,0,1.06092,435.27,116.464)">
            <path d="M298,191.203C298,190.539 297.528,190 296.946,190L289.054,190C288.472,190 288,190.539 288,191.203L288,199.797C288,200.461 288.472,201 289.054,201L296.946,201C297.528,201 298,200.461 298,199.797L298,191.203Z" fill="#B1B1B1"/>
        </g>
        <g id="seat-25F" transform="matrix(1.21088,0,0,1.06092,435.27,104.104)">
            <path d="M298,191.203C298,190.539 297.528,190 296.946,190L289.054,190C288.472,190 288,190.539 288,191.203L288,199.797C288,200.461 288.472,201 289.054,201L296.946,201C297.528,201 298,200.461 298,199.797L298,191.203Z" fill="#B1B1B1"/>
        </g>
        <g id="seat-26D" transform="matrix(1.21088,0,0,1.06092,454.169,128.88)">
            <path d="M298,191.203C298,190.539 297.528,190 296.946,190L289.054,190C288.472,190 288,190.539 288,191.203L288,199.797C288,200.461 288.472,201 289.054,201L296.946,201C297.528,201 298,200.461 298,199.797L298,191.203Z" fill="#B1B1B1"/>
        </g>
        <g id="seat-26E" transform="matrix(1.21088,0,0,1.06092,454.169,116.464)">
            <path d="M298,191.203C298,190.539 297.528,190 296.946,190L289.054,190C288.472,190 288,190.539 288,191.203L288,199.797C288,200.461 288.472,201 289.054,201L296.946,201C297.528,201 298,200.461 298,199.797L298,191.203Z" fill="#B1B1B1"/>
        </g>
        <g id="seat-26F" transform="matrix(1.21088,0,0,1.06092,454.169,104.104)">
            <path d="M298,191.203C298,190.539 297.528,190 296.946,190L289.054,190C288.472,190 288,190.539 288,191.203L288,199.797C288,200.461 288.472,201 289.054,201L296.946,201C297.528,201 298,200.461 298,199.797L298,191.203Z" fill="#B1B1B1"/>
        </g>
        <g id="seat-27D" transform="matrix(1.21088,0,0,1.06092,472.689,128.88)">
            <path d="M298,191.203C298,190.539 297.528,190 296.946,190L289.054,190C288.472,190 288,190.539 288,191.203L288,199.797C288,200.461 288.472,201 289.054,201L296.946,201C297.528,201 298,200.461 298,199.797L298,191.203Z" fill="#B1B1B1"/>
        </g>
        <g id="seat-27E" transform="matrix(1.21088,0,0,1.06092,472.689,116.464)">
            <path d="M298,191.203C298,190.539 297.528,190 296.946,190L289.054,190C288.472,190 288,190.539 288,191.203L288,199.797C288,200.461 288.472,201 289.054,201L296.946,201C297.528,201 298,200.461 298,199.797L298,191.203Z" fill="#B1B1B1"/>
        </g>
        <g id="seat-27F" transform="matrix(1.21088,0,0,1.06092,472.689,104.104)">
            <path d="M298,191.203C298,190.539 297.528,190 296.946,190L289.054,190C288.472,190 288,190.539 288,191.203L288,199.797C288,200.461 288.472,201 289.054,201L296.946,201C297.528,201 298,200.461 298,199.797L298,191.203Z" fill="#B1B1B1"/>
        </g>
        <g id="seat-28D" transform="matrix(1.21088,0,0,1.06092,491.02,128.88)">
            <path d="M298,191.203C298,190.539 297.528,190 296.946,190L289.054,190C288.472,190 288,190.539 288,191.203L288,199.797C288,200.461 288.472,201 289.054,201L296.946,201C297.528,201 298,200.461 298,199.797L298,191.203Z" fill="#B1B1B1"/>
        </g>
        <g id="seat-28E" transform="matrix(1.21088,0,0,1.06092,491.02,116.464)">
            <path d="M298,191.203C298,190.539 297.528,190 296.946,190L289.054,190C288.472,190 288,190.539 288,191.203L288,199.797C288,200.461 288.472,201 289.054,201L296.946,201C297.528,201 298,200.461 298,199.797L298,191.203Z" fill="#B1B1B1"/>
        </g>
        <g id="seat-28F" transform="matrix(1.21088,0,0,1.06092,491.02,104.104)">
            <path d="M298,191.203C298,190.539 297.528,190 296.946,190L289.054,190C288.472,190 288,190.539 288,191.203L288,199.797C288,200.461 288.472,201 289.054,201L296.946,201C297.528,201 298,200.461 298,199.797L298,191.203Z" fill="#B1B1B1"/>
        </g>
        <g id="seat-29D" transform="matrix(1.21088,0,0,1.06092,509.257,128.88)">
            <path d="M298,191.203C298,190.539 297.528,190 296.946,190L289.054,190C288.472,190 288,190.539 288,191.203L288,199.797C288,200.461 288.472,201 289.054,201L296.946,201C297.528,201 298,200.461 298,199.797L298,191.203Z" fill="#B1B1B1"/>
        </g>
        <g id="seat-29E" transform="matrix(1.21088,0,0,1.06092,509.257,116.464)">
            <path d="M298,191.203C298,190.539 297.528,190 296.946,190L289.054,190C288.472,190 288,190.539 288,191.203L288,199.797C288,200.461 288.472,201 289.054,201L296.946,201C297.528,201 298,200.461 298,199.797L298,191.203Z" fill="#B1B1B1"/>
        </g>
        <g id="seat-29F" transform="matrix(1.21088,0,0,1.06092,509.257,104.104)">
            <path d="M298,191.203C298,190.539 297.528,190 296.946,190L289.054,190C288.472,190 288,190.539 288,191.203L288,199.797C288,200.461 288.472,201 289.054,201L296.946,201C297.528,201 298,200.461 298,199.797L298,191.203Z" fill="#B1B1B1"/>
        </g>
        <g id="seat-30D" transform="matrix(1.21088,0,0,1.06092,528.345,128.88)">
            <path d="M298,191.203C298,190.539 297.528,190 296.946,190L289.054,190C288.472,190 288,190.539 288,191.203L288,199.797C288,200.461 288.472,201 289.054,201L296.946,201C297.528,201 298,200.461 298,199.797L298,191.203Z" fill="#B1B1B1"/>
        </g>
        <g id="seat-30E" transform="matrix(1.21088,0,0,1.06092,528.345,116.464)">
            <path d="M298,191.203C298,190.539 297.528,190 296.946,190L289.054,190C288.472,190 288,190.539 288,191.203L288,199.797C288,200.461 288.472,201 289.054,201L296.946,201C297.528,201 298,200.461 298,199.797L298,191.203Z" fill="#B1B1B1"/>
        </g>
        <g id="seat-30F" transform="matrix(1.21088,0,0,1.06092,528.345,104.104)">
            <path d="M298,191.203C298,190.539 297.528,190 296.946,190L289.054,190C288.472,190 288,190.539 288,191.203L288,199.797C288,200.461 288.472,201 289.054,201L296.946,201C297.528,201 298,200.461 298,199.797L298,191.203Z" fill="#B1B1B1"/>
        </g>
        <g id="seat-31D" transform="matrix(1.21088,0,0,1.06092,546.889,128.88)">
            <path d="M298,191.203C298,190.539 297.528,190 296.946,190L289.054,190C288.472,190 288,190.539 288,191.203L288,199.797C288,200.461 288.472,201 289.054,201L296.946,201C297.528,201 298,200.461 298,199.797L298,191.203Z" fill="#B1B1B1"/>
        </g>
        <g id="seat-31E" transform="matrix(1.21088,0,0,1.06092,546.889,116.464)">
            <path d="M298,191.203C298,190.539 297.528,190 296.946,190L289.054,190C288.472,190 288,190.539 288,191.203L288,199.797C288,200.461 288.472,201 289.054,201L296.946,201C297.528,201 298,200.461 298,199.797L298,191.203Z" fill="#B1B1B1"/>
        </g>
        <g id="seat-31F" transform="matrix(1.21088,0,0,1.06092,546.889,104.104)">
            <path d="M298,191.203C298,190.539 297.528,190 296.946,190L289.054,190C288.472,190 288,190.539 288,191.203L288,199.797C288,200.461 288.472,201 289.054,201L296.946,201C297.528,201 298,200.461 298,199.797L298,191.203Z" fill="#B1B1B1"/>
        </g>
        <g id="seat-12A" transform="matrix(1.21088,0,0,1.06092,155.168,172.441)">
            <path d="M298,191.203C298,190.539 297.528,190 296.946,190L289.054,190C288.472,190 288,190.539 288,191.203L288,199.797C288,200.461 288.472,201 289.054,201L296.946,201C297.528,201 298,200.461 298,199.797L298,191.203Z" fill="#B1B1B1"/>
        </g>
        <g id="seat-12B" transform="matrix(1.21088,0,0,1.06092,155.168,160.025)">
            <path d="M298,191.203C298,190.539 297.528,190 296.946,190L289.054,190C288.472,190 288,190.539 288,191.203L288,199.797C288,200.461 288.472,201 289.054,201L296.946,201C297.528,201 298,200.461 298,199.797L298,191.203Z" fill="#B1B1B1"/>
        </g>
        <g id="seat-12C" transform="matrix(1.21088,0,0,1.06092,155.168,147.665)">
            <path d="M298,191.203C298,190.539 297.528,190 296.946,190L289.054,190C288.472,190 288,190.539 288,191.203L288,199.797C288,200.461 288.472,201 289.054,201L296.946,201C297.528,201 298,200.461 298,199.797L298,191.203Z" fill="#B1B1B1"/>
        </g>
        <g id="seat-13A" transform="matrix(1.21088,0,0,1.06092,172.608,172.441)">
            <path d="M298,191.203C298,190.539 297.528,190 296.946,190L289.054,190C288.472,190 288,190.539 288,191.203L288,199.797C288,200.461 288.472,201 289.054,201L296.946,201C297.528,201 298,200.461 298,199.797L298,191.203Z" fill="#B1B1B1"/>
        </g>
        <g id="seat-13B" transform="matrix(1.21088,0,0,1.06092,172.608,160.025)">
            <path d="M298,191.203C298,190.539 297.528,190 296.946,190L289.054,190C288.472,190 288,190.539 288,191.203L288,199.797C288,200.461 288.472,201 289.054,201L296.946,201C297.528,201 298,200.461 298,199.797L298,191.203Z" fill="#B1B1B1"/>
        </g>
        <g id="seat-13C" transform="matrix(1.21088,0,0,1.06092,172.608,147.665)">
            <path d="M298,191.203C298,190.539 297.528,190 296.946,190L289.054,190C288.472,190 288,190.539 288,191.203L288,199.797C288,200.461 288.472,201 289.054,201L296.946,201C297.528,201 298,200.461 298,199.797L298,191.203Z" fill="#B1B1B1"/>
        </g>
        <g id="seat-14A" transform="matrix(1.21088,0,0,1.06092,190.233,172.441)">
            <path d="M298,191.203C298,190.539 297.528,190 296.946,190L289.054,190C288.472,190 288,190.539 288,191.203L288,199.797C288,200.461 288.472,201 289.054,201L296.946,201C297.528,201 298,200.461 298,199.797L298,191.203Z" fill="#B1B1B1"/>
        </g>
        <g id="seat-14B" transform="matrix(1.21088,0,0,1.06092,190.233,160.025)">
            <path d="M298,191.203C298,190.539 297.528,190 296.946,190L289.054,190C288.472,190 288,190.539 288,191.203L288,199.797C288,200.461 288.472,201 289.054,201L296.946,201C297.528,201 298,200.461 298,199.797L298,191.203Z" fill="#B1B1B1"/>
        </g>
        <g id="seat-14C" transform="matrix(1.21088,0,0,1.06092,190.233,147.665)">
            <path d="M298,191.203C298,190.539 297.528,190 296.946,190L289.054,190C288.472,190 288,190.539 288,191.203L288,199.797C288,200.461 288.472,201 289.054,201L296.946,201C297.528,201 298,200.461 298,199.797L298,191.203Z" fill="#B1B1B1"/>
        </g>
        <g id="seat-15A" transform="matrix(1.21088,0,0,1.06092,207.765,172.441)">
            <path d="M298,191.203C298,190.539 297.528,190 296.946,190L289.054,190C288.472,190 288,190.539 288,191.203L288,199.797C288,200.461 288.472,201 289.054,201L296.946,201C297.528,201 298,200.461 298,199.797L298,191.203Z" fill="#B1B1B1"/>
        </g>
        <g id="seat-15B" transform="matrix(1.21088,0,0,1.06092,207.765,160.025)">
            <path d="M298,191.203C298,190.539 297.528,190 296.946,190L289.054,190C288.472,190 288,190.539 288,191.203L288,199.797C288,200.461 288.472,201 289.054,201L296.946,201C297.528,201 298,200.461 298,199.797L298,191.203Z" fill="#B1B1B1"/>
        </g>
        <g id="seat-15C" transform="matrix(1.21088,0,0,1.06092,207.765,147.665)">
            <path d="M298,191.203C298,190.539 297.528,190 296.946,190L289.054,190C288.472,190 288,190.539 288,191.203L288,199.797C288,200.461 288.472,201 289.054,201L296.946,201C297.528,201 298,200.461 298,199.797L298,191.203Z" fill="#B1B1B1"/>
        </g>
        <g id="seat-16A" transform="matrix(1.21088,0,0,1.06092,225.39,172.441)">
            <path d="M298,191.203C298,190.539 297.528,190 296.946,190L289.054,190C288.472,190 288,190.539 288,191.203L288,199.797C288,200.461 288.472,201 289.054,201L296.946,201C297.528,201 298,200.461 298,199.797L298,191.203Z" fill="#B1B1B1"/>
        </g>
        <g id="seat-16B" transform="matrix(1.21088,0,0,1.06092,225.39,160.025)">
            <path d="M298,191.203C298,190.539 297.528,190 296.946,190L289.054,190C288.472,190 288,190.539 288,191.203L288,199.797C288,200.461 288.472,201 289.054,201L296.946,201C297.528,201 298,200.461 298,199.797L298,191.203Z" fill="#B1B1B1"/>
        </g>
        <g id="seat-16C" transform="matrix(1.21088,0,0,1.06092,225.39,147.665)">
            <path d="M298,191.203C298,190.539 297.528,190 296.946,190L289.054,190C288.472,190 288,190.539 288,191.203L288,199.797C288,200.461 288.472,201 289.054,201L296.946,201C297.528,201 298,200.461 298,199.797L298,191.203Z" fill="#B1B1B1"/>
        </g>
        <g id="seat-17A" transform="matrix(1.21088,0,0,1.06092,242.831,172.441)">
            <path d="M298,191.203C298,190.539 297.528,190 296.946,190L289.054,190C288.472,190 288,190.539 288,191.203L288,199.797C288,200.461 288.472,201 289.054,201L296.946,201C297.528,201 298,200.461 298,199.797L298,191.203Z" fill="#B1B1B1"/>
        </g>
        <g id="seat-17B" transform="matrix(1.21088,0,0,1.06092,242.831,160.025)">
            <path d="M298,191.203C298,190.539 297.528,190 296.946,190L289.054,190C288.472,190 288,190.539 288,191.203L288,199.797C288,200.461 288.472,201 289.054,201L296.946,201C297.528,201 298,200.461 298,199.797L298,191.203Z" fill="#B1B1B1"/>
        </g>
        <g id="seat-17C" transform="matrix(1.21088,0,0,1.06092,242.831,147.665)">
            <path d="M298,191.203C298,190.539 297.528,190 296.946,190L289.054,190C288.472,190 288,190.539 288,191.203L288,199.797C288,200.461 288.472,201 289.054,201L296.946,201C297.528,201 298,200.461 298,199.797L298,191.203Z" fill="#B1B1B1"/>
        </g>
        <g id="seat-18A" transform="matrix(1.21088,0,0,1.06092,260.548,172.441)">
            <path d="M298,191.203C298,190.539 297.528,190 296.946,190L289.054,190C288.472,190 288,190.539 288,191.203L288,199.797C288,200.461 288.472,201 289.054,201L296.946,201C297.528,201 298,200.461 298,199.797L298,191.203Z" fill="#B1B1B1"/>
        </g>
        <g id="seat-18B" transform="matrix(1.21088,0,0,1.06092,260.548,160.025)">
            <path d="M298,191.203C298,190.539 297.528,190 296.946,190L289.054,190C288.472,190 288,190.539 288,191.203L288,199.797C288,200.461 288.472,201 289.054,201L296.946,201C297.528,201 298,200.461 298,199.797L298,191.203Z" fill="#B1B1B1"/>
        </g>
        <g id="seat-18C" transform="matrix(1.21088,0,0,1.06092,260.548,147.665)">
            <path d="M298,191.203C298,190.539 297.528,190 296.946,190L289.054,190C288.472,190 288,190.539 288,191.203L288,199.797C288,200.461 288.472,201 289.054,201L296.946,201C297.528,201 298,200.461 298,199.797L298,191.203Z" fill="#B1B1B1"/>
        </g>
        <g id="seat-19A" transform="matrix(1.21088,0,0,1.06092,278.357,172.441)">
            <path d="M298,191.203C298,190.539 297.528,190 296.946,190L289.054,190C288.472,190 288,190.539 288,191.203L288,199.797C288,200.461 288.472,201 289.054,201L296.946,201C297.528,201 298,200.461 298,199.797L298,191.203Z" fill="#B1B1B1"/>
        </g>
        <g id="seat-19B" transform="matrix(1.21088,0,0,1.06092,278.357,160.025)">
            <path d="M298,191.203C298,190.539 297.528,190 296.946,190L289.054,190C288.472,190 288,190.539 288,191.203L288,199.797C288,200.461 288.472,201 289.054,201L296.946,201C297.528,201 298,200.461 298,199.797L298,191.203Z" fill="#B1B1B1"/>
        </g>
        <g id="seat-19C" transform="matrix(1.21088,0,0,1.06092,278.357,147.665)">
            <path d="M298,191.203C298,190.539 297.528,190 296.946,190L289.054,190C288.472,190 288,190.539 288,191.203L288,199.797C288,200.461 288.472,201 289.054,201L296.946,201C297.528,201 298,200.461 298,199.797L298,191.203Z" fill="#B1B1B1"/>
        </g>
        <g id="seat-20A" transform="matrix(1.21088,0,0,1.06092,295.982,172.441)">
            <path d="M298,191.203C298,190.539 297.528,190 296.946,190L289.054,190C288.472,190 288,190.539 288,191.203L288,199.797C288,200.461 288.472,201 289.054,201L296.946,201C297.528,201 298,200.461 298,199.797L298,191.203Z" fill="#B1B1B1"/>
        </g>
        <g id="seat-20B" transform="matrix(1.21088,0,0,1.06092,295.982,160.025)">
            <path d="M298,191.203C298,190.539 297.528,190 296.946,190L289.054,190C288.472,190 288,190.539 288,191.203L288,199.797C288,200.461 288.472,201 289.054,201L296.946,201C297.528,201 298,200.461 298,199.797L298,191.203Z" fill="#B1B1B1"/>
        </g>
        <g id="seat-20C" transform="matrix(1.21088,0,0,1.06092,295.982,147.665)">
            <path d="M298,191.203C298,190.539 297.528,190 296.946,190L289.054,190C288.472,190 288,190.539 288,191.203L288,199.797C288,200.461 288.472,201 289.054,201L296.946,201C297.528,201 298,200.461 298,199.797L298,191.203Z" fill="#B1B1B1"/>
        </g>
        <g id="seat-21A" transform="matrix(1.21088,0,0,1.06092,313.976,172.441)">
            <path d="M298,191.203C298,190.539 297.528,190 296.946,190L289.054,190C288.472,190 288,190.539 288,191.203L288,199.797C288,200.461 288.472,201 289.054,201L296.946,201C297.528,201 298,200.461 298,199.797L298,191.203Z" fill="#B1B1B1"/>
        </g>
        <g id="seat-21B" transform="matrix(1.21088,0,0,1.06092,313.976,160.025)">
            <path d="M298,191.203C298,190.539 297.528,190 296.946,190L289.054,190C288.472,190 288,190.539 288,191.203L288,199.797C288,200.461 288.472,201 289.054,201L296.946,201C297.528,201 298,200.461 298,199.797L298,191.203Z" fill="#B1B1B1"/>
        </g>
        <g id="seat-21C" transform="matrix(1.21088,0,0,1.06092,313.976,147.665)">
            <path d="M298,191.203C298,190.539 297.528,190 296.946,190L289.054,190C288.472,190 288,190.539 288,191.203L288,199.797C288,200.461 288.472,201 289.054,201L296.946,201C297.528,201 298,200.461 298,199.797L298,191.203Z" fill="#B1B1B1"/>
        </g>
        <g id="seat-11J" transform="matrix(1.21088,0,0,1.06092,134.405,84.6823)">
            <path d="M298,191.203C298,190.539 297.528,190 296.946,190L289.054,190C288.472,190 288,190.539 288,191.203L288,199.797C288,200.461 288.472,201 289.054,201L296.946,201C297.528,201 298,200.461 298,199.797L298,191.203Z" fill="#B1B1B1"/>
        </g>
        <g id="seat-11L" transform="matrix(1.21088,0,0,1.06092,134.405,60.074)">
            <path d="M298,191.203C298,190.539 297.528,190 296.946,190L289.054,190C288.472,190 288,190.539 288,191.203L288,199.797C288,200.461 288.472,201 289.054,201L296.946,201C297.528,201 298,200.461 298,199.797L298,191.203Z" fill="#B1B1B1"/>
        </g>
        <g id="seat-12J" transform="matrix(1.21088,0,0,1.06092,155.168,84.6823)">
            <path d="M298,191.203C298,190.539 297.528,190 296.946,190L289.054,190C288.472,190 288,190.539 288,191.203L288,199.797C288,200.461 288.472,201 289.054,201L296.946,201C297.528,201 298,200.461 298,199.797L298,191.203Z" fill="#B1B1B1"/>
        </g>
        <g id="seat-12L" transform="matrix(1.21088,0,0,1.06092,155.168,60.074)">
            <path d="M298,191.203C298,190.539 297.528,190 296.946,190L289.054,190C288.472,190 288,190.539 288,191.203L288,199.797C288,200.461 288.472,201 289.054,201L296.946,201C297.528,201 298,200.461 298,199.797L298,191.203Z" fill="#B1B1B1"/>
        </g>
        <g id="seat-13J" transform="matrix(1.21088,0,0,1.06092,172.608,84.6823)">
            <path d="M298,191.203C298,190.539 297.528,190 296.946,190L289.054,190C288.472,190 288,190.539 288,191.203L288,199.797C288,200.461 288.472,201 289.054,201L296.946,201C297.528,201 298,200.461 298,199.797L298,191.203Z" fill="#B1B1B1"/>
        </g>
        <g id="seat-13L" transform="matrix(1.21088,0,0,1.06092,172.608,60.074)">
            <path d="M298,191.203C298,190.539 297.528,190 296.946,190L289.054,190C288.472,190 288,190.539 288,191.203L288,199.797C288,200.461 288.472,201 289.054,201L296.946,201C297.528,201 298,200.461 298,199.797L298,191.203Z" fill="#B1B1B1"/>
        </g>
        <g id="seat-14J" transform="matrix(1.21088,0,0,1.06092,190.233,84.6823)">
            <path d="M298,191.203C298,190.539 297.528,190 296.946,190L289.054,190C288.472,190 288,190.539 288,191.203L288,199.797C288,200.461 288.472,201 289.054,201L296.946,201C297.528,201 298,200.461 298,199.797L298,191.203Z" fill="#B1B1B1"/>
        </g>
        <g id="seat-14L" transform="matrix(1.21088,0,0,1.06092,190.233,60.074)">
            <path d="M298,191.203C298,190.539 297.528,190 296.946,190L289.054,190C288.472,190 288,190.539 288,191.203L288,199.797C288,200.461 288.472,201 289.054,201L296.946,201C297.528,201 298,200.461 298,199.797L298,191.203Z" fill="#B1B1B1"/>
        </g>
        <g id="seat-15J" transform="matrix(1.21088,0,0,1.06092,207.765,84.6823)">
            <path d="M298,191.203C298,190.539 297.528,190 296.946,190L289.054,190C288.472,190 288,190.539 288,191.203L288,199.797C288,200.461 288.472,201 289.054,201L296.946,201C297.528,201 298,200.461 298,199.797L298,191.203Z" fill="#B1B1B1"/>
        </g>
        <g id="seat-15L" transform="matrix(1.21088,0,0,1.06092,207.765,60.074)">
            <path d="M298,191.203C298,190.539 297.528,190 296.946,190L289.054,190C288.472,190 288,190.539 288,191.203L288,199.797C288,200.461 288.472,201 289.054,201L296.946,201C297.528,201 298,200.461 298,199.797L298,191.203Z" fill="#B1B1B1"/>
        </g>
        <g id="seat-16J" transform="matrix(1.21088,0,0,1.06092,225.39,84.6823)">
            <path d="M298,191.203C298,190.539 297.528,190 296.946,190L289.054,190C288.472,190 288,190.539 288,191.203L288,199.797C288,200.461 288.472,201 289.054,201L296.946,201C297.528,201 298,200.461 298,199.797L298,191.203Z" fill="#B1B1B1"/>
        </g>
        <g id="seat-16L" transform="matrix(1.21088,0,0,1.06092,225.39,60.074)">
            <path d="M298,191.203C298,190.539 297.528,190 296.946,190L289.054,190C288.472,190 288,190.539 288,191.203L288,199.797C288,200.461 288.472,201 289.054,201L296.946,201C297.528,201 298,200.461 298,199.797L298,191.203Z" fill="#B1B1B1"/>
        </g>
        <g id="seat-17J" transform="matrix(1.21088,0,0,1.06092,242.831,84.6823)">
            <path d="M298,191.203C298,190.539 297.528,190 296.946,190L289.054,190C288.472,190 288,190.539 288,191.203L288,199.797C288,200.461 288.472,201 289.054,201L296.946,201C297.528,201 298,200.461 298,199.797L298,191.203Z" fill="#B1B1B1"/>
        </g>
        <g id="seat-17L" transform="matrix(1.21088,0,0,1.06092,242.831,60.074)">
            <path d="M298,191.203C298,190.539 297.528,190 296.946,190L289.054,190C288.472,190 288,190.539 288,191.203L288,199.797C288,200.461 288.472,201 289.054,201L296.946,201C297.528,201 298,200.461 298,199.797L298,191.203Z" fill="#B1B1B1"/>
        </g>
        <g id="seat-18J" transform="matrix(1.21088,0,0,1.06092,260.548,84.6823)">
            <path d="M298,191.203C298,190.539 297.528,190 296.946,190L289.054,190C288.472,190 288,190.539 288,191.203L288,199.797C288,200.461 288.472,201 289.054,201L296.946,201C297.528,201 298,200.461 298,199.797L298,191.203Z" fill="#B1B1B1"/>
        </g>
        <g id="seat-18L" transform="matrix(1.21088,0,0,1.06092,260.548,60.074)">
            <path d="M298,191.203C298,190.539 297.528,190 296.946,190L289.054,190C288.472,190 288,190.539 288,191.203L288,199.797C288,200.461 288.472,201 289.054,201L296.946,201C297.528,201 298,200.461 298,199.797L298,191.203Z" fill="#B1B1B1"/>
        </g>
        <g id="seat-19J" transform="matrix(1.21088,0,0,1.06092,278.357,84.6823)">
            <path d="M298,191.203C298,190.539 297.528,190 296.946,190L289.054,190C288.472,190 288,190.539 288,191.203L288,199.797C288,200.461 288.472,201 289.054,201L296.946,201C297.528,201 298,200.461 298,199.797L298,191.203Z" fill="#B1B1B1"/>
        </g>
        <g id="seat-19L" transform="matrix(1.21088,0,0,1.06092,278.357,60.074)">
            <path d="M298,191.203C298,190.539 297.528,190 296.946,190L289.054,190C288.472,190 288,190.539 288,191.203L288,199.797C288,200.461 288.472,201 289.054,201L296.946,201C297.528,201 298,200.461 298,199.797L298,191.203Z" fill="#B1B1B1"/>
        </g>
        <g id="seat-20J" transform="matrix(1.21088,0,0,1.06092,295.982,84.6823)">
            <path d="M298,191.203C298,190.539 297.528,190 296.946,190L289.054,190C288.472,190 288,190.539 288,191.203L288,199.797C288,200.461 288.472,201 289.054,201L296.946,201C297.528,201 298,200.461 298,199.797L298,191.203Z" fill="#B1B1B1"/>
        </g>
        <g id="seat-20L" transform="matrix(1.21088,0,0,1.06092,295.982,60.074)">
            <path d="M298,191.203C298,190.539 297.528,190 296.946,190L289.054,190C288.472,190 288,190.539 288,191.203L288,199.797C288,200.461 288.472,201 289.054,201L296.946,201C297.528,201 298,200.461 298,199.797L298,191.203Z" fill="#B1B1B1"/>
        </g>
        <g id="seat-22J" transform="matrix(1.21088,0,0,1.06092,361.381,84.6823)">
            <path d="M298,191.203C298,190.539 297.528,190 296.946,190L289.054,190C288.472,190 288,190.539 288,191.203L288,199.797C288,200.461 288.472,201 289.054,201L296.946,201C297.528,201 298,200.461 298,199.797L298,191.203Z" fill="#B1B1B1"/>
        </g>
        <g id="seat-22L" transform="matrix(1.21088,0,0,1.06092,361.381,60.074)">
            <path d="M298,191.203C298,190.539 297.528,190 296.946,190L289.054,190C288.472,190 288,190.539 288,191.203L288,199.797C288,200.461 288.472,201 289.054,201L296.946,201C297.528,201 298,200.461 298,199.797L298,191.203Z" fill="#B1B1B1"/>
        </g>
        <g id="seat-23J" transform="matrix(1.21088,0,0,1.06092,382.143,84.6823)">
            <path d="M298,191.203C298,190.539 297.528,190 296.946,190L289.054,190C288.472,190 288,190.539 288,191.203L288,199.797C288,200.461 288.472,201 289.054,201L296.946,201C297.528,201 298,200.461 298,199.797L298,191.203Z" fill="#B1B1B1"/>
        </g>
        <g id="seat-23L" transform="matrix(1.21088,0,0,1.06092,382.143,60.074)">
            <path d="M298,191.203C298,190.539 297.528,190 296.946,190L289.054,190C288.472,190 288,190.539 288,191.203L288,199.797C288,200.461 288.472,201 289.054,201L296.946,201C297.528,201 298,200.461 298,199.797L298,191.203Z" fill="#B1B1B1"/>
        </g>
        <g id="seat-24J" transform="matrix(1.21088,0,0,1.06092,399.583,84.6823)">
            <path d="M298,191.203C298,190.539 297.528,190 296.946,190L289.054,190C288.472,190 288,190.539 288,191.203L288,199.797C288,200.461 288.472,201 289.054,201L296.946,201C297.528,201 298,200.461 298,199.797L298,191.203Z" fill="#B1B1B1"/>
        </g>
        <g id="seat-24L" transform="matrix(1.21088,0,0,1.06092,399.583,60.074)">
            <path d="M298,191.203C298,190.539 297.528,190 296.946,190L289.054,190C288.472,190 288,190.539 288,191.203L288,199.797C288,200.461 288.472,201 289.054,201L296.946,201C297.528,201 298,200.461 298,199.797L298,191.203Z" fill="#B1B1B1"/>
        </g>
        <g id="seat-25J" transform="matrix(1.21088,0,0,1.06092,417.208,84.6823)">
            <path d="M298,191.203C298,190.539 297.528,190 296.946,190L289.054,190C288.472,190 288,190.539 288,191.203L288,199.797C288,200.461 288.472,201 289.054,201L296.946,201C297.528,201 298,200.461 298,199.797L298,191.203Z" fill="#B1B1B1"/>
        </g>
        <g id="seat-25L" transform="matrix(1.21088,0,0,1.06092,417.208,60.074)">
            <path d="M298,191.203C298,190.539 297.528,190 296.946,190L289.054,190C288.472,190 288,190.539 288,191.203L288,199.797C288,200.461 288.472,201 289.054,201L296.946,201C297.528,201 298,200.461 298,199.797L298,191.203Z" fill="#B1B1B1"/>
        </g>
        <g id="seat-26J" transform="matrix(1.21088,0,0,1.06092,434.741,84.6823)">
            <path d="M298,191.203C298,190.539 297.528,190 296.946,190L289.054,190C288.472,190 288,190.539 288,191.203L288,199.797C288,200.461 288.472,201 289.054,201L296.946,201C297.528,201 298,200.461 298,199.797L298,191.203Z" fill="#B1B1B1"/>
        </g>
        <g id="seat-26L" transform="matrix(1.21088,0,0,1.06092,434.741,60.074)">
            <path d="M298,191.203C298,190.539 297.528,190 296.946,190L289.054,190C288.472,190 288,190.539 288,191.203L288,199.797C288,200.461 288.472,201 289.054,201L296.946,201C297.528,201 298,200.461 298,199.797L298,191.203Z" fill="#B1B1B1"/>
        </g>
        <g id="seat-27J" transform="matrix(1.21088,0,0,1.06092,452.366,84.6823)">
            <path d="M298,191.203C298,190.539 297.528,190 296.946,190L289.054,190C288.472,190 288,190.539 288,191.203L288,199.797C288,200.461 288.472,201 289.054,201L296.946,201C297.528,201 298,200.461 298,199.797L298,191.203Z" fill="#B1B1B1"/>
        </g>
        <g id="seat-27L" transform="matrix(1.21088,0,0,1.06092,452.366,60.074)">
            <path d="M298,191.203C298,190.539 297.528,190 296.946,190L289.054,190C288.472,190 288,190.539 288,191.203L288,199.797C288,200.461 288.472,201 289.054,201L296.946,201C297.528,201 298,200.461 298,199.797L298,191.203Z" fill="#B1B1B1"/>
        </g>
        <g id="seat-28J" transform="matrix(1.21088,0,0,1.06092,469.806,84.6823)">
            <path d="M298,191.203C298,190.539 297.528,190 296.946,190L289.054,190C288.472,190 288,190.539 288,191.203L288,199.797C288,200.461 288.472,201 289.054,201L296.946,201C297.528,201 298,200.461 298,199.797L298,191.203Z" fill="#B1B1B1"/>
        </g>
        <g id="seat-28L" transform="matrix(1.21088,0,0,1.06092,469.806,60.074)">
            <path d="M298,191.203C298,190.539 297.528,190 296.946,190L289.054,190C288.472,190 288,190.539 288,191.203L288,199.797C288,200.461 288.472,201 289.054,201L296.946,201C297.528,201 298,200.461 298,199.797L298,191.203Z" fill="#B1B1B1"/>
        </g>
        <g id="seat-29J" transform="matrix(1.21088,0,0,1.06092,487.523,84.6823)">
            <path d="M298,191.203C298,190.539 297.528,190 296.946,190L289.054,190C288.472,190 288,190.539 288,191.203L288,199.797C288,200.461 288.472,201 289.054,201L296.946,201C297.528,201 298,200.461 298,199.797L298,191.203Z" fill="#B1B1B1"/>
        </g>
        <g id="seat-29L-" serif:id="seat-29L " transform="matrix(1.21088,0,0,1.06092,487.523,60.074)">
            <path d="M298,191.203C298,190.539 297.528,190 296.946,190L289.054,190C288.472,190 288,190.539 288,191.203L288,199.797C288,200.461 288.472,201 289.054,201L296.946,201C297.528,201 298,200.461 298,199.797L298,191.203Z" fill="#B1B1B1"/>
        </g>
        <g id="seat-30J" transform="matrix(1.21088,0,0,1.06092,505.333,84.6823)">
            <path d="M298,191.203C298,190.539 297.528,190 296.946,190L289.054,190C288.472,190 288,190.539 288,191.203L288,199.797C288,200.461 288.472,201 289.054,201L296.946,201C297.528,201 298,200.461 298,199.797L298,191.203Z" fill="#B1B1B1"/>
        </g>
        <g id="seat-30L" transform="matrix(1.21088,0,0,1.06092,505.333,60.074)">
            <path d="M298,191.203C298,190.539 297.528,190 296.946,190L289.054,190C288.472,190 288,190.539 288,191.203L288,199.797C288,200.461 288.472,201 289.054,201L296.946,201C297.528,201 298,200.461 298,199.797L298,191.203Z" fill="#B1B1B1"/>
        </g>
        <g id="seat-31J" transform="matrix(1.21088,0,0,1.06092,522.958,84.6823)">
            <path d="M298,191.203C298,190.539 297.528,190 296.946,190L289.054,190C288.472,190 288,190.539 288,191.203L288,199.797C288,200.461 288.472,201 289.054,201L296.946,201C297.528,201 298,200.461 298,199.797L298,191.203Z" fill="#B1B1B1"/>
        </g>
        <g id="seat-31L" transform="matrix(1.21088,0,0,1.06092,522.958,60.074)">
            <path d="M298,191.203C298,190.539 297.528,190 296.946,190L289.054,190C288.472,190 288,190.539 288,191.203L288,199.797C288,200.461 288.472,201 289.054,201L296.946,201C297.528,201 298,200.461 298,199.797L298,191.203Z" fill="#B1B1B1"/>
        </g>
        <g id="seat-22A" transform="matrix(1.21088,0,0,1.06092,361.381,172.43)">
            <path d="M298,191.203C298,190.539 297.528,190 296.946,190L289.054,190C288.472,190 288,190.539 288,191.203L288,199.797C288,200.461 288.472,201 289.054,201L296.946,201C297.528,201 298,200.461 298,199.797L298,191.203Z" fill="#B1B1B1"/>
        </g>
        <g id="seat-22B" transform="matrix(1.21088,0,0,1.06092,361.381,160.013)">
            <path d="M298,191.203C298,190.539 297.528,190 296.946,190L289.054,190C288.472,190 288,190.539 288,191.203L288,199.797C288,200.461 288.472,201 289.054,201L296.946,201C297.528,201 298,200.461 298,199.797L298,191.203Z" fill="#B1B1B1"/>
        </g>
        <g id="seat-22C" transform="matrix(1.21088,0,0,1.06092,361.381,147.654)">
            <path d="M298,191.203C298,190.539 297.528,190 296.946,190L289.054,190C288.472,190 288,190.539 288,191.203L288,199.797C288,200.461 288.472,201 289.054,201L296.946,201C297.528,201 298,200.461 298,199.797L298,191.203Z" fill="#B1B1B1"/>
        </g>
        <g id="seat-23A" transform="matrix(1.21088,0,0,1.06092,382.143,172.43)">
            <path d="M298,191.203C298,190.539 297.528,190 296.946,190L289.054,190C288.472,190 288,190.539 288,191.203L288,199.797C288,200.461 288.472,201 289.054,201L296.946,201C297.528,201 298,200.461 298,199.797L298,191.203Z" fill="#B1B1B1"/>
        </g>
        <g id="seat-23B" transform="matrix(1.21088,0,0,1.06092,382.143,160.013)">
            <path d="M298,191.203C298,190.539 297.528,190 296.946,190L289.054,190C288.472,190 288,190.539 288,191.203L288,199.797C288,200.461 288.472,201 289.054,201L296.946,201C297.528,201 298,200.461 298,199.797L298,191.203Z" fill="#B1B1B1"/>
        </g>
        <g id="seat-23C" transform="matrix(1.21088,0,0,1.06092,382.143,147.654)">
            <path d="M298,191.203C298,190.539 297.528,190 296.946,190L289.054,190C288.472,190 288,190.539 288,191.203L288,199.797C288,200.461 288.472,201 289.054,201L296.946,201C297.528,201 298,200.461 298,199.797L298,191.203Z" fill="#B1B1B1"/>
        </g>
        <g id="seat-24A" transform="matrix(1.21088,0,0,1.06092,399.583,172.43)">
            <path d="M298,191.203C298,190.539 297.528,190 296.946,190L289.054,190C288.472,190 288,190.539 288,191.203L288,199.797C288,200.461 288.472,201 289.054,201L296.946,201C297.528,201 298,200.461 298,199.797L298,191.203Z" fill="#B1B1B1"/>
        </g>
        <g id="seat-24B" transform="matrix(1.21088,0,0,1.06092,399.583,160.013)">
            <path d="M298,191.203C298,190.539 297.528,190 296.946,190L289.054,190C288.472,190 288,190.539 288,191.203L288,199.797C288,200.461 288.472,201 289.054,201L296.946,201C297.528,201 298,200.461 298,199.797L298,191.203Z" fill="#B1B1B1"/>
        </g>
        <g id="seat-24C" transform="matrix(1.21088,0,0,1.06092,399.583,147.654)">
            <path d="M298,191.203C298,190.539 297.528,190 296.946,190L289.054,190C288.472,190 288,190.539 288,191.203L288,199.797C288,200.461 288.472,201 289.054,201L296.946,201C297.528,201 298,200.461 298,199.797L298,191.203Z" fill="#B1B1B1"/>
        </g>
        <g id="seat-25A" transform="matrix(1.21088,0,0,1.06092,417.208,172.43)">
            <path d="M298,191.203C298,190.539 297.528,190 296.946,190L289.054,190C288.472,190 288,190.539 288,191.203L288,199.797C288,200.461 288.472,201 289.054,201L296.946,201C297.528,201 298,200.461 298,199.797L298,191.203Z" fill="#B1B1B1"/>
        </g>
        <g id="seat-25B" transform="matrix(1.21088,0,0,1.06092,417.208,160.013)">
            <path d="M298,191.203C298,190.539 297.528,190 296.946,190L289.054,190C288.472,190 288,190.539 288,191.203L288,199.797C288,200.461 288.472,201 289.054,201L296.946,201C297.528,201 298,200.461 298,199.797L298,191.203Z" fill="#B1B1B1"/>
        </g>
        <g id="seat-25C" transform="matrix(1.21088,0,0,1.06092,417.208,147.654)">
            <path d="M298,191.203C298,190.539 297.528,190 296.946,190L289.054,190C288.472,190 288,190.539 288,191.203L288,199.797C288,200.461 288.472,201 289.054,201L296.946,201C297.528,201 298,200.461 298,199.797L298,191.203Z" fill="#B1B1B1"/>
        </g>
        <g id="seat-26A" transform="matrix(1.21088,0,0,1.06092,434.741,172.43)">
            <path d="M298,191.203C298,190.539 297.528,190 296.946,190L289.054,190C288.472,190 288,190.539 288,191.203L288,199.797C288,200.461 288.472,201 289.054,201L296.946,201C297.528,201 298,200.461 298,199.797L298,191.203Z" fill="#B1B1B1"/>
        </g>
        <g id="seat-26B" transform="matrix(1.21088,0,0,1.06092,434.741,160.013)">
            <path d="M298,191.203C298,190.539 297.528,190 296.946,190L289.054,190C288.472,190 288,190.539 288,191.203L288,199.797C288,200.461 288.472,201 289.054,201L296.946,201C297.528,201 298,200.461 298,199.797L298,191.203Z" fill="#B1B1B1"/>
        </g>
        <g id="seat-26C" transform="matrix(1.21088,0,0,1.06092,434.741,147.654)">
            <path d="M298,191.203C298,190.539 297.528,190 296.946,190L289.054,190C288.472,190 288,190.539 288,191.203L288,199.797C288,200.461 288.472,201 289.054,201L296.946,201C297.528,201 298,200.461 298,199.797L298,191.203Z" fill="#B1B1B1"/>
        </g>
        <g id="seat-27A" transform="matrix(1.21088,0,0,1.06092,452.366,172.43)">
            <path d="M298,191.203C298,190.539 297.528,190 296.946,190L289.054,190C288.472,190 288,190.539 288,191.203L288,199.797C288,200.461 288.472,201 289.054,201L296.946,201C297.528,201 298,200.461 298,199.797L298,191.203Z" fill="#B1B1B1"/>
        </g>
        <g id="seat-27B" transform="matrix(1.21088,0,0,1.06092,452.366,160.013)">
            <path d="M298,191.203C298,190.539 297.528,190 296.946,190L289.054,190C288.472,190 288,190.539 288,191.203L288,199.797C288,200.461 288.472,201 289.054,201L296.946,201C297.528,201 298,200.461 298,199.797L298,191.203Z" fill="#B1B1B1"/>
        </g>
        <g id="seat-27C" transform="matrix(1.21088,0,0,1.06092,452.366,147.654)">
            <path d="M298,191.203C298,190.539 297.528,190 296.946,190L289.054,190C288.472,190 288,190.539 288,191.203L288,199.797C288,200.461 288.472,201 289.054,201L296.946,201C297.528,201 298,200.461 298,199.797L298,191.203Z" fill="#B1B1B1"/>
        </g>
        <g id="seat-28A" transform="matrix(1.21088,0,0,1.06092,469.806,172.43)">
            <path d="M298,191.203C298,190.539 297.528,190 296.946,190L289.054,190C288.472,190 288,190.539 288,191.203L288,199.797C288,200.461 288.472,201 289.054,201L296.946,201C297.528,201 298,200.461 298,199.797L298,191.203Z" fill="#B1B1B1"/>
        </g>
        <g id="seat-28B" transform="matrix(1.21088,0,0,1.06092,469.806,160.013)">
            <path d="M298,191.203C298,190.539 297.528,190 296.946,190L289.054,190C288.472,190 288,190.539 288,191.203L288,199.797C288,200.461 288.472,201 289.054,201L296.946,201C297.528,201 298,200.461 298,199.797L298,191.203Z" fill="#B1B1B1"/>
        </g>
        <g id="seat-28C" transform="matrix(1.21088,0,0,1.06092,469.806,147.654)">
            <path d="M298,191.203C298,190.539 297.528,190 296.946,190L289.054,190C288.472,190 288,190.539 288,191.203L288,199.797C288,200.461 288.472,201 289.054,201L296.946,201C297.528,201 298,200.461 298,199.797L298,191.203Z" fill="#B1B1B1"/>
        </g>
        <g id="seat-29A" transform="matrix(1.21088,0,0,1.06092,487.523,172.43)">
            <path d="M298,191.203C298,190.539 297.528,190 296.946,190L289.054,190C288.472,190 288,190.539 288,191.203L288,199.797C288,200.461 288.472,201 289.054,201L296.946,201C297.528,201 298,200.461 298,199.797L298,191.203Z" fill="#B1B1B1"/>
        </g>
        <g id="seat-29B" transform="matrix(1.21088,0,0,1.06092,487.523,160.013)">
            <path d="M298,191.203C298,190.539 297.528,190 296.946,190L289.054,190C288.472,190 288,190.539 288,191.203L288,199.797C288,200.461 288.472,201 289.054,201L296.946,201C297.528,201 298,200.461 298,199.797L298,191.203Z" fill="#B1B1B1"/>
        </g>
        <g id="seat-29C" transform="matrix(1.21088,0,0,1.06092,487.523,147.654)">
            <path d="M298,191.203C298,190.539 297.528,190 296.946,190L289.054,190C288.472,190 288,190.539 288,191.203L288,199.797C288,200.461 288.472,201 289.054,201L296.946,201C297.528,201 298,200.461 298,199.797L298,191.203Z" fill="#B1B1B1"/>
        </g>
        <g id="seat-30A" transform="matrix(1.21088,0,0,1.06092,505.333,172.43)">
            <path d="M298,191.203C298,190.539 297.528,190 296.946,190L289.054,190C288.472,190 288,190.539 288,191.203L288,199.797C288,200.461 288.472,201 289.054,201L296.946,201C297.528,201 298,200.461 298,199.797L298,191.203Z" fill="#B1B1B1"/>
        </g>
        <g id="seat-30B" transform="matrix(1.21088,0,0,1.06092,505.333,160.013)">
            <path d="M298,191.203C298,190.539 297.528,190 296.946,190L289.054,190C288.472,190 288,190.539 288,191.203L288,199.797C288,200.461 288.472,201 289.054,201L296.946,201C297.528,201 298,200.461 298,199.797L298,191.203Z" fill="#B1B1B1"/>
        </g>
        <g id="seat-30C" transform="matrix(1.21088,0,0,1.06092,505.333,147.654)">
            <path d="M298,191.203C298,190.539 297.528,190 296.946,190L289.054,190C288.472,190 288,190.539 288,191.203L288,199.797C288,200.461 288.472,201 289.054,201L296.946,201C297.528,201 298,200.461 298,199.797L298,191.203Z" fill="#B1B1B1"/>
        </g>
        <g id="seat-31A" transform="matrix(1.21088,0,0,1.06092,522.958,172.43)">
            <path d="M298,191.203C298,190.539 297.528,190 296.946,190L289.054,190C288.472,190 288,190.539 288,191.203L288,199.797C288,200.461 288.472,201 289.054,201L296.946,201C297.528,201 298,200.461 298,199.797L298,191.203Z" fill="#B1B1B1"/>
        </g>
        <g id="seat-31B" transform="matrix(1.21088,0,0,1.06092,522.958,160.013)">
            <path d="M298,191.203C298,190.539 297.528,190 296.946,190L289.054,190C288.472,190 288,190.539 288,191.203L288,199.797C288,200.461 288.472,201 289.054,201L296.946,201C297.528,201 298,200.461 298,199.797L298,191.203Z" fill="#B1B1B1"/>
        </g>
        <g id="seat-31C" transform="matrix(1.21088,0,0,1.06092,522.958,147.654)">
            <path d="M298,191.203C298,190.539 297.528,190 296.946,190L289.054,190C288.472,190 288,190.539 288,191.203L288,199.797C288,200.461 288.472,201 289.054,201L296.946,201C297.528,201 298,200.461 298,199.797L298,191.203Z" fill="#B1B1B1"/>
        </g>
        <g id="seat-32B-" serif:id="seat-32B " transform="matrix(1.21088,0,0,1.06092,539.198,160.013)">
            <path d="M298,191.203C298,190.539 297.528,190 296.946,190L289.054,190C288.472,190 288,190.539 288,191.203L288,199.797C288,200.461 288.472,201 289.054,201L296.946,201C297.528,201 298,200.461 298,199.797L298,191.203Z" fill="#B1B1B1"/>
        </g>
        <g id="seat-32C" transform="matrix(1.21088,0,0,1.06092,539.198,147.654)">
            <path d="M298,191.203C298,190.539 297.528,190 296.946,190L289.054,190C288.472,190 288,190.539 288,191.203L288,199.797C288,200.461 288.472,201 289.054,201L296.946,201C297.528,201 298,200.461 298,199.797L298,191.203Z" fill="#B1B1B1"/>
        </g>
        <g id="seat-21J" transform="matrix(1.21088,0,0,1.06092,313.976,84.6823)">
            <path d="M298,191.203C298,190.539 297.528,190 296.946,190L289.054,190C288.472,190 288,190.539 288,191.203L288,199.797C288,200.461 288.472,201 289.054,201L296.946,201C297.528,201 298,200.461 298,199.797L298,191.203Z" fill="#B1B1B1"/>
        </g>
        <g id="seat-21L" transform="matrix(1.21088,0,0,1.06092,313.976,60.074)">
            <path d="M298,191.203C298,190.539 297.528,190 296.946,190L289.054,190C288.472,190 288,190.539 288,191.203L288,199.797C288,200.461 288.472,201 289.054,201L296.946,201C297.528,201 298,200.461 298,199.797L298,191.203Z" fill="#B1B1B1"/>
        </g>
        <g id="seat-10B" transform="matrix(1.56881,0,0,1.14375,-8.97492,140.022)">
            <path d="M298,191.116C298,190.5 297.635,190 297.187,190L288.813,190C288.365,190 288,190.5 288,191.116L288,199.884C288,200.5 288.365,201 288.813,201L297.187,201C297.635,201 298,200.5 298,199.884L298,191.116Z" fill="#B1B1B1"/>
        </g>
        <g id="seat-8J" transform="matrix(1.56881,0,0,1.14375,-47.4545,59.5641)">
            <path d="M298,191.116C298,190.5 297.635,190 297.187,190L288.813,190C288.365,190 288,190.5 288,191.116L288,199.884C288,200.5 288.365,201 288.813,201L297.187,201C297.635,201 298,200.5 298,199.884L298,191.116Z" fill="#B1B1B1"/>
        </g>
        <g id="seat-8L" transform="matrix(1.56881,0,0,1.14375,-47.4545,46.4534)">
            <path d="M298,191.116C298,190.5 297.635,190 297.187,190L288.813,190C288.365,190 288,190.5 288,191.116L288,199.884C288,200.5 288.365,201 288.813,201L297.187,201C297.635,201 298,200.5 298,199.884L298,191.116Z" fill="#B1B1B1"/>
        </g>
        <g id="seat-9J" transform="matrix(1.56881,0,0,1.14375,-28.3531,59.5641)">
            <path d="M298,191.116C298,190.5 297.635,190 297.187,190L288.813,190C288.365,190 288,190.5 288,191.116L288,199.884C288,200.5 288.365,201 288.813,201L297.187,201C297.635,201 298,200.5 298,199.884L298,191.116Z" fill="#B1B1B1"/>
        </g>
        <g id="seat-9L" transform="matrix(1.56881,0,0,1.14375,-28.3531,46.4534)">
            <path d="M298,191.116C298,190.5 297.635,190 297.187,190L288.813,190C288.365,190 288,190.5 288,191.116L288,199.884C288,200.5 288.365,201 288.813,201L297.187,201C297.635,201 298,200.5 298,199.884L298,191.116Z" fill="#B1B1B1"/>
        </g>
        <g id="seat-10J" transform="matrix(1.56881,0,0,1.14375,-8.97492,59.5641)">
            <path d="M298,191.116C298,190.5 297.635,190 297.187,190L288.813,190C288.365,190 288,190.5 288,191.116L288,199.884C288,200.5 288.365,201 288.813,201L297.187,201C297.635,201 298,200.5 298,199.884L298,191.116Z" fill="#B1B1B1"/>
        </g>
        <g id="seat-10L" transform="matrix(1.56881,0,0,1.14375,-8.97492,46.4534)">
            <path d="M298,191.116C298,190.5 297.635,190 297.187,190L288.813,190C288.365,190 288,190.5 288,191.116L288,199.884C288,200.5 288.365,201 288.813,201L297.187,201C297.635,201 298,200.5 298,199.884L298,191.116Z" fill="#B1B1B1"/>
        </g>
        <g id="seat-8E" transform="matrix(1.56881,0,0,1.14375,-47.4545,100.224)">
            <path d="M298,191.116C298,190.5 297.635,190 297.187,190L288.813,190C288.365,190 288,190.5 288,191.116L288,199.884C288,200.5 288.365,201 288.813,201L297.187,201C297.635,201 298,200.5 298,199.884L298,191.116Z" fill="#B1B1B1"/>
        </g>
        <g id="seat-8F" transform="matrix(1.56881,0,0,1.14375,-47.4545,87.113)">
            <path d="M298,191.116C298,190.5 297.635,190 297.187,190L288.813,190C288.365,190 288,190.5 288,191.116L288,199.884C288,200.5 288.365,201 288.813,201L297.187,201C297.635,201 298,200.5 298,199.884L298,191.116Z" fill="#B1B1B1"/>
        </g>
        <g id="seat-9E" transform="matrix(1.56881,0,0,1.14375,-28.3531,100.224)">
            <path d="M298,191.116C298,190.5 297.635,190 297.187,190L288.813,190C288.365,190 288,190.5 288,191.116L288,199.884C288,200.5 288.365,201 288.813,201L297.187,201C297.635,201 298,200.5 298,199.884L298,191.116Z" fill="#B1B1B1"/>
        </g>
        <g id="seat-9F" transform="matrix(1.56881,0,0,1.14375,-28.3531,87.113)">
            <path d="M298,191.116C298,190.5 297.635,190 297.187,190L288.813,190C288.365,190 288,190.5 288,191.116L288,199.884C288,200.5 288.365,201 288.813,201L297.187,201C297.635,201 298,200.5 298,199.884L298,191.116Z" fill="#B1B1B1"/>
        </g>
        <g id="seat-10E" transform="matrix(1.56881,0,0,1.14375,-8.97492,100.224)">
            <path d="M298,191.116C298,190.5 297.635,190 297.187,190L288.813,190C288.365,190 288,190.5 288,191.116L288,199.884C288,200.5 288.365,201 288.813,201L297.187,201C297.635,201 298,200.5 298,199.884L298,191.116Z" fill="#B1B1B1"/>
        </g>
        <g id="seat-8D" transform="matrix(1.56881,0,0,1.14375,-47.4545,113.476)">
            <path d="M298,191.116C298,190.5 297.635,190 297.187,190L288.813,190C288.365,190 288,190.5 288,191.116L288,199.884C288,200.5 288.365,201 288.813,201L297.187,201C297.635,201 298,200.5 298,199.884L298,191.116Z" fill="#B1B1B1"/>
        </g>
        <g id="seat-9D" transform="matrix(1.56881,0,0,1.14375,-28.3531,113.476)">
            <path d="M298,191.116C298,190.5 297.635,190 297.187,190L288.813,190C288.365,190 288,190.5 288,191.116L288,199.884C288,200.5 288.365,201 288.813,201L297.187,201C297.635,201 298,200.5 298,199.884L298,191.116Z" fill="#B1B1B1"/>
        </g>
        <g id="seat-10D" transform="matrix(1.56881,0,0,1.14375,-8.97492,113.476)">
            <path d="M298,191.116C298,190.5 297.635,190 297.187,190L288.813,190C288.365,190 288,190.5 288,191.116L288,199.884C288,200.5 288.365,201 288.813,201L297.187,201C297.635,201 298,200.5 298,199.884L298,191.116Z" fill="#B1B1B1"/>
        </g>
        <g id="seat-10F" transform="matrix(1.56881,0,0,1.14375,-8.97492,87.113)">
            <path d="M298,191.116C298,190.5 297.635,190 297.187,190L288.813,190C288.365,190 288,190.5 288,191.116L288,199.884C288,200.5 288.365,201 288.813,201L297.187,201C297.635,201 298,200.5 298,199.884L298,191.116Z" fill="#B1B1B1"/>
        </g>
        <g id="seat-5F" transform="matrix(1.96268,0,0,1.713,-284.786,-21.3333)">
            <path d="M298,190.745C298,190.334 297.709,190 297.35,190L288.65,190C288.291,190 288,190.334 288,190.745L288,200.255C288,200.666 288.291,201 288.65,201L297.35,201C297.709,201 298,200.666 298,200.255L298,190.745Z" fill="#B1B1B1"/>
        </g>
        <g id="seat-5D" transform="matrix(1.96268,0,0,1.713,-284.786,-1.7026)">
            <path d="M298,190.745C298,190.334 297.709,190 297.35,190L288.65,190C288.291,190 288,190.334 288,190.745L288,200.255C288,200.666 288.291,201 288.65,201L297.35,201C297.709,201 298,200.666 298,200.255L298,190.745Z" fill="#B1B1B1"/>
        </g>
        <g id="seat-2L" transform="matrix(1.96268,0,0,1.713,-341.578,-63.8721)">
            <path d="M298,190.745C298,190.334 297.709,190 297.35,190L288.65,190C288.291,190 288,190.334 288,190.745L288,200.255C288,200.666 288.291,201 288.65,201L297.35,201C297.709,201 298,200.666 298,200.255L298,190.745Z" fill="#B1B1B1"/>
        </g>
        <g id="seat-3L" transform="matrix(1.96268,0,0,1.713,-319.653,-63.8721)">
            <path d="M298,190.745C298,190.334 297.709,190 297.35,190L288.65,190C288.291,190 288,190.334 288,190.745L288,200.255C288,200.666 288.291,201 288.65,201L297.35,201C297.709,201 298,200.666 298,200.255L298,190.745Z" fill="#B1B1B1"/>
        </g>
        <g id="seat-4L" transform="matrix(1.96268,0,0,1.713,-297.894,-63.8721)">
            <path d="M298,190.745C298,190.334 297.709,190 297.35,190L288.65,190C288.291,190 288,190.334 288,190.745L288,200.255C288,200.666 288.291,201 288.65,201L297.35,201C297.709,201 298,200.666 298,200.255L298,190.745Z" fill="#B1B1B1"/>
        </g>
        <g id="seat-5L" transform="matrix(1.96268,0,0,1.713,-276.301,-63.8721)">
            <path d="M298,190.745C298,190.334 297.709,190 297.35,190L288.65,190C288.291,190 288,190.334 288,190.745L288,200.255C288,200.666 288.291,201 288.65,201L297.35,201C297.709,201 298,200.666 298,200.255L298,190.745Z" fill="#B1B1B1"/>
        </g>
    </g>
    <g id="partition-walls">
        <g transform="matrix(0.893589,0,0,0.893589,35.4614,49.8086)">
            <rect x="330.812" y="341.172" width="1.896" height="39.095" fill="#B1B1B1"/>
        </g>
        <g transform="matrix(0.893589,0,0,0.893589,94.0815,49.8086)">
            <rect x="330.812" y="341.172" width="1.896" height="39.095" fill="#B1B1B1"/>
        </g>
        <g transform="matrix(0.893589,0,0,0.893589,169.955,49.8086)">
            <rect x="330.812" y="341.172" width="1.896" height="39.095" fill="#B1B1B1"/>
        </g>
        <g transform="matrix(0.893589,0,0,0.893589,381.576,49.8086)">
            <rect x="330.812" y="341.172" width="1.896" height="39.095" fill="#B1B1B1"/>
        </g>
        <g transform="matrix(0.843173,0,0,0.843173,398.302,-27.589)">
            <rect x="330.812" y="341.172" width="1.896" height="39.095" fill="#B1B1B1"/>
        </g>
        <g transform="matrix(0.893589,0,0,0.893589,169.955,-46.8725)">
            <rect x="330.812" y="341.172" width="1.896" height="39.095" fill="#B1B1B1"/>
        </g>
        <g transform="matrix(0.959821,0,0,0.959821,72.1084,-22.3055)">
            <rect x="330.812" y="341.172" width="1.896" height="39.095" fill="#B1B1B1"/>
        </g>
        <g transform="matrix(0.959821,0,0,0.959821,148.261,-22.3055)">
            <rect x="330.812" y="341.172" width="1.896" height="39.095" fill="#B1B1B1"/>
        </g>
        <g transform="matrix(0.959821,0,0,0.959821,352.337,-22.3055)">
            <rect x="330.812" y="341.172" width="1.896" height="39.095" fill="#B1B1B1"/>
        </g>
        <g transform="matrix(0.959821,0,0,0.959821,14.2323,-22.3055)">
            <rect x="330.812" y="341.172" width="1.896" height="39.095" fill="#B1B1B1"/>
        </g>
        <g transform="matrix(0.959821,0,0,0.959821,-6.76578,-22.3055)">
            <rect x="330.812" y="341.172" width="1.896" height="39.095" fill="#B1B1B1"/>
        </g>
        <g transform="matrix(0.893589,0,0,0.893589,15.3347,49.8086)">
            <rect x="330.812" y="341.172" width="1.896" height="39.095" fill="#B1B1B1"/>
        </g>
        <g transform="matrix(0.828909,0,0,0.828909,36.7928,-22.7282)">
            <rect x="330.812" y="341.172" width="1.896" height="39.095" fill="#B1B1B1"/>
        </g>
        <g transform="matrix(0.828909,0,0,0.828909,57.1768,-22.7282)">
            <rect x="330.812" y="341.172" width="1.896" height="39.095" fill="#B1B1B1"/>
        </g>
        <g transform="matrix(0.828909,0,0,0.828909,115.684,-22.7282)">
            <rect x="330.812" y="341.172" width="1.896" height="39.095" fill="#B1B1B1"/>
        </g>
    </g>
    <g id="outer-countour">
        <path d="M670.425,226.672L659.073,253.708L932.302,253.708C1036.98,261.696 1036.72,387.788 932.302,394.095L658.069,394.095L666.445,420.948" style="fill:none;stroke:rgb(94,94,94);stroke-width:2px;"/>
        <path d="M402.246,226.899L386.926,253.682L164.25,253.682L164.137,253.647C-18.725,273.968 -33.715,369.269 163.44,394.495L386.624,394.846L402.422,421.757" style="fill:none;stroke:rgb(94,94,94);stroke-width:2px;"/>
    </g>
    <g id="inner-countour">
        <path d="M165.896,389.793C-30.949,364.245 -10.18,279.171 165.719,258.085L935.934,258.085C1031.58,267.218 1028.36,383.424 935.806,389.793L165.896,389.793Z" style="fill:none;stroke:rgb(244,167,125);stroke-width:4px;"/>
    </g>
    <g id="signs">
        <g id="exit-sign" transform="matrix(4.84637e-17,-0.791473,0.791473,4.84637e-17,14.5116,599.126)">
            <path d="M269.375,200.802L269.375,192.212L275.744,192.212L275.744,193.665L271.109,193.665L271.109,195.57L275.421,195.57L275.421,197.017L271.109,197.017L271.109,199.355L275.908,199.355L275.908,200.802L269.375,200.802Z" style="fill:rgb(94,94,94);fill-rule:nonzero;"/>
            <path d="M276.505,200.802L279.441,196.32L276.781,192.212L278.808,192.212L280.531,194.972L282.218,192.212L284.228,192.212L281.556,196.384L284.492,200.802L282.4,200.802L280.496,197.831L278.586,200.802L276.505,200.802Z" style="fill:rgb(94,94,94);fill-rule:nonzero;"/>
            <rect x="285.33" y="192.212" width="1.734" height="8.59" style="fill:rgb(94,94,94);fill-rule:nonzero;"/>
            <path d="M290.65,200.802L290.65,193.665L288.101,193.665L288.101,192.212L294.927,192.212L294.927,193.665L292.384,193.665L292.384,200.802L290.65,200.802Z" style="fill:rgb(94,94,94);fill-rule:nonzero;"/>
        </g>
        <g id="exit-sign1" serif:id="exit-sign" transform="matrix(4.84637e-17,-0.791473,0.791473,4.84637e-17,165.743,599.126)">
            <path d="M269.375,200.802L269.375,192.212L275.744,192.212L275.744,193.665L271.109,193.665L271.109,195.57L275.421,195.57L275.421,197.017L271.109,197.017L271.109,199.355L275.908,199.355L275.908,200.802L269.375,200.802Z" style="fill:rgb(94,94,94);fill-rule:nonzero;"/>
            <path d="M276.505,200.802L279.441,196.32L276.781,192.212L278.808,192.212L280.531,194.972L282.218,192.212L284.228,192.212L281.556,196.384L284.492,200.802L282.4,200.802L280.496,197.831L278.586,200.802L276.505,200.802Z" style="fill:rgb(94,94,94);fill-rule:nonzero;"/>
            <rect x="285.33" y="192.212" width="1.734" height="8.59" style="fill:rgb(94,94,94);fill-rule:nonzero;"/>
            <path d="M290.65,200.802L290.65,193.665L288.101,193.665L288.101,192.212L294.927,192.212L294.927,193.665L292.384,193.665L292.384,200.802L290.65,200.802Z" style="fill:rgb(94,94,94);fill-rule:nonzero;"/>
        </g>
        <g id="exit-sign2" serif:id="exit-sign" transform="matrix(4.84637e-17,-0.791473,0.791473,4.84637e-17,537.84,599.126)">
            <path d="M269.375,200.802L269.375,192.212L275.744,192.212L275.744,193.665L271.109,193.665L271.109,195.57L275.421,195.57L275.421,197.017L271.109,197.017L271.109,199.355L275.908,199.355L275.908,200.802L269.375,200.802Z" style="fill:rgb(94,94,94);fill-rule:nonzero;"/>
            <path d="M276.505,200.802L279.441,196.32L276.781,192.212L278.808,192.212L280.531,194.972L282.218,192.212L284.228,192.212L281.556,196.384L284.492,200.802L282.4,200.802L280.496,197.831L278.586,200.802L276.505,200.802Z" style="fill:rgb(94,94,94);fill-rule:nonzero;"/>
            <rect x="285.33" y="192.212" width="1.734" height="8.59" style="fill:rgb(94,94,94);fill-rule:nonzero;"/>
            <path d="M290.65,200.802L290.65,193.665L288.101,193.665L288.101,192.212L294.927,192.212L294.927,193.665L292.384,193.665L292.384,200.802L290.65,200.802Z" style="fill:rgb(94,94,94);fill-rule:nonzero;"/>
        </g>
        <g id="exit-sign3" serif:id="exit-sign" transform="matrix(4.84637e-17,-0.791473,0.791473,4.84637e-17,776.221,599.126)">
            <path d="M269.375,200.802L269.375,192.212L275.744,192.212L275.744,193.665L271.109,193.665L271.109,195.57L275.421,195.57L275.421,197.017L271.109,197.017L271.109,199.355L275.908,199.355L275.908,200.802L269.375,200.802Z" style="fill:rgb(94,94,94);fill-rule:nonzero;"/>
            <path d="M276.505,200.802L279.441,196.32L276.781,192.212L278.808,192.212L280.531,194.972L282.218,192.212L284.228,192.212L281.556,196.384L284.492,200.802L282.4,200.802L280.496,197.831L278.586,200.802L276.505,200.802Z" style="fill:rgb(94,94,94);fill-rule:nonzero;"/>
            <rect x="285.33" y="192.212" width="1.734" height="8.59" style="fill:rgb(94,94,94);fill-rule:nonzero;"/>
            <path d="M290.65,200.802L290.65,193.665L288.101,193.665L288.101,192.212L294.927,192.212L294.927,193.665L292.384,193.665L292.384,200.802L290.65,200.802Z" style="fill:rgb(94,94,94);fill-rule:nonzero;"/>
        </g>
        <g id="exit-sign4" serif:id="exit-sign" transform="matrix(4.84637e-17,-0.791473,0.791473,4.84637e-17,776.221,495.315)">
            <path d="M269.375,200.802L269.375,192.212L275.744,192.212L275.744,193.665L271.109,193.665L271.109,195.57L275.421,195.57L275.421,197.017L271.109,197.017L271.109,199.355L275.908,199.355L275.908,200.802L269.375,200.802Z" style="fill:rgb(94,94,94);fill-rule:nonzero;"/>
            <path d="M276.505,200.802L279.441,196.32L276.781,192.212L278.808,192.212L280.531,194.972L282.218,192.212L284.228,192.212L281.556,196.384L284.492,200.802L282.4,200.802L280.496,197.831L278.586,200.802L276.505,200.802Z" style="fill:rgb(94,94,94);fill-rule:nonzero;"/>
            <rect x="285.33" y="192.212" width="1.734" height="8.59" style="fill:rgb(94,94,94);fill-rule:nonzero;"/>
            <path d="M290.65,200.802L290.65,193.665L288.101,193.665L288.101,192.212L294.927,192.212L294.927,193.665L292.384,193.665L292.384,200.802L290.65,200.802Z" style="fill:rgb(94,94,94);fill-rule:nonzero;"/>
        </g>
        <g id="exit-sign5" serif:id="exit-sign" transform="matrix(4.84637e-17,-0.791473,0.791473,4.84637e-17,14.5116,495.26)">
            <path d="M269.375,200.802L269.375,192.212L275.744,192.212L275.744,193.665L271.109,193.665L271.109,195.57L275.421,195.57L275.421,197.017L271.109,197.017L271.109,199.355L275.908,199.355L275.908,200.802L269.375,200.802Z" style="fill:rgb(94,94,94);fill-rule:nonzero;"/>
            <path d="M276.505,200.802L279.441,196.32L276.781,192.212L278.808,192.212L280.531,194.972L282.218,192.212L284.228,192.212L281.556,196.384L284.492,200.802L282.4,200.802L280.496,197.831L278.586,200.802L276.505,200.802Z" style="fill:rgb(94,94,94);fill-rule:nonzero;"/>
            <rect x="285.33" y="192.212" width="1.734" height="8.59" style="fill:rgb(94,94,94);fill-rule:nonzero;"/>
            <path d="M290.65,200.802L290.65,193.665L288.101,193.665L288.101,192.212L294.927,192.212L294.927,193.665L292.384,193.665L292.384,200.802L290.65,200.802Z" style="fill:rgb(94,94,94);fill-rule:nonzero;"/>
        </g>
        <g id="exit-sign6" serif:id="exit-sign" transform="matrix(4.84637e-17,-0.791473,0.791473,4.84637e-17,165.743,495.26)">
            <path d="M269.375,200.802L269.375,192.212L275.744,192.212L275.744,193.665L271.109,193.665L271.109,195.57L275.421,195.57L275.421,197.017L271.109,197.017L271.109,199.355L275.908,199.355L275.908,200.802L269.375,200.802Z" style="fill:rgb(94,94,94);fill-rule:nonzero;"/>
            <path d="M276.505,200.802L279.441,196.32L276.781,192.212L278.808,192.212L280.531,194.972L282.218,192.212L284.228,192.212L281.556,196.384L284.492,200.802L282.4,200.802L280.496,197.831L278.586,200.802L276.505,200.802Z" style="fill:rgb(94,94,94);fill-rule:nonzero;"/>
            <rect x="285.33" y="192.212" width="1.734" height="8.59" style="fill:rgb(94,94,94);fill-rule:nonzero;"/>
            <path d="M290.65,200.802L290.65,193.665L288.101,193.665L288.101,192.212L294.927,192.212L294.927,193.665L292.384,193.665L292.384,200.802L290.65,200.802Z" style="fill:rgb(94,94,94);fill-rule:nonzero;"/>
        </g>
        <g id="exit-sign7" serif:id="exit-sign" transform="matrix(4.84637e-17,-0.791473,0.791473,4.84637e-17,537.84,495.26)">
            <path d="M269.375,200.802L269.375,192.212L275.744,192.212L275.744,193.665L271.109,193.665L271.109,195.57L275.421,195.57L275.421,197.017L271.109,197.017L271.109,199.355L275.908,199.355L275.908,200.802L269.375,200.802Z" style="fill:rgb(94,94,94);fill-rule:nonzero;"/>
            <path d="M276.505,200.802L279.441,196.32L276.781,192.212L278.808,192.212L280.531,194.972L282.218,192.212L284.228,192.212L281.556,196.384L284.492,200.802L282.4,200.802L280.496,197.831L278.586,200.802L276.505,200.802Z" style="fill:rgb(94,94,94);fill-rule:nonzero;"/>
            <rect x="285.33" y="192.212" width="1.734" height="8.59" style="fill:rgb(94,94,94);fill-rule:nonzero;"/>
            <path d="M290.65,200.802L290.65,193.665L288.101,193.665L288.101,192.212L294.927,192.212L294.927,193.665L292.384,193.665L292.384,200.802L290.65,200.802Z" style="fill:rgb(94,94,94);fill-rule:nonzero;"/>
        </g>
    </g>
    <g id="windshield">
        <path d="M80.324,288.415C80.324,288.415 68.895,290.985 64.54,295.747C60.186,300.51 58.417,321.192 58.417,321.192L69.643,321.207C69.643,321.207 69.325,304.139 80.324,288.415Z" style="fill:rgb(117,202,255);"/>
        <g transform="matrix(1,0,0,-1,0,647.381)">
            <path d="M80.324,288.415C80.324,288.415 68.895,290.985 64.54,295.747C60.186,300.51 58.417,321.192 58.417,321.192L69.643,321.207C69.643,321.207 69.325,304.139 80.324,288.415Z" style="fill:rgb(117,202,255);"/>
        </g>
    </g>
</svg>
