<?xml version="1.0" encoding="UTF-8" standalone="no"?>
<!DOCTYPE svg PUBLIC "-//W3C//DTD SVG 1.1//EN" "http://www.w3.org/Graphics/SVG/1.1/DTD/svg11.dtd">
<svg width="100%" height="100%" viewBox="0 0 1024 600" version="1.1" xmlns="http://www.w3.org/2000/svg" xmlns:xlink="http://www.w3.org/1999/xlink" xml:space="preserve" xmlns:serif="http://www.serif.com/" style="fill-rule:evenodd;clip-rule:evenodd;stroke-linecap:round;stroke-linejoin:round;stroke-miterlimit:1.5;">
    <g transform="matrix(1,0,0,1,0,-13.4959)">
        <g id="gray-fill">
            <path d="M183.74,261.273L435.978,261.273L456.434,225.948L640.291,225.948L629.613,261.315L906.605,261.272C1001.74,265.099 998.281,387.178 906.605,389.091L629.318,389.091L640.941,423.694L456.292,423.694L436.018,388.905L184.37,388.905C-16.224,373.658 -10.09,275.026 183.74,261.273Z" style="fill:rgb(229,229,229);"/>
        </g>
    </g>
    <g id="outer-countour">
        <g transform="matrix(1,0,0,1,0,-13.4959)">
            <path d="M640.112,226.285L629.532,261.269L901.541,261.269C1001.85,261.269 1002.2,389.039 901.541,389.039L629.076,389.039L640.904,423.8" style="fill:none;stroke:rgb(94,94,94);stroke-width:2px;"/>
        </g>
        <g transform="matrix(1,0,0,1,0,-13.4959)">
            <path d="M456.352,423.748L436.055,388.945L183.07,388.945C-11.226,374.456 -15.041,276.815 183.07,261.316L435.977,261.316L456.151,226.294" style="fill:none;stroke:rgb(94,94,94);stroke-width:2px;"/>
        </g>
    </g>
    <g id="partition-walls">
        <g transform="matrix(1,0,0,1,0,-13.4959)">
            <rect x="330.812" y="341.172" width="1.896" height="39.095" style="fill:rgb(177,177,177);"/>
        </g>
        <g transform="matrix(1,0,0,1,0,-84.9)">
            <rect x="330.812" y="341.172" width="1.896" height="39.095" style="fill:rgb(177,177,177);"/>
        </g>
    </g>
    <g transform="matrix(1,0,0,1,0,-13.4959)">
        <g id="inner-countour">
            <path d="M185.224,266.771L899.117,266.771C994.37,266.771 994.269,383.246 898.972,383.246L185.074,383.246C-2.563,363.791 -5.316,287.221 185.224,266.771Z" style="fill:none;stroke:rgb(244,167,125);stroke-width:6px;"/>
        </g>
    </g>
    <g id="windshields">
        <g transform="matrix(1,0,0,-1,0,637.323)">
            <path d="M103.011,291.473L82.908,298.527C76.736,305.581 75.149,323.215 75.149,323.215L89.256,323.039C89.256,323.039 88.819,306.899 103.011,291.473Z" style="fill:rgb(117,202,255);"/>
        </g>
        <g transform="matrix(1,0,0,1,0,-13.4959)">
            <path d="M103.011,291.473L82.908,298.527C76.736,305.581 75.149,323.215 75.149,323.215L89.256,323.039C89.256,323.039 88.819,306.899 103.011,291.473Z" style="fill:rgb(117,202,255);"/>
        </g>
    </g>
    <g id="seats">
        <g id="seat-1A" transform="matrix(1.96268,0,0,1.713,-348.637,19.895)">
            <path d="M298,190.745C298,190.334 297.709,190 297.35,190L288.65,190C288.291,190 288,190.334 288,190.745L288,200.255C288,200.666 288.291,201 288.65,201L297.35,201C297.709,201 298,200.666 298,200.255L298,190.745Z" style="fill:rgb(177,177,177);"/>
        </g>
        <g id="seat-2A" transform="matrix(1.96268,0,0,1.713,-319.971,19.895)">
            <path d="M298,190.745C298,190.334 297.709,190 297.35,190L288.65,190C288.291,190 288,190.334 288,190.745L288,200.255C288,200.666 288.291,201 288.65,201L297.35,201C297.709,201 298,200.666 298,200.255L298,190.745Z" style="fill:rgb(177,177,177);"/>
        </g>
        <g id="seat-3A" transform="matrix(1.96268,0,0,1.713,-291.304,19.895)">
            <path d="M298,190.745C298,190.334 297.709,190 297.35,190L288.65,190C288.291,190 288,190.334 288,190.745L288,200.255C288,200.666 288.291,201 288.65,201L297.35,201C297.709,201 298,200.666 298,200.255L298,190.745Z" style="fill:rgb(177,177,177);"/>
        </g>
        <g id="seat-4A" transform="matrix(1.96268,0,0,1.713,-262.637,19.895)">
            <path d="M298,190.745C298,190.334 297.709,190 297.35,190L288.65,190C288.291,190 288,190.334 288,190.745L288,200.255C288,200.666 288.291,201 288.65,201L297.35,201C297.709,201 298,200.666 298,200.255L298,190.745Z" style="fill:rgb(177,177,177);"/>
        </g>
        <g id="seat-3B" transform="matrix(1.96268,0,0,1.713,-291.304,-1.61904)">
            <path d="M298,190.745C298,190.334 297.709,190 297.35,190L288.65,190C288.291,190 288,190.334 288,190.745L288,200.255C288,200.666 288.291,201 288.65,201L297.35,201C297.709,201 298,200.666 298,200.255L298,190.745Z" style="fill:rgb(177,177,177);"/>
        </g>
        <g id="seat-4B" transform="matrix(1.96268,0,0,1.713,-262.637,-1.61904)">
            <path d="M298,190.745C298,190.334 297.709,190 297.35,190L288.65,190C288.291,190 288,190.334 288,190.745L288,200.255C288,200.666 288.291,201 288.65,201L297.35,201C297.709,201 298,200.666 298,200.255L298,190.745Z" style="fill:rgb(177,177,177);"/>
        </g>
        <g id="seat-1B" transform="matrix(1.96268,0,0,1.713,-348.656,-1.61904)">
            <path d="M298,190.745C298,190.334 297.709,190 297.35,190L288.65,190C288.291,190 288,190.334 288,190.745L288,200.255C288,200.666 288.291,201 288.65,201L297.35,201C297.709,201 298,200.666 298,200.255L298,190.745Z" style="fill:rgb(177,177,177);"/>
        </g>
        <g id="seat-2B" transform="matrix(1.96268,0,0,1.713,-319.99,-1.61904)">
            <path d="M298,190.745C298,190.334 297.709,190 297.35,190L288.65,190C288.291,190 288,190.334 288,190.745L288,200.255C288,200.666 288.291,201 288.65,201L297.35,201C297.709,201 298,200.666 298,200.255L298,190.745Z" style="fill:rgb(177,177,177);"/>
        </g>
        <g id="seat-1E" transform="matrix(1.96268,0,0,1.713,-348.637,-44.6683)">
            <path d="M298,190.745C298,190.334 297.709,190 297.35,190L288.65,190C288.291,190 288,190.334 288,190.745L288,200.255C288,200.666 288.291,201 288.65,201L297.35,201C297.709,201 298,200.666 298,200.255L298,190.745Z" style="fill:rgb(177,177,177);"/>
        </g>
        <g id="seat-2E" transform="matrix(1.96268,0,0,1.713,-319.971,-44.6683)">
            <path d="M298,190.745C298,190.334 297.709,190 297.35,190L288.65,190C288.291,190 288,190.334 288,190.745L288,200.255C288,200.666 288.291,201 288.65,201L297.35,201C297.709,201 298,200.666 298,200.255L298,190.745Z" style="fill:rgb(177,177,177);"/>
        </g>
        <g id="seat-3E" transform="matrix(1.96268,0,0,1.713,-291.304,-44.6683)">
            <path d="M298,190.745C298,190.334 297.709,190 297.35,190L288.65,190C288.291,190 288,190.334 288,190.745L288,200.255C288,200.666 288.291,201 288.65,201L297.35,201C297.709,201 298,200.666 298,200.255L298,190.745Z" style="fill:rgb(177,177,177);"/>
        </g>
        <g id="seat-4E" transform="matrix(1.96268,0,0,1.713,-262.637,-44.6683)">
            <path d="M298,190.745C298,190.334 297.709,190 297.35,190L288.65,190C288.291,190 288,190.334 288,190.745L288,200.255C288,200.666 288.291,201 288.65,201L297.35,201C297.709,201 298,200.666 298,200.255L298,190.745Z" style="fill:rgb(177,177,177);"/>
        </g>
        <g id="seat-5A" transform="matrix(1.49253,0,0,1.33003,-83.1352,98.3809)">
            <path d="M298,190.96C298,190.43 297.617,190 297.145,190L288.855,190C288.383,190 288,190.43 288,190.96L288,200.04C288,200.57 288.383,201 288.855,201L297.145,201C297.617,201 298,200.57 298,200.04L298,190.96Z" style="fill:rgb(177,177,177);"/>
        </g>
        <g id="seat-5B" transform="matrix(1.49253,0,0,1.33003,-83.1352,83.0576)">
            <path d="M298,190.96C298,190.43 297.617,190 297.145,190L288.855,190C288.383,190 288,190.43 288,190.96L288,200.04C288,200.57 288.383,201 288.855,201L297.145,201C297.617,201 298,200.57 298,200.04L298,190.96Z" style="fill:rgb(177,177,177);"/>
        </g>
        <g id="seat-5C" transform="matrix(1.49253,0,0,1.33003,-83.1352,67.7324)">
            <path d="M298,190.96C298,190.43 297.617,190 297.145,190L288.855,190C288.383,190 288,190.43 288,190.96L288,200.04C288,200.57 288.383,201 288.855,201L297.145,201C297.617,201 298,200.57 298,200.04L298,190.96Z" style="fill:rgb(177,177,177);"/>
        </g>
        <g id="seat-5D" transform="matrix(1.49253,0,0,1.33003,-83.1352,35.5747)">
            <path d="M298,190.96C298,190.43 297.617,190 297.145,190L288.855,190C288.383,190 288,190.43 288,190.96L288,200.04C288,200.57 288.383,201 288.855,201L297.145,201C297.617,201 298,200.57 298,200.04L298,190.96Z" style="fill:rgb(177,177,177);"/>
        </g>
        <g id="seat-5E" transform="matrix(1.49253,0,0,1.33003,-83.1352,20.2758)">
            <path d="M298,190.96C298,190.43 297.617,190 297.145,190L288.855,190C288.383,190 288,190.43 288,190.96L288,200.04C288,200.57 288.383,201 288.855,201L297.145,201C297.617,201 298,200.57 298,200.04L298,190.96Z" style="fill:rgb(177,177,177);"/>
        </g>
        <g id="seat-5F" transform="matrix(1.49253,0,0,1.33003,-83.1352,5.03963)">
            <path d="M298,190.96C298,190.43 297.617,190 297.145,190L288.855,190C288.383,190 288,190.43 288,190.96L288,200.04C288,200.57 288.383,201 288.855,201L297.145,201C297.617,201 298,200.57 298,200.04L298,190.96Z" style="fill:rgb(177,177,177);"/>
        </g>
        <g id="seat-6A" transform="matrix(1.49253,0,0,1.33003,-57.7611,98.3809)">
            <path d="M298,190.96C298,190.43 297.617,190 297.145,190L288.855,190C288.383,190 288,190.43 288,190.96L288,200.04C288,200.57 288.383,201 288.855,201L297.145,201C297.617,201 298,200.57 298,200.04L298,190.96Z" style="fill:rgb(177,177,177);"/>
        </g>
        <g id="seat-6B" transform="matrix(1.49253,0,0,1.33003,-57.7611,83.0576)">
            <path d="M298,190.96C298,190.43 297.617,190 297.145,190L288.855,190C288.383,190 288,190.43 288,190.96L288,200.04C288,200.57 288.383,201 288.855,201L297.145,201C297.617,201 298,200.57 298,200.04L298,190.96Z" style="fill:rgb(177,177,177);"/>
        </g>
        <g id="seat-6C" transform="matrix(1.49253,0,0,1.33003,-57.7611,67.7324)">
            <path d="M298,190.96C298,190.43 297.617,190 297.145,190L288.855,190C288.383,190 288,190.43 288,190.96L288,200.04C288,200.57 288.383,201 288.855,201L297.145,201C297.617,201 298,200.57 298,200.04L298,190.96Z" style="fill:rgb(177,177,177);"/>
        </g>
        <g id="seat-6D" transform="matrix(1.49253,0,0,1.33003,-57.7611,35.5747)">
            <path d="M298,190.96C298,190.43 297.617,190 297.145,190L288.855,190C288.383,190 288,190.43 288,190.96L288,200.04C288,200.57 288.383,201 288.855,201L297.145,201C297.617,201 298,200.57 298,200.04L298,190.96Z" style="fill:rgb(177,177,177);"/>
        </g>
        <g id="seat-6E" transform="matrix(1.49253,0,0,1.33003,-57.7611,20.2758)">
            <path d="M298,190.96C298,190.43 297.617,190 297.145,190L288.855,190C288.383,190 288,190.43 288,190.96L288,200.04C288,200.57 288.383,201 288.855,201L297.145,201C297.617,201 298,200.57 298,200.04L298,190.96Z" style="fill:rgb(177,177,177);"/>
        </g>
        <g id="seat-6F" transform="matrix(1.49253,0,0,1.33003,-57.7611,5.03963)">
            <path d="M298,190.96C298,190.43 297.617,190 297.145,190L288.855,190C288.383,190 288,190.43 288,190.96L288,200.04C288,200.57 288.383,201 288.855,201L297.145,201C297.617,201 298,200.57 298,200.04L298,190.96Z" style="fill:rgb(177,177,177);"/>
        </g>
        <g id="seat-7A" transform="matrix(1.49253,0,0,1.33003,-33.2689,98.3809)">
            <path d="M298,190.96C298,190.43 297.617,190 297.145,190L288.855,190C288.383,190 288,190.43 288,190.96L288,200.04C288,200.57 288.383,201 288.855,201L297.145,201C297.617,201 298,200.57 298,200.04L298,190.96Z" style="fill:rgb(177,177,177);"/>
        </g>
        <g id="seat-7B" transform="matrix(1.49253,0,0,1.33003,-33.2689,83.0576)">
            <path d="M298,190.96C298,190.43 297.617,190 297.145,190L288.855,190C288.383,190 288,190.43 288,190.96L288,200.04C288,200.57 288.383,201 288.855,201L297.145,201C297.617,201 298,200.57 298,200.04L298,190.96Z" style="fill:rgb(177,177,177);"/>
        </g>
        <g id="seat-7C" transform="matrix(1.49253,0,0,1.33003,-33.2689,67.7324)">
            <path d="M298,190.96C298,190.43 297.617,190 297.145,190L288.855,190C288.383,190 288,190.43 288,190.96L288,200.04C288,200.57 288.383,201 288.855,201L297.145,201C297.617,201 298,200.57 298,200.04L298,190.96Z" style="fill:rgb(177,177,177);"/>
        </g>
        <g id="seat-7D" transform="matrix(1.49253,0,0,1.33003,-33.2689,35.5747)">
            <path d="M298,190.96C298,190.43 297.617,190 297.145,190L288.855,190C288.383,190 288,190.43 288,190.96L288,200.04C288,200.57 288.383,201 288.855,201L297.145,201C297.617,201 298,200.57 298,200.04L298,190.96Z" style="fill:rgb(177,177,177);"/>
        </g>
        <g id="seat-7E" transform="matrix(1.49253,0,0,1.33003,-33.2689,20.2758)">
            <path d="M298,190.96C298,190.43 297.617,190 297.145,190L288.855,190C288.383,190 288,190.43 288,190.96L288,200.04C288,200.57 288.383,201 288.855,201L297.145,201C297.617,201 298,200.57 298,200.04L298,190.96Z" style="fill:rgb(177,177,177);"/>
        </g>
        <g id="seat-7F" transform="matrix(1.49253,0,0,1.33003,-33.2689,5.03963)">
            <path d="M298,190.96C298,190.43 297.617,190 297.145,190L288.855,190C288.383,190 288,190.43 288,190.96L288,200.04C288,200.57 288.383,201 288.855,201L297.145,201C297.617,201 298,200.57 298,200.04L298,190.96Z" style="fill:rgb(177,177,177);"/>
        </g>
        <g id="seat-8A" transform="matrix(1.49253,0,0,1.33003,-10.442,98.3809)">
            <path d="M298,190.96C298,190.43 297.617,190 297.145,190L288.855,190C288.383,190 288,190.43 288,190.96L288,200.04C288,200.57 288.383,201 288.855,201L297.145,201C297.617,201 298,200.57 298,200.04L298,190.96Z" style="fill:rgb(177,177,177);"/>
        </g>
        <g id="seat-8B" transform="matrix(1.49253,0,0,1.33003,-10.442,83.0576)">
            <path d="M298,190.96C298,190.43 297.617,190 297.145,190L288.855,190C288.383,190 288,190.43 288,190.96L288,200.04C288,200.57 288.383,201 288.855,201L297.145,201C297.617,201 298,200.57 298,200.04L298,190.96Z" style="fill:rgb(177,177,177);"/>
        </g>
        <g id="seat-8C" transform="matrix(1.49253,0,0,1.33003,-10.442,67.7324)">
            <path d="M298,190.96C298,190.43 297.617,190 297.145,190L288.855,190C288.383,190 288,190.43 288,190.96L288,200.04C288,200.57 288.383,201 288.855,201L297.145,201C297.617,201 298,200.57 298,200.04L298,190.96Z" style="fill:rgb(177,177,177);"/>
        </g>
        <g id="seat-8D" transform="matrix(1.49253,0,0,1.33003,-10.442,35.5747)">
            <path d="M298,190.96C298,190.43 297.617,190 297.145,190L288.855,190C288.383,190 288,190.43 288,190.96L288,200.04C288,200.57 288.383,201 288.855,201L297.145,201C297.617,201 298,200.57 298,200.04L298,190.96Z" style="fill:rgb(177,177,177);"/>
        </g>
        <g id="seat-8E" transform="matrix(1.49253,0,0,1.33003,-10.442,20.2758)">
            <path d="M298,190.96C298,190.43 297.617,190 297.145,190L288.855,190C288.383,190 288,190.43 288,190.96L288,200.04C288,200.57 288.383,201 288.855,201L297.145,201C297.617,201 298,200.57 298,200.04L298,190.96Z" style="fill:rgb(177,177,177);"/>
        </g>
        <g id="seat-8F" transform="matrix(1.49253,0,0,1.33003,-10.442,5.03963)">
            <path d="M298,190.96C298,190.43 297.617,190 297.145,190L288.855,190C288.383,190 288,190.43 288,190.96L288,200.04C288,200.57 288.383,201 288.855,201L297.145,201C297.617,201 298,200.57 298,200.04L298,190.96Z" style="fill:rgb(177,177,177);"/>
        </g>
        <g id="seat-9A" transform="matrix(1.49253,0,0,1.33003,17.0873,98.3809)">
            <path d="M298,190.96C298,190.43 297.617,190 297.145,190L288.855,190C288.383,190 288,190.43 288,190.96L288,200.04C288,200.57 288.383,201 288.855,201L297.145,201C297.617,201 298,200.57 298,200.04L298,190.96Z" style="fill:rgb(177,177,177);"/>
        </g>
        <g id="seat-9B" transform="matrix(1.49253,0,0,1.33003,17.0873,83.0576)">
            <path d="M298,190.96C298,190.43 297.617,190 297.145,190L288.855,190C288.383,190 288,190.43 288,190.96L288,200.04C288,200.57 288.383,201 288.855,201L297.145,201C297.617,201 298,200.57 298,200.04L298,190.96Z" style="fill:rgb(177,177,177);"/>
        </g>
        <g id="seat-9C" transform="matrix(1.49253,0,0,1.33003,17.0873,67.7324)">
            <path d="M298,190.96C298,190.43 297.617,190 297.145,190L288.855,190C288.383,190 288,190.43 288,190.96L288,200.04C288,200.57 288.383,201 288.855,201L297.145,201C297.617,201 298,200.57 298,200.04L298,190.96Z" style="fill:rgb(177,177,177);"/>
        </g>
        <g id="seat-9D" transform="matrix(1.49253,0,0,1.33003,17.0873,35.5747)">
            <path d="M298,190.96C298,190.43 297.617,190 297.145,190L288.855,190C288.383,190 288,190.43 288,190.96L288,200.04C288,200.57 288.383,201 288.855,201L297.145,201C297.617,201 298,200.57 298,200.04L298,190.96Z" style="fill:rgb(177,177,177);"/>
        </g>
        <g id="seat-9E" transform="matrix(1.49253,0,0,1.33003,17.0873,20.2758)">
            <path d="M298,190.96C298,190.43 297.617,190 297.145,190L288.855,190C288.383,190 288,190.43 288,190.96L288,200.04C288,200.57 288.383,201 288.855,201L297.145,201C297.617,201 298,200.57 298,200.04L298,190.96Z" style="fill:rgb(177,177,177);"/>
        </g>
        <g id="seat-9F" transform="matrix(1.49253,0,0,1.33003,17.0873,5.03963)">
            <path d="M298,190.96C298,190.43 297.617,190 297.145,190L288.855,190C288.383,190 288,190.43 288,190.96L288,200.04C288,200.57 288.383,201 288.855,201L297.145,201C297.617,201 298,200.57 298,200.04L298,190.96Z" style="fill:rgb(177,177,177);"/>
        </g>
        <g id="seat-10A" transform="matrix(1.49253,0,0,1.33003,40.5019,98.3809)">
            <path d="M298,190.96C298,190.43 297.617,190 297.145,190L288.855,190C288.383,190 288,190.43 288,190.96L288,200.04C288,200.57 288.383,201 288.855,201L297.145,201C297.617,201 298,200.57 298,200.04L298,190.96Z" style="fill:rgb(177,177,177);"/>
        </g>
        <g id="seat-10B" transform="matrix(1.49253,0,0,1.33003,40.5019,83.0576)">
            <path d="M298,190.96C298,190.43 297.617,190 297.145,190L288.855,190C288.383,190 288,190.43 288,190.96L288,200.04C288,200.57 288.383,201 288.855,201L297.145,201C297.617,201 298,200.57 298,200.04L298,190.96Z" style="fill:rgb(177,177,177);"/>
        </g>
        <g id="seat-10C" transform="matrix(1.49253,0,0,1.33003,40.5019,67.7324)">
            <path d="M298,190.96C298,190.43 297.617,190 297.145,190L288.855,190C288.383,190 288,190.43 288,190.96L288,200.04C288,200.57 288.383,201 288.855,201L297.145,201C297.617,201 298,200.57 298,200.04L298,190.96Z" style="fill:rgb(177,177,177);"/>
        </g>
        <g id="seat-10D" transform="matrix(1.49253,0,0,1.33003,40.5019,35.5747)">
            <path d="M298,190.96C298,190.43 297.617,190 297.145,190L288.855,190C288.383,190 288,190.43 288,190.96L288,200.04C288,200.57 288.383,201 288.855,201L297.145,201C297.617,201 298,200.57 298,200.04L298,190.96Z" style="fill:rgb(177,177,177);"/>
        </g>
        <g id="seat-10E" transform="matrix(1.49253,0,0,1.33003,40.5019,20.2758)">
            <path d="M298,190.96C298,190.43 297.617,190 297.145,190L288.855,190C288.383,190 288,190.43 288,190.96L288,200.04C288,200.57 288.383,201 288.855,201L297.145,201C297.617,201 298,200.57 298,200.04L298,190.96Z" style="fill:rgb(177,177,177);"/>
        </g>
        <g id="seat-10F" transform="matrix(1.49253,0,0,1.33003,40.5019,5.03963)">
            <path d="M298,190.96C298,190.43 297.617,190 297.145,190L288.855,190C288.383,190 288,190.43 288,190.96L288,200.04C288,200.57 288.383,201 288.855,201L297.145,201C297.617,201 298,200.57 298,200.04L298,190.96Z" style="fill:rgb(177,177,177);"/>
        </g>
        <g id="seat-11A" transform="matrix(1.49253,0,0,1.33003,63.2308,98.3809)">
            <path d="M298,190.96C298,190.43 297.617,190 297.145,190L288.855,190C288.383,190 288,190.43 288,190.96L288,200.04C288,200.57 288.383,201 288.855,201L297.145,201C297.617,201 298,200.57 298,200.04L298,190.96Z" style="fill:rgb(177,177,177);"/>
        </g>
        <g id="seat-11B" transform="matrix(1.49253,0,0,1.33003,63.2308,83.0576)">
            <path d="M298,190.96C298,190.43 297.617,190 297.145,190L288.855,190C288.383,190 288,190.43 288,190.96L288,200.04C288,200.57 288.383,201 288.855,201L297.145,201C297.617,201 298,200.57 298,200.04L298,190.96Z" style="fill:rgb(177,177,177);"/>
        </g>
        <g id="seat-11C" transform="matrix(1.49253,0,0,1.33003,63.2308,67.7324)">
            <path d="M298,190.96C298,190.43 297.617,190 297.145,190L288.855,190C288.383,190 288,190.43 288,190.96L288,200.04C288,200.57 288.383,201 288.855,201L297.145,201C297.617,201 298,200.57 298,200.04L298,190.96Z" style="fill:rgb(177,177,177);"/>
        </g>
        <g id="seat-11D" transform="matrix(1.49253,0,0,1.33003,63.2308,35.5747)">
            <path d="M298,190.96C298,190.43 297.617,190 297.145,190L288.855,190C288.383,190 288,190.43 288,190.96L288,200.04C288,200.57 288.383,201 288.855,201L297.145,201C297.617,201 298,200.57 298,200.04L298,190.96Z" style="fill:rgb(177,177,177);"/>
        </g>
        <g id="seat-11E" transform="matrix(1.49253,0,0,1.33003,63.2308,20.2758)">
            <path d="M298,190.96C298,190.43 297.617,190 297.145,190L288.855,190C288.383,190 288,190.43 288,190.96L288,200.04C288,200.57 288.383,201 288.855,201L297.145,201C297.617,201 298,200.57 298,200.04L298,190.96Z" style="fill:rgb(177,177,177);"/>
        </g>
        <g id="seat-11F" transform="matrix(1.49253,0,0,1.33003,63.2308,5.03963)">
            <path d="M298,190.96C298,190.43 297.617,190 297.145,190L288.855,190C288.383,190 288,190.43 288,190.96L288,200.04C288,200.57 288.383,201 288.855,201L297.145,201C297.617,201 298,200.57 298,200.04L298,190.96Z" style="fill:rgb(177,177,177);"/>
        </g>
        <g id="seat-12A" transform="matrix(1.49253,0,0,1.33003,88.3893,98.3809)">
            <path d="M298,190.96C298,190.43 297.617,190 297.145,190L288.855,190C288.383,190 288,190.43 288,190.96L288,200.04C288,200.57 288.383,201 288.855,201L297.145,201C297.617,201 298,200.57 298,200.04L298,190.96Z" style="fill:rgb(177,177,177);"/>
        </g>
        <g id="seat-12B" transform="matrix(1.49253,0,0,1.33003,88.3893,83.0576)">
            <path d="M298,190.96C298,190.43 297.617,190 297.145,190L288.855,190C288.383,190 288,190.43 288,190.96L288,200.04C288,200.57 288.383,201 288.855,201L297.145,201C297.617,201 298,200.57 298,200.04L298,190.96Z" style="fill:rgb(177,177,177);"/>
        </g>
        <g id="seat-12C" transform="matrix(1.49253,0,0,1.33003,88.3893,67.7324)">
            <path d="M298,190.96C298,190.43 297.617,190 297.145,190L288.855,190C288.383,190 288,190.43 288,190.96L288,200.04C288,200.57 288.383,201 288.855,201L297.145,201C297.617,201 298,200.57 298,200.04L298,190.96Z" style="fill:rgb(177,177,177);"/>
        </g>
        <g id="seat-12D" transform="matrix(1.49253,0,0,1.33003,88.3893,35.5747)">
            <path d="M298,190.96C298,190.43 297.617,190 297.145,190L288.855,190C288.383,190 288,190.43 288,190.96L288,200.04C288,200.57 288.383,201 288.855,201L297.145,201C297.617,201 298,200.57 298,200.04L298,190.96Z" style="fill:rgb(177,177,177);"/>
        </g>
        <g id="seat-12E" transform="matrix(1.49253,0,0,1.33003,88.3893,20.2758)">
            <path d="M298,190.96C298,190.43 297.617,190 297.145,190L288.855,190C288.383,190 288,190.43 288,190.96L288,200.04C288,200.57 288.383,201 288.855,201L297.145,201C297.617,201 298,200.57 298,200.04L298,190.96Z" style="fill:rgb(177,177,177);"/>
        </g>
        <g id="seat-12F" transform="matrix(1.49253,0,0,1.33003,88.3893,5.03963)">
            <path d="M298,190.96C298,190.43 297.617,190 297.145,190L288.855,190C288.383,190 288,190.43 288,190.96L288,200.04C288,200.57 288.383,201 288.855,201L297.145,201C297.617,201 298,200.57 298,200.04L298,190.96Z" style="fill:rgb(177,177,177);"/>
        </g>
        <g id="seat-13A" transform="matrix(1.49253,0,0,1.33003,108.297,98.3809)">
            <path d="M298,190.96C298,190.43 297.617,190 297.145,190L288.855,190C288.383,190 288,190.43 288,190.96L288,200.04C288,200.57 288.383,201 288.855,201L297.145,201C297.617,201 298,200.57 298,200.04L298,190.96Z" style="fill:rgb(177,177,177);"/>
        </g>
        <g id="seat-13B" transform="matrix(1.49253,0,0,1.33003,108.297,83.0576)">
            <path d="M298,190.96C298,190.43 297.617,190 297.145,190L288.855,190C288.383,190 288,190.43 288,190.96L288,200.04C288,200.57 288.383,201 288.855,201L297.145,201C297.617,201 298,200.57 298,200.04L298,190.96Z" style="fill:rgb(177,177,177);"/>
        </g>
        <g id="seat-13C" transform="matrix(1.49253,0,0,1.33003,108.297,67.7324)">
            <path d="M298,190.96C298,190.43 297.617,190 297.145,190L288.855,190C288.383,190 288,190.43 288,190.96L288,200.04C288,200.57 288.383,201 288.855,201L297.145,201C297.617,201 298,200.57 298,200.04L298,190.96Z" style="fill:rgb(177,177,177);"/>
        </g>
        <g id="seat-13D" transform="matrix(1.49253,0,0,1.33003,108.297,35.5747)">
            <path d="M298,190.96C298,190.43 297.617,190 297.145,190L288.855,190C288.383,190 288,190.43 288,190.96L288,200.04C288,200.57 288.383,201 288.855,201L297.145,201C297.617,201 298,200.57 298,200.04L298,190.96Z" style="fill:rgb(177,177,177);"/>
        </g>
        <g id="seat-13E" transform="matrix(1.49253,0,0,1.33003,108.297,20.2758)">
            <path d="M298,190.96C298,190.43 297.617,190 297.145,190L288.855,190C288.383,190 288,190.43 288,190.96L288,200.04C288,200.57 288.383,201 288.855,201L297.145,201C297.617,201 298,200.57 298,200.04L298,190.96Z" style="fill:rgb(177,177,177);"/>
        </g>
        <g id="seat-13F" transform="matrix(1.49253,0,0,1.33003,108.297,5.03963)">
            <path d="M298,190.96C298,190.43 297.617,190 297.145,190L288.855,190C288.383,190 288,190.43 288,190.96L288,200.04C288,200.57 288.383,201 288.855,201L297.145,201C297.617,201 298,200.57 298,200.04L298,190.96Z" style="fill:rgb(177,177,177);"/>
        </g>
        <g id="seat-14A" transform="matrix(1.49253,0,0,1.33003,126.009,98.3809)">
            <path d="M298,190.96C298,190.43 297.617,190 297.145,190L288.855,190C288.383,190 288,190.43 288,190.96L288,200.04C288,200.57 288.383,201 288.855,201L297.145,201C297.617,201 298,200.57 298,200.04L298,190.96Z" style="fill:rgb(177,177,177);"/>
        </g>
        <g id="seat-14B" transform="matrix(1.49253,0,0,1.33003,126.009,83.0576)">
            <path d="M298,190.96C298,190.43 297.617,190 297.145,190L288.855,190C288.383,190 288,190.43 288,190.96L288,200.04C288,200.57 288.383,201 288.855,201L297.145,201C297.617,201 298,200.57 298,200.04L298,190.96Z" style="fill:rgb(177,177,177);"/>
        </g>
        <g id="seat-14C" transform="matrix(1.49253,0,0,1.33003,126.009,67.7324)">
            <path d="M298,190.96C298,190.43 297.617,190 297.145,190L288.855,190C288.383,190 288,190.43 288,190.96L288,200.04C288,200.57 288.383,201 288.855,201L297.145,201C297.617,201 298,200.57 298,200.04L298,190.96Z" style="fill:rgb(177,177,177);"/>
        </g>
        <g id="seat-14D" transform="matrix(1.49253,0,0,1.33003,126.009,35.5747)">
            <path d="M298,190.96C298,190.43 297.617,190 297.145,190L288.855,190C288.383,190 288,190.43 288,190.96L288,200.04C288,200.57 288.383,201 288.855,201L297.145,201C297.617,201 298,200.57 298,200.04L298,190.96Z" style="fill:rgb(177,177,177);"/>
        </g>
        <g id="seat-14E" transform="matrix(1.49253,0,0,1.33003,126.009,20.2758)">
            <path d="M298,190.96C298,190.43 297.617,190 297.145,190L288.855,190C288.383,190 288,190.43 288,190.96L288,200.04C288,200.57 288.383,201 288.855,201L297.145,201C297.617,201 298,200.57 298,200.04L298,190.96Z" style="fill:rgb(177,177,177);"/>
        </g>
        <g id="seat-14F" transform="matrix(1.49253,0,0,1.33003,126.009,5.03963)">
            <path d="M298,190.96C298,190.43 297.617,190 297.145,190L288.855,190C288.383,190 288,190.43 288,190.96L288,200.04C288,200.57 288.383,201 288.855,201L297.145,201C297.617,201 298,200.57 298,200.04L298,190.96Z" style="fill:rgb(177,177,177);"/>
        </g>
        <g id="seat-15A" transform="matrix(1.49253,0,0,1.33003,145.823,98.3809)">
            <path d="M298,190.96C298,190.43 297.617,190 297.145,190L288.855,190C288.383,190 288,190.43 288,190.96L288,200.04C288,200.57 288.383,201 288.855,201L297.145,201C297.617,201 298,200.57 298,200.04L298,190.96Z" style="fill:rgb(177,177,177);"/>
        </g>
        <g id="seat-15B" transform="matrix(1.49253,0,0,1.33003,145.823,83.0576)">
            <path d="M298,190.96C298,190.43 297.617,190 297.145,190L288.855,190C288.383,190 288,190.43 288,190.96L288,200.04C288,200.57 288.383,201 288.855,201L297.145,201C297.617,201 298,200.57 298,200.04L298,190.96Z" style="fill:rgb(177,177,177);"/>
        </g>
        <g id="seat-15C" transform="matrix(1.49253,0,0,1.33003,145.823,67.7324)">
            <path d="M298,190.96C298,190.43 297.617,190 297.145,190L288.855,190C288.383,190 288,190.43 288,190.96L288,200.04C288,200.57 288.383,201 288.855,201L297.145,201C297.617,201 298,200.57 298,200.04L298,190.96Z" style="fill:rgb(177,177,177);"/>
        </g>
        <g id="seat-15D" transform="matrix(1.49253,0,0,1.33003,145.823,35.5747)">
            <path d="M298,190.96C298,190.43 297.617,190 297.145,190L288.855,190C288.383,190 288,190.43 288,190.96L288,200.04C288,200.57 288.383,201 288.855,201L297.145,201C297.617,201 298,200.57 298,200.04L298,190.96Z" style="fill:rgb(177,177,177);"/>
        </g>
        <g id="seat-15E" transform="matrix(1.49253,0,0,1.33003,145.823,20.2758)">
            <path d="M298,190.96C298,190.43 297.617,190 297.145,190L288.855,190C288.383,190 288,190.43 288,190.96L288,200.04C288,200.57 288.383,201 288.855,201L297.145,201C297.617,201 298,200.57 298,200.04L298,190.96Z" style="fill:rgb(177,177,177);"/>
        </g>
        <g id="seat-15F" transform="matrix(1.49253,0,0,1.33003,145.823,5.03963)">
            <path d="M298,190.96C298,190.43 297.617,190 297.145,190L288.855,190C288.383,190 288,190.43 288,190.96L288,200.04C288,200.57 288.383,201 288.855,201L297.145,201C297.617,201 298,200.57 298,200.04L298,190.96Z" style="fill:rgb(177,177,177);"/>
        </g>
        <g id="seat-16A" transform="matrix(1.49253,0,0,1.33003,165.761,98.3809)">
            <path d="M298,190.96C298,190.43 297.617,190 297.145,190L288.855,190C288.383,190 288,190.43 288,190.96L288,200.04C288,200.57 288.383,201 288.855,201L297.145,201C297.617,201 298,200.57 298,200.04L298,190.96Z" style="fill:rgb(177,177,177);"/>
        </g>
        <g id="seat-16B" transform="matrix(1.49253,0,0,1.33003,165.761,83.0576)">
            <path d="M298,190.96C298,190.43 297.617,190 297.145,190L288.855,190C288.383,190 288,190.43 288,190.96L288,200.04C288,200.57 288.383,201 288.855,201L297.145,201C297.617,201 298,200.57 298,200.04L298,190.96Z" style="fill:rgb(177,177,177);"/>
        </g>
        <g id="seat-16C" transform="matrix(1.49253,0,0,1.33003,165.761,67.7324)">
            <path d="M298,190.96C298,190.43 297.617,190 297.145,190L288.855,190C288.383,190 288,190.43 288,190.96L288,200.04C288,200.57 288.383,201 288.855,201L297.145,201C297.617,201 298,200.57 298,200.04L298,190.96Z" style="fill:rgb(177,177,177);"/>
        </g>
        <g id="seat-16D" transform="matrix(1.49253,0,0,1.33003,165.761,35.5747)">
            <path d="M298,190.96C298,190.43 297.617,190 297.145,190L288.855,190C288.383,190 288,190.43 288,190.96L288,200.04C288,200.57 288.383,201 288.855,201L297.145,201C297.617,201 298,200.57 298,200.04L298,190.96Z" style="fill:rgb(177,177,177);"/>
        </g>
        <g id="seat-16E" transform="matrix(1.49253,0,0,1.33003,165.761,20.2758)">
            <path d="M298,190.96C298,190.43 297.617,190 297.145,190L288.855,190C288.383,190 288,190.43 288,190.96L288,200.04C288,200.57 288.383,201 288.855,201L297.145,201C297.617,201 298,200.57 298,200.04L298,190.96Z" style="fill:rgb(177,177,177);"/>
        </g>
        <g id="seat-16F" transform="matrix(1.49253,0,0,1.33003,165.761,5.03963)">
            <path d="M298,190.96C298,190.43 297.617,190 297.145,190L288.855,190C288.383,190 288,190.43 288,190.96L288,200.04C288,200.57 288.383,201 288.855,201L297.145,201C297.617,201 298,200.57 298,200.04L298,190.96Z" style="fill:rgb(177,177,177);"/>
        </g>
        <g id="seat-17A" transform="matrix(1.49253,0,0,1.33003,185.387,98.3809)">
            <path d="M298,190.96C298,190.43 297.617,190 297.145,190L288.855,190C288.383,190 288,190.43 288,190.96L288,200.04C288,200.57 288.383,201 288.855,201L297.145,201C297.617,201 298,200.57 298,200.04L298,190.96Z" style="fill:rgb(177,177,177);"/>
        </g>
        <g id="seat-17B" transform="matrix(1.49253,0,0,1.33003,185.387,83.0576)">
            <path d="M298,190.96C298,190.43 297.617,190 297.145,190L288.855,190C288.383,190 288,190.43 288,190.96L288,200.04C288,200.57 288.383,201 288.855,201L297.145,201C297.617,201 298,200.57 298,200.04L298,190.96Z" style="fill:rgb(177,177,177);"/>
        </g>
        <g id="seat-17C" transform="matrix(1.49253,0,0,1.33003,185.387,67.7324)">
            <path d="M298,190.96C298,190.43 297.617,190 297.145,190L288.855,190C288.383,190 288,190.43 288,190.96L288,200.04C288,200.57 288.383,201 288.855,201L297.145,201C297.617,201 298,200.57 298,200.04L298,190.96Z" style="fill:rgb(177,177,177);"/>
        </g>
        <g id="seat-17D" transform="matrix(1.49253,0,0,1.33003,185.387,35.5747)">
            <path d="M298,190.96C298,190.43 297.617,190 297.145,190L288.855,190C288.383,190 288,190.43 288,190.96L288,200.04C288,200.57 288.383,201 288.855,201L297.145,201C297.617,201 298,200.57 298,200.04L298,190.96Z" style="fill:rgb(177,177,177);"/>
        </g>
        <g id="seat-17E" transform="matrix(1.49253,0,0,1.33003,185.387,20.2758)">
            <path d="M298,190.96C298,190.43 297.617,190 297.145,190L288.855,190C288.383,190 288,190.43 288,190.96L288,200.04C288,200.57 288.383,201 288.855,201L297.145,201C297.617,201 298,200.57 298,200.04L298,190.96Z" style="fill:rgb(177,177,177);"/>
        </g>
        <g id="seat-17F" transform="matrix(1.49253,0,0,1.33003,185.387,5.03963)">
            <path d="M298,190.96C298,190.43 297.617,190 297.145,190L288.855,190C288.383,190 288,190.43 288,190.96L288,200.04C288,200.57 288.383,201 288.855,201L297.145,201C297.617,201 298,200.57 298,200.04L298,190.96Z" style="fill:rgb(177,177,177);"/>
        </g>
        <g id="seat-18A" transform="matrix(1.49253,0,0,1.33003,205.274,98.3809)">
            <path d="M298,190.96C298,190.43 297.617,190 297.145,190L288.855,190C288.383,190 288,190.43 288,190.96L288,200.04C288,200.57 288.383,201 288.855,201L297.145,201C297.617,201 298,200.57 298,200.04L298,190.96Z" style="fill:rgb(177,177,177);"/>
        </g>
        <g id="seat-18B" transform="matrix(1.49253,0,0,1.33003,205.274,83.0576)">
            <path d="M298,190.96C298,190.43 297.617,190 297.145,190L288.855,190C288.383,190 288,190.43 288,190.96L288,200.04C288,200.57 288.383,201 288.855,201L297.145,201C297.617,201 298,200.57 298,200.04L298,190.96Z" style="fill:rgb(177,177,177);"/>
        </g>
        <g id="seat-18C" transform="matrix(1.49253,0,0,1.33003,205.274,67.7324)">
            <path d="M298,190.96C298,190.43 297.617,190 297.145,190L288.855,190C288.383,190 288,190.43 288,190.96L288,200.04C288,200.57 288.383,201 288.855,201L297.145,201C297.617,201 298,200.57 298,200.04L298,190.96Z" style="fill:rgb(177,177,177);"/>
        </g>
        <g id="seat-18D" transform="matrix(1.49253,0,0,1.33003,205.274,35.5747)">
            <path d="M298,190.96C298,190.43 297.617,190 297.145,190L288.855,190C288.383,190 288,190.43 288,190.96L288,200.04C288,200.57 288.383,201 288.855,201L297.145,201C297.617,201 298,200.57 298,200.04L298,190.96Z" style="fill:rgb(177,177,177);"/>
        </g>
        <g id="seat-18E" transform="matrix(1.49253,0,0,1.33003,205.274,20.2758)">
            <path d="M298,190.96C298,190.43 297.617,190 297.145,190L288.855,190C288.383,190 288,190.43 288,190.96L288,200.04C288,200.57 288.383,201 288.855,201L297.145,201C297.617,201 298,200.57 298,200.04L298,190.96Z" style="fill:rgb(177,177,177);"/>
        </g>
        <g id="seat-18F" transform="matrix(1.49253,0,0,1.33003,205.274,5.03963)">
            <path d="M298,190.96C298,190.43 297.617,190 297.145,190L288.855,190C288.383,190 288,190.43 288,190.96L288,200.04C288,200.57 288.383,201 288.855,201L297.145,201C297.617,201 298,200.57 298,200.04L298,190.96Z" style="fill:rgb(177,177,177);"/>
        </g>
        <g id="seat-19A" transform="matrix(1.49253,0,0,1.33003,223.849,98.3809)">
            <path d="M298,190.96C298,190.43 297.617,190 297.145,190L288.855,190C288.383,190 288,190.43 288,190.96L288,200.04C288,200.57 288.383,201 288.855,201L297.145,201C297.617,201 298,200.57 298,200.04L298,190.96Z" style="fill:rgb(177,177,177);"/>
        </g>
        <g id="seat-19B" transform="matrix(1.49253,0,0,1.33003,223.849,83.0576)">
            <path d="M298,190.96C298,190.43 297.617,190 297.145,190L288.855,190C288.383,190 288,190.43 288,190.96L288,200.04C288,200.57 288.383,201 288.855,201L297.145,201C297.617,201 298,200.57 298,200.04L298,190.96Z" style="fill:rgb(177,177,177);"/>
        </g>
        <g id="seat-19C" transform="matrix(1.49253,0,0,1.33003,223.849,67.7324)">
            <path d="M298,190.96C298,190.43 297.617,190 297.145,190L288.855,190C288.383,190 288,190.43 288,190.96L288,200.04C288,200.57 288.383,201 288.855,201L297.145,201C297.617,201 298,200.57 298,200.04L298,190.96Z" style="fill:rgb(177,177,177);"/>
        </g>
        <g id="seat-19D" transform="matrix(1.49253,0,0,1.33003,223.849,35.5747)">
            <path d="M298,190.96C298,190.43 297.617,190 297.145,190L288.855,190C288.383,190 288,190.43 288,190.96L288,200.04C288,200.57 288.383,201 288.855,201L297.145,201C297.617,201 298,200.57 298,200.04L298,190.96Z" style="fill:rgb(177,177,177);"/>
        </g>
        <g id="seat-19E" transform="matrix(1.49253,0,0,1.33003,223.849,20.2758)">
            <path d="M298,190.96C298,190.43 297.617,190 297.145,190L288.855,190C288.383,190 288,190.43 288,190.96L288,200.04C288,200.57 288.383,201 288.855,201L297.145,201C297.617,201 298,200.57 298,200.04L298,190.96Z" style="fill:rgb(177,177,177);"/>
        </g>
        <g id="seat-19F" transform="matrix(1.49253,0,0,1.33003,223.849,5.03963)">
            <path d="M298,190.96C298,190.43 297.617,190 297.145,190L288.855,190C288.383,190 288,190.43 288,190.96L288,200.04C288,200.57 288.383,201 288.855,201L297.145,201C297.617,201 298,200.57 298,200.04L298,190.96Z" style="fill:rgb(177,177,177);"/>
        </g>
        <g id="seat-20A" transform="matrix(1.49253,0,0,1.33003,243.678,98.3809)">
            <path d="M298,190.96C298,190.43 297.617,190 297.145,190L288.855,190C288.383,190 288,190.43 288,190.96L288,200.04C288,200.57 288.383,201 288.855,201L297.145,201C297.617,201 298,200.57 298,200.04L298,190.96Z" style="fill:rgb(177,177,177);"/>
        </g>
        <g id="seat-20B" transform="matrix(1.49253,0,0,1.33003,243.678,83.0576)">
            <path d="M298,190.96C298,190.43 297.617,190 297.145,190L288.855,190C288.383,190 288,190.43 288,190.96L288,200.04C288,200.57 288.383,201 288.855,201L297.145,201C297.617,201 298,200.57 298,200.04L298,190.96Z" style="fill:rgb(177,177,177);"/>
        </g>
        <g id="seat-20C" transform="matrix(1.49253,0,0,1.33003,243.678,67.7324)">
            <path d="M298,190.96C298,190.43 297.617,190 297.145,190L288.855,190C288.383,190 288,190.43 288,190.96L288,200.04C288,200.57 288.383,201 288.855,201L297.145,201C297.617,201 298,200.57 298,200.04L298,190.96Z" style="fill:rgb(177,177,177);"/>
        </g>
        <g id="seat-20D" transform="matrix(1.49253,0,0,1.33003,243.678,35.5747)">
            <path d="M298,190.96C298,190.43 297.617,190 297.145,190L288.855,190C288.383,190 288,190.43 288,190.96L288,200.04C288,200.57 288.383,201 288.855,201L297.145,201C297.617,201 298,200.57 298,200.04L298,190.96Z" style="fill:rgb(177,177,177);"/>
        </g>
        <g id="seat-20E" transform="matrix(1.49253,0,0,1.33003,243.678,20.2758)">
            <path d="M298,190.96C298,190.43 297.617,190 297.145,190L288.855,190C288.383,190 288,190.43 288,190.96L288,200.04C288,200.57 288.383,201 288.855,201L297.145,201C297.617,201 298,200.57 298,200.04L298,190.96Z" style="fill:rgb(177,177,177);"/>
        </g>
        <g id="seat-20F" transform="matrix(1.49253,0,0,1.33003,243.678,5.03963)">
            <path d="M298,190.96C298,190.43 297.617,190 297.145,190L288.855,190C288.383,190 288,190.43 288,190.96L288,200.04C288,200.57 288.383,201 288.855,201L297.145,201C297.617,201 298,200.57 298,200.04L298,190.96Z" style="fill:rgb(177,177,177);"/>
        </g>
        <g id="seat-21A" transform="matrix(1.49253,0,0,1.33003,263.507,98.3809)">
            <path d="M298,190.96C298,190.43 297.617,190 297.145,190L288.855,190C288.383,190 288,190.43 288,190.96L288,200.04C288,200.57 288.383,201 288.855,201L297.145,201C297.617,201 298,200.57 298,200.04L298,190.96Z" style="fill:rgb(177,177,177);"/>
        </g>
        <g id="seat-21B" transform="matrix(1.49253,0,0,1.33003,263.507,83.0576)">
            <path d="M298,190.96C298,190.43 297.617,190 297.145,190L288.855,190C288.383,190 288,190.43 288,190.96L288,200.04C288,200.57 288.383,201 288.855,201L297.145,201C297.617,201 298,200.57 298,200.04L298,190.96Z" style="fill:rgb(177,177,177);"/>
        </g>
        <g id="seat-21C" transform="matrix(1.49253,0,0,1.33003,263.507,67.7324)">
            <path d="M298,190.96C298,190.43 297.617,190 297.145,190L288.855,190C288.383,190 288,190.43 288,190.96L288,200.04C288,200.57 288.383,201 288.855,201L297.145,201C297.617,201 298,200.57 298,200.04L298,190.96Z" style="fill:rgb(177,177,177);"/>
        </g>
        <g id="seat-21D" transform="matrix(1.49253,0,0,1.33003,263.507,35.5747)">
            <path d="M298,190.96C298,190.43 297.617,190 297.145,190L288.855,190C288.383,190 288,190.43 288,190.96L288,200.04C288,200.57 288.383,201 288.855,201L297.145,201C297.617,201 298,200.57 298,200.04L298,190.96Z" style="fill:rgb(177,177,177);"/>
        </g>
        <g id="seat-21E" transform="matrix(1.49253,0,0,1.33003,263.507,20.2758)">
            <path d="M298,190.96C298,190.43 297.617,190 297.145,190L288.855,190C288.383,190 288,190.43 288,190.96L288,200.04C288,200.57 288.383,201 288.855,201L297.145,201C297.617,201 298,200.57 298,200.04L298,190.96Z" style="fill:rgb(177,177,177);"/>
        </g>
        <g id="seat-21F" transform="matrix(1.49253,0,0,1.33003,263.507,5.03963)">
            <path d="M298,190.96C298,190.43 297.617,190 297.145,190L288.855,190C288.383,190 288,190.43 288,190.96L288,200.04C288,200.57 288.383,201 288.855,201L297.145,201C297.617,201 298,200.57 298,200.04L298,190.96Z" style="fill:rgb(177,177,177);"/>
        </g>
        <g id="seat-22A" transform="matrix(1.49253,0,0,1.33003,281.947,98.3809)">
            <path d="M298,190.96C298,190.43 297.617,190 297.145,190L288.855,190C288.383,190 288,190.43 288,190.96L288,200.04C288,200.57 288.383,201 288.855,201L297.145,201C297.617,201 298,200.57 298,200.04L298,190.96Z" style="fill:rgb(177,177,177);"/>
        </g>
        <g id="seat-22B" transform="matrix(1.49253,0,0,1.33003,281.947,83.0576)">
            <path d="M298,190.96C298,190.43 297.617,190 297.145,190L288.855,190C288.383,190 288,190.43 288,190.96L288,200.04C288,200.57 288.383,201 288.855,201L297.145,201C297.617,201 298,200.57 298,200.04L298,190.96Z" style="fill:rgb(177,177,177);"/>
        </g>
        <g id="seat-22C" transform="matrix(1.49253,0,0,1.33003,281.947,67.7324)">
            <path d="M298,190.96C298,190.43 297.617,190 297.145,190L288.855,190C288.383,190 288,190.43 288,190.96L288,200.04C288,200.57 288.383,201 288.855,201L297.145,201C297.617,201 298,200.57 298,200.04L298,190.96Z" style="fill:rgb(177,177,177);"/>
        </g>
        <g id="seat-22D" transform="matrix(1.49253,0,0,1.33003,281.947,35.5747)">
            <path d="M298,190.96C298,190.43 297.617,190 297.145,190L288.855,190C288.383,190 288,190.43 288,190.96L288,200.04C288,200.57 288.383,201 288.855,201L297.145,201C297.617,201 298,200.57 298,200.04L298,190.96Z" style="fill:rgb(177,177,177);"/>
        </g>
        <g id="seat-22E" transform="matrix(1.49253,0,0,1.33003,281.947,20.2758)">
            <path d="M298,190.96C298,190.43 297.617,190 297.145,190L288.855,190C288.383,190 288,190.43 288,190.96L288,200.04C288,200.57 288.383,201 288.855,201L297.145,201C297.617,201 298,200.57 298,200.04L298,190.96Z" style="fill:rgb(177,177,177);"/>
        </g>
        <g id="seat-22F" transform="matrix(1.49253,0,0,1.33003,281.947,5.03963)">
            <path d="M298,190.96C298,190.43 297.617,190 297.145,190L288.855,190C288.383,190 288,190.43 288,190.96L288,200.04C288,200.57 288.383,201 288.855,201L297.145,201C297.617,201 298,200.57 298,200.04L298,190.96Z" style="fill:rgb(177,177,177);"/>
        </g>
        <g id="seat-23A" transform="matrix(1.49253,0,0,1.33003,301.776,98.3809)">
            <path d="M298,190.96C298,190.43 297.617,190 297.145,190L288.855,190C288.383,190 288,190.43 288,190.96L288,200.04C288,200.57 288.383,201 288.855,201L297.145,201C297.617,201 298,200.57 298,200.04L298,190.96Z" style="fill:rgb(177,177,177);"/>
        </g>
        <g id="seat-23B" transform="matrix(1.49253,0,0,1.33003,301.776,83.0576)">
            <path d="M298,190.96C298,190.43 297.617,190 297.145,190L288.855,190C288.383,190 288,190.43 288,190.96L288,200.04C288,200.57 288.383,201 288.855,201L297.145,201C297.617,201 298,200.57 298,200.04L298,190.96Z" style="fill:rgb(177,177,177);"/>
        </g>
        <g id="seat-23C" transform="matrix(1.49253,0,0,1.33003,301.776,67.7324)">
            <path d="M298,190.96C298,190.43 297.617,190 297.145,190L288.855,190C288.383,190 288,190.43 288,190.96L288,200.04C288,200.57 288.383,201 288.855,201L297.145,201C297.617,201 298,200.57 298,200.04L298,190.96Z" style="fill:rgb(177,177,177);"/>
        </g>
        <g id="seat-23D" transform="matrix(1.49253,0,0,1.33003,301.776,35.5747)">
            <path d="M298,190.96C298,190.43 297.617,190 297.145,190L288.855,190C288.383,190 288,190.43 288,190.96L288,200.04C288,200.57 288.383,201 288.855,201L297.145,201C297.617,201 298,200.57 298,200.04L298,190.96Z" style="fill:rgb(177,177,177);"/>
        </g>
        <g id="seat-23E" transform="matrix(1.49253,0,0,1.33003,301.776,20.2758)">
            <path d="M298,190.96C298,190.43 297.617,190 297.145,190L288.855,190C288.383,190 288,190.43 288,190.96L288,200.04C288,200.57 288.383,201 288.855,201L297.145,201C297.617,201 298,200.57 298,200.04L298,190.96Z" style="fill:rgb(177,177,177);"/>
        </g>
        <g id="seat-23F" transform="matrix(1.49253,0,0,1.33003,301.776,5.03963)">
            <path d="M298,190.96C298,190.43 297.617,190 297.145,190L288.855,190C288.383,190 288,190.43 288,190.96L288,200.04C288,200.57 288.383,201 288.855,201L297.145,201C297.617,201 298,200.57 298,200.04L298,190.96Z" style="fill:rgb(177,177,177);"/>
        </g>
        <g id="seat-24A" transform="matrix(1.49253,0,0,1.33003,321.527,98.3809)">
            <path d="M298,190.96C298,190.43 297.617,190 297.145,190L288.855,190C288.383,190 288,190.43 288,190.96L288,200.04C288,200.57 288.383,201 288.855,201L297.145,201C297.617,201 298,200.57 298,200.04L298,190.96Z" style="fill:rgb(177,177,177);"/>
        </g>
        <g id="seat-24B" transform="matrix(1.49253,0,0,1.33003,321.527,83.0576)">
            <path d="M298,190.96C298,190.43 297.617,190 297.145,190L288.855,190C288.383,190 288,190.43 288,190.96L288,200.04C288,200.57 288.383,201 288.855,201L297.145,201C297.617,201 298,200.57 298,200.04L298,190.96Z" style="fill:rgb(177,177,177);"/>
        </g>
        <g id="seat-24C" transform="matrix(1.49253,0,0,1.33003,321.527,67.7324)">
            <path d="M298,190.96C298,190.43 297.617,190 297.145,190L288.855,190C288.383,190 288,190.43 288,190.96L288,200.04C288,200.57 288.383,201 288.855,201L297.145,201C297.617,201 298,200.57 298,200.04L298,190.96Z" style="fill:rgb(177,177,177);"/>
        </g>
        <g id="seat-24D" transform="matrix(1.49253,0,0,1.33003,321.527,35.5747)">
            <path d="M298,190.96C298,190.43 297.617,190 297.145,190L288.855,190C288.383,190 288,190.43 288,190.96L288,200.04C288,200.57 288.383,201 288.855,201L297.145,201C297.617,201 298,200.57 298,200.04L298,190.96Z" style="fill:rgb(177,177,177);"/>
        </g>
        <g id="seat-24E" transform="matrix(1.49253,0,0,1.33003,321.527,20.2758)">
            <path d="M298,190.96C298,190.43 297.617,190 297.145,190L288.855,190C288.383,190 288,190.43 288,190.96L288,200.04C288,200.57 288.383,201 288.855,201L297.145,201C297.617,201 298,200.57 298,200.04L298,190.96Z" style="fill:rgb(177,177,177);"/>
        </g>
        <g id="seat-24F" transform="matrix(1.49253,0,0,1.33003,321.527,5.03963)">
            <path d="M298,190.96C298,190.43 297.617,190 297.145,190L288.855,190C288.383,190 288,190.43 288,190.96L288,200.04C288,200.57 288.383,201 288.855,201L297.145,201C297.617,201 298,200.57 298,200.04L298,190.96Z" style="fill:rgb(177,177,177);"/>
        </g>
        <g id="seat-25A" transform="matrix(1.49253,0,0,1.33003,341.434,98.3809)">
            <path d="M298,190.96C298,190.43 297.617,190 297.145,190L288.855,190C288.383,190 288,190.43 288,190.96L288,200.04C288,200.57 288.383,201 288.855,201L297.145,201C297.617,201 298,200.57 298,200.04L298,190.96Z" style="fill:rgb(177,177,177);"/>
        </g>
        <g id="seat-25B" transform="matrix(1.49253,0,0,1.33003,341.434,83.0576)">
            <path d="M298,190.96C298,190.43 297.617,190 297.145,190L288.855,190C288.383,190 288,190.43 288,190.96L288,200.04C288,200.57 288.383,201 288.855,201L297.145,201C297.617,201 298,200.57 298,200.04L298,190.96Z" style="fill:rgb(177,177,177);"/>
        </g>
        <g id="seat-25C" transform="matrix(1.49253,0,0,1.33003,341.434,67.7324)">
            <path d="M298,190.96C298,190.43 297.617,190 297.145,190L288.855,190C288.383,190 288,190.43 288,190.96L288,200.04C288,200.57 288.383,201 288.855,201L297.145,201C297.617,201 298,200.57 298,200.04L298,190.96Z" style="fill:rgb(177,177,177);"/>
        </g>
        <g id="seat-25D" transform="matrix(1.49253,0,0,1.33003,341.434,35.5747)">
            <path d="M298,190.96C298,190.43 297.617,190 297.145,190L288.855,190C288.383,190 288,190.43 288,190.96L288,200.04C288,200.57 288.383,201 288.855,201L297.145,201C297.617,201 298,200.57 298,200.04L298,190.96Z" style="fill:rgb(177,177,177);"/>
        </g>
        <g id="seat-25E" transform="matrix(1.49253,0,0,1.33003,341.434,20.2758)">
            <path d="M298,190.96C298,190.43 297.617,190 297.145,190L288.855,190C288.383,190 288,190.43 288,190.96L288,200.04C288,200.57 288.383,201 288.855,201L297.145,201C297.617,201 298,200.57 298,200.04L298,190.96Z" style="fill:rgb(177,177,177);"/>
        </g>
        <g id="seat-25F" transform="matrix(1.49253,0,0,1.33003,341.434,5.03963)">
            <path d="M298,190.96C298,190.43 297.617,190 297.145,190L288.855,190C288.383,190 288,190.43 288,190.96L288,200.04C288,200.57 288.383,201 288.855,201L297.145,201C297.617,201 298,200.57 298,200.04L298,190.96Z" style="fill:rgb(177,177,177);"/>
        </g>
        <g id="seat-26A" transform="matrix(1.49253,0,0,1.33003,361.31,98.3809)">
            <path d="M298,190.96C298,190.43 297.617,190 297.145,190L288.855,190C288.383,190 288,190.43 288,190.96L288,200.04C288,200.57 288.383,201 288.855,201L297.145,201C297.617,201 298,200.57 298,200.04L298,190.96Z" style="fill:rgb(177,177,177);"/>
        </g>
        <g id="seat-27A" transform="matrix(1.49253,0,0,1.33003,361.31,83.0576)">
            <path d="M298,190.96C298,190.43 297.617,190 297.145,190L288.855,190C288.383,190 288,190.43 288,190.96L288,200.04C288,200.57 288.383,201 288.855,201L297.145,201C297.617,201 298,200.57 298,200.04L298,190.96Z" style="fill:rgb(177,177,177);"/>
        </g>
        <g id="seat-27C" transform="matrix(1.49253,0,0,1.33003,361.31,67.7324)">
            <path d="M298,190.96C298,190.43 297.617,190 297.145,190L288.855,190C288.383,190 288,190.43 288,190.96L288,200.04C288,200.57 288.383,201 288.855,201L297.145,201C297.617,201 298,200.57 298,200.04L298,190.96Z" style="fill:rgb(177,177,177);"/>
        </g>
        <g id="seat-27D" transform="matrix(1.49253,0,0,1.33003,361.31,35.5747)">
            <path d="M298,190.96C298,190.43 297.617,190 297.145,190L288.855,190C288.383,190 288,190.43 288,190.96L288,200.04C288,200.57 288.383,201 288.855,201L297.145,201C297.617,201 298,200.57 298,200.04L298,190.96Z" style="fill:rgb(177,177,177);"/>
        </g>
        <g id="seat-27E" transform="matrix(1.49253,0,0,1.33003,361.31,20.2758)">
            <path d="M298,190.96C298,190.43 297.617,190 297.145,190L288.855,190C288.383,190 288,190.43 288,190.96L288,200.04C288,200.57 288.383,201 288.855,201L297.145,201C297.617,201 298,200.57 298,200.04L298,190.96Z" style="fill:rgb(177,177,177);"/>
        </g>
        <g id="seat-27F" transform="matrix(1.49253,0,0,1.33003,361.31,5.03963)">
            <path d="M298,190.96C298,190.43 297.617,190 297.145,190L288.855,190C288.383,190 288,190.43 288,190.96L288,200.04C288,200.57 288.383,201 288.855,201L297.145,201C297.617,201 298,200.57 298,200.04L298,190.96Z" style="fill:rgb(177,177,177);"/>
        </g>
        <g id="seat-28A" transform="matrix(1.49253,0,0,1.33003,379.681,98.3809)">
            <path d="M298,190.96C298,190.43 297.617,190 297.145,190L288.855,190C288.383,190 288,190.43 288,190.96L288,200.04C288,200.57 288.383,201 288.855,201L297.145,201C297.617,201 298,200.57 298,200.04L298,190.96Z" style="fill:rgb(177,177,177);"/>
        </g>
        <g id="seat-28B" transform="matrix(1.49253,0,0,1.33003,379.681,83.0576)">
            <path d="M298,190.96C298,190.43 297.617,190 297.145,190L288.855,190C288.383,190 288,190.43 288,190.96L288,200.04C288,200.57 288.383,201 288.855,201L297.145,201C297.617,201 298,200.57 298,200.04L298,190.96Z" style="fill:rgb(177,177,177);"/>
        </g>
        <g id="seat-28C" transform="matrix(1.49253,0,0,1.33003,379.681,67.7324)">
            <path d="M298,190.96C298,190.43 297.617,190 297.145,190L288.855,190C288.383,190 288,190.43 288,190.96L288,200.04C288,200.57 288.383,201 288.855,201L297.145,201C297.617,201 298,200.57 298,200.04L298,190.96Z" style="fill:rgb(177,177,177);"/>
        </g>
        <g id="seat-28D" transform="matrix(1.49253,0,0,1.33003,379.681,35.5747)">
            <path d="M298,190.96C298,190.43 297.617,190 297.145,190L288.855,190C288.383,190 288,190.43 288,190.96L288,200.04C288,200.57 288.383,201 288.855,201L297.145,201C297.617,201 298,200.57 298,200.04L298,190.96Z" style="fill:rgb(177,177,177);"/>
        </g>
        <g id="seat-28E" transform="matrix(1.49253,0,0,1.33003,379.681,20.2758)">
            <path d="M298,190.96C298,190.43 297.617,190 297.145,190L288.855,190C288.383,190 288,190.43 288,190.96L288,200.04C288,200.57 288.383,201 288.855,201L297.145,201C297.617,201 298,200.57 298,200.04L298,190.96Z" style="fill:rgb(177,177,177);"/>
        </g>
        <g id="seat-28F" transform="matrix(1.49253,0,0,1.33003,379.681,5.03963)">
            <path d="M298,190.96C298,190.43 297.617,190 297.145,190L288.855,190C288.383,190 288,190.43 288,190.96L288,200.04C288,200.57 288.383,201 288.855,201L297.145,201C297.617,201 298,200.57 298,200.04L298,190.96Z" style="fill:rgb(177,177,177);"/>
        </g>
        <g id="seat-29A" transform="matrix(1.49253,0,0,1.33003,399.62,98.3809)">
            <path d="M298,190.96C298,190.43 297.617,190 297.145,190L288.855,190C288.383,190 288,190.43 288,190.96L288,200.04C288,200.57 288.383,201 288.855,201L297.145,201C297.617,201 298,200.57 298,200.04L298,190.96Z" style="fill:rgb(177,177,177);"/>
        </g>
        <g id="seat-29B" transform="matrix(1.49253,0,0,1.33003,399.62,83.0576)">
            <path d="M298,190.96C298,190.43 297.617,190 297.145,190L288.855,190C288.383,190 288,190.43 288,190.96L288,200.04C288,200.57 288.383,201 288.855,201L297.145,201C297.617,201 298,200.57 298,200.04L298,190.96Z" style="fill:rgb(177,177,177);"/>
        </g>
        <g id="seat-29C" transform="matrix(1.49253,0,0,1.33003,399.62,67.7324)">
            <path d="M298,190.96C298,190.43 297.617,190 297.145,190L288.855,190C288.383,190 288,190.43 288,190.96L288,200.04C288,200.57 288.383,201 288.855,201L297.145,201C297.617,201 298,200.57 298,200.04L298,190.96Z" style="fill:rgb(177,177,177);"/>
        </g>
        <g id="seat-29D" transform="matrix(1.49253,0,0,1.33003,399.62,35.5747)">
            <path d="M298,190.96C298,190.43 297.617,190 297.145,190L288.855,190C288.383,190 288,190.43 288,190.96L288,200.04C288,200.57 288.383,201 288.855,201L297.145,201C297.617,201 298,200.57 298,200.04L298,190.96Z" style="fill:rgb(177,177,177);"/>
        </g>
        <g id="seat-29E" transform="matrix(1.49253,0,0,1.33003,399.62,20.2758)">
            <path d="M298,190.96C298,190.43 297.617,190 297.145,190L288.855,190C288.383,190 288,190.43 288,190.96L288,200.04C288,200.57 288.383,201 288.855,201L297.145,201C297.617,201 298,200.57 298,200.04L298,190.96Z" style="fill:rgb(177,177,177);"/>
        </g>
        <g id="seat-29F" transform="matrix(1.49253,0,0,1.33003,399.62,5.03963)">
            <path d="M298,190.96C298,190.43 297.617,190 297.145,190L288.855,190C288.383,190 288,190.43 288,190.96L288,200.04C288,200.57 288.383,201 288.855,201L297.145,201C297.617,201 298,200.57 298,200.04L298,190.96Z" style="fill:rgb(177,177,177);"/>
        </g>
        <g id="seat-30A" transform="matrix(1.49253,0,0,1.33003,419.784,98.3809)">
            <path d="M298,190.96C298,190.43 297.617,190 297.145,190L288.855,190C288.383,190 288,190.43 288,190.96L288,200.04C288,200.57 288.383,201 288.855,201L297.145,201C297.617,201 298,200.57 298,200.04L298,190.96Z" style="fill:rgb(177,177,177);"/>
        </g>
        <g id="seat-30B" transform="matrix(1.49253,0,0,1.33003,419.784,83.0576)">
            <path d="M298,190.96C298,190.43 297.617,190 297.145,190L288.855,190C288.383,190 288,190.43 288,190.96L288,200.04C288,200.57 288.383,201 288.855,201L297.145,201C297.617,201 298,200.57 298,200.04L298,190.96Z" style="fill:rgb(177,177,177);"/>
        </g>
        <g id="seat-30C" transform="matrix(1.49253,0,0,1.33003,419.784,67.7324)">
            <path d="M298,190.96C298,190.43 297.617,190 297.145,190L288.855,190C288.383,190 288,190.43 288,190.96L288,200.04C288,200.57 288.383,201 288.855,201L297.145,201C297.617,201 298,200.57 298,200.04L298,190.96Z" style="fill:rgb(177,177,177);"/>
        </g>
        <g id="seat-30D" transform="matrix(1.49253,0,0,1.33003,419.784,35.5747)">
            <path d="M298,190.96C298,190.43 297.617,190 297.145,190L288.855,190C288.383,190 288,190.43 288,190.96L288,200.04C288,200.57 288.383,201 288.855,201L297.145,201C297.617,201 298,200.57 298,200.04L298,190.96Z" style="fill:rgb(177,177,177);"/>
        </g>
        <g id="seat-30E" transform="matrix(1.49253,0,0,1.33003,419.784,20.2758)">
            <path d="M298,190.96C298,190.43 297.617,190 297.145,190L288.855,190C288.383,190 288,190.43 288,190.96L288,200.04C288,200.57 288.383,201 288.855,201L297.145,201C297.617,201 298,200.57 298,200.04L298,190.96Z" style="fill:rgb(177,177,177);"/>
        </g>
        <g id="seat-30F" transform="matrix(1.49253,0,0,1.33003,419.784,5.03963)">
            <path d="M298,190.96C298,190.43 297.617,190 297.145,190L288.855,190C288.383,190 288,190.43 288,190.96L288,200.04C288,200.57 288.383,201 288.855,201L297.145,201C297.617,201 298,200.57 298,200.04L298,190.96Z" style="fill:rgb(177,177,177);"/>
        </g>
        <g id="seat-3F" transform="matrix(1.96268,0,0,1.713,-291.304,-66.1824)">
            <path d="M298,190.745C298,190.334 297.709,190 297.35,190L288.65,190C288.291,190 288,190.334 288,190.745L288,200.255C288,200.666 288.291,201 288.65,201L297.35,201C297.709,201 298,200.666 298,200.255L298,190.745Z" style="fill:rgb(177,177,177);"/>
        </g>
        <g id="seat-4F" transform="matrix(1.96268,0,0,1.713,-262.637,-66.1824)">
            <path d="M298,190.745C298,190.334 297.709,190 297.35,190L288.65,190C288.291,190 288,190.334 288,190.745L288,200.255C288,200.666 288.291,201 288.65,201L297.35,201C297.709,201 298,200.666 298,200.255L298,190.745Z" style="fill:rgb(177,177,177);"/>
        </g>
        <g id="seat-1F" transform="matrix(1.96268,0,0,1.713,-348.656,-66.1824)">
            <path d="M298,190.745C298,190.334 297.709,190 297.35,190L288.65,190C288.291,190 288,190.334 288,190.745L288,200.255C288,200.666 288.291,201 288.65,201L297.35,201C297.709,201 298,200.666 298,200.255L298,190.745Z" style="fill:rgb(177,177,177);"/>
        </g>
        <g id="seat-2F" transform="matrix(1.96268,0,0,1.713,-319.99,-66.1824)">
            <path d="M298,190.745C298,190.334 297.709,190 297.35,190L288.65,190C288.291,190 288,190.334 288,190.745L288,200.255C288,200.666 288.291,201 288.65,201L297.35,201C297.709,201 298,200.666 298,200.255L298,190.745Z" style="fill:rgb(177,177,177);"/>
        </g>
    </g>
    <g id="signs">
        <g id="exit-sign" transform="matrix(4.84637e-17,-0.791473,0.791473,4.84637e-17,41.2476,577.42)">
            <path d="M269.375,200.802L269.375,192.212L275.744,192.212L275.744,193.665L271.109,193.665L271.109,195.57L275.421,195.57L275.421,197.017L271.109,197.017L271.109,199.355L275.908,199.355L275.908,200.802L269.375,200.802Z" style="fill:rgb(94,94,94);fill-rule:nonzero;"/>
            <path d="M276.505,200.802L279.441,196.32L276.781,192.212L278.808,192.212L280.531,194.972L282.218,192.212L284.228,192.212L281.556,196.384L284.492,200.802L282.4,200.802L280.496,197.831L278.586,200.802L276.505,200.802Z" style="fill:rgb(94,94,94);fill-rule:nonzero;"/>
            <rect x="285.33" y="192.212" width="1.734" height="8.59" style="fill:rgb(94,94,94);fill-rule:nonzero;"/>
            <path d="M290.65,200.802L290.65,193.665L288.101,193.665L288.101,192.212L294.927,192.212L294.927,193.665L292.384,193.665L292.384,200.802L290.65,200.802Z" style="fill:rgb(94,94,94);fill-rule:nonzero;"/>
        </g>
        <g id="exit-sign1" serif:id="exit-sign" transform="matrix(4.84637e-17,-0.791473,0.791473,4.84637e-17,41.2476,492.936)">
            <path d="M269.375,200.802L269.375,192.212L275.744,192.212L275.744,193.665L271.109,193.665L271.109,195.57L275.421,195.57L275.421,197.017L271.109,197.017L271.109,199.355L275.908,199.355L275.908,200.802L269.375,200.802Z" style="fill:rgb(94,94,94);fill-rule:nonzero;"/>
            <path d="M276.505,200.802L279.441,196.32L276.781,192.212L278.808,192.212L280.531,194.972L282.218,192.212L284.228,192.212L281.556,196.384L284.492,200.802L282.4,200.802L280.496,197.831L278.586,200.802L276.505,200.802Z" style="fill:rgb(94,94,94);fill-rule:nonzero;"/>
            <rect x="285.33" y="192.212" width="1.734" height="8.59" style="fill:rgb(94,94,94);fill-rule:nonzero;"/>
            <path d="M290.65,200.802L290.65,193.665L288.101,193.665L288.101,192.212L294.927,192.212L294.927,193.665L292.384,193.665L292.384,200.802L290.65,200.802Z" style="fill:rgb(94,94,94);fill-rule:nonzero;"/>
        </g>
        <g id="exit-sign2" serif:id="exit-sign" transform="matrix(4.84637e-17,-0.791473,0.791473,4.84637e-17,357.716,577.42)">
            <path d="M269.375,200.802L269.375,192.212L275.744,192.212L275.744,193.665L271.109,193.665L271.109,195.57L275.421,195.57L275.421,197.017L271.109,197.017L271.109,199.355L275.908,199.355L275.908,200.802L269.375,200.802Z" style="fill:rgb(94,94,94);fill-rule:nonzero;"/>
            <path d="M276.505,200.802L279.441,196.32L276.781,192.212L278.808,192.212L280.531,194.972L282.218,192.212L284.228,192.212L281.556,196.384L284.492,200.802L282.4,200.802L280.496,197.831L278.586,200.802L276.505,200.802Z" style="fill:rgb(94,94,94);fill-rule:nonzero;"/>
            <rect x="285.33" y="192.212" width="1.734" height="8.59" style="fill:rgb(94,94,94);fill-rule:nonzero;"/>
            <path d="M290.65,200.802L290.65,193.665L288.101,193.665L288.101,192.212L294.927,192.212L294.927,193.665L292.384,193.665L292.384,200.802L290.65,200.802Z" style="fill:rgb(94,94,94);fill-rule:nonzero;"/>
        </g>
        <g id="exit-sign3" serif:id="exit-sign" transform="matrix(4.84637e-17,-0.791473,0.791473,4.84637e-17,357.716,491.315)">
            <path d="M269.375,200.802L269.375,192.212L275.744,192.212L275.744,193.665L271.109,193.665L271.109,195.57L275.421,195.57L275.421,197.017L271.109,197.017L271.109,199.355L275.908,199.355L275.908,200.802L269.375,200.802Z" style="fill:rgb(94,94,94);fill-rule:nonzero;"/>
            <path d="M276.505,200.802L279.441,196.32L276.781,192.212L278.808,192.212L280.531,194.972L282.218,192.212L284.228,192.212L281.556,196.384L284.492,200.802L282.4,200.802L280.496,197.831L278.586,200.802L276.505,200.802Z" style="fill:rgb(94,94,94);fill-rule:nonzero;"/>
            <rect x="285.33" y="192.212" width="1.734" height="8.59" style="fill:rgb(94,94,94);fill-rule:nonzero;"/>
            <path d="M290.65,200.802L290.65,193.665L288.101,193.665L288.101,192.212L294.927,192.212L294.927,193.665L292.384,193.665L292.384,200.802L290.65,200.802Z" style="fill:rgb(94,94,94);fill-rule:nonzero;"/>
        </g>
        <g id="exit-sign4" serif:id="exit-sign" transform="matrix(4.84637e-17,-0.791473,0.791473,4.84637e-17,735.407,577.42)">
            <path d="M269.375,200.802L269.375,192.212L275.744,192.212L275.744,193.665L271.109,193.665L271.109,195.57L275.421,195.57L275.421,197.017L271.109,197.017L271.109,199.355L275.908,199.355L275.908,200.802L269.375,200.802Z" style="fill:rgb(94,94,94);fill-rule:nonzero;"/>
            <path d="M276.505,200.802L279.441,196.32L276.781,192.212L278.808,192.212L280.531,194.972L282.218,192.212L284.228,192.212L281.556,196.384L284.492,200.802L282.4,200.802L280.496,197.831L278.586,200.802L276.505,200.802Z" style="fill:rgb(94,94,94);fill-rule:nonzero;"/>
            <rect x="285.33" y="192.212" width="1.734" height="8.59" style="fill:rgb(94,94,94);fill-rule:nonzero;"/>
            <path d="M290.65,200.802L290.65,193.665L288.101,193.665L288.101,192.212L294.927,192.212L294.927,193.665L292.384,193.665L292.384,200.802L290.65,200.802Z" style="fill:rgb(94,94,94);fill-rule:nonzero;"/>
        </g>
        <g id="exit-sign5" serif:id="exit-sign" transform="matrix(4.84637e-17,-0.791473,0.791473,4.84637e-17,735.407,491.634)">
            <path d="M269.375,200.802L269.375,192.212L275.744,192.212L275.744,193.665L271.109,193.665L271.109,195.57L275.421,195.57L275.421,197.017L271.109,197.017L271.109,199.355L275.908,199.355L275.908,200.802L269.375,200.802Z" style="fill:rgb(94,94,94);fill-rule:nonzero;"/>
            <path d="M276.505,200.802L279.441,196.32L276.781,192.212L278.808,192.212L280.531,194.972L282.218,192.212L284.228,192.212L281.556,196.384L284.492,200.802L282.4,200.802L280.496,197.831L278.586,200.802L276.505,200.802Z" style="fill:rgb(94,94,94);fill-rule:nonzero;"/>
            <rect x="285.33" y="192.212" width="1.734" height="8.59" style="fill:rgb(94,94,94);fill-rule:nonzero;"/>
            <path d="M290.65,200.802L290.65,193.665L288.101,193.665L288.101,192.212L294.927,192.212L294.927,193.665L292.384,193.665L292.384,200.802L290.65,200.802Z" style="fill:rgb(94,94,94);fill-rule:nonzero;"/>
        </g>
    </g>
</svg>
