<?xml version="1.0" encoding="UTF-8" standalone="no"?>
<!DOCTYPE svg PUBLIC "-//W3C//DTD SVG 1.1//EN" "http://www.w3.org/Graphics/SVG/1.1/DTD/svg11.dtd">
<svg width="100%" height="100%" viewBox="0 0 1024 600" version="1.1" xmlns="http://www.w3.org/2000/svg" xmlns:xlink="http://www.w3.org/1999/xlink" xml:space="preserve" xmlns:serif="http://www.serif.com/" style="fill-rule:evenodd;clip-rule:evenodd;stroke-linecap:round;stroke-linejoin:round;stroke-miterlimit:1.5;">
    <g id="gray-fill" transform="matrix(1.20686,0,0,1.3984,-103.953,-147.352)">
        <path d="M602.98,418.708L586.758,379.152L270.98,379.152C74.223,362.418 53.201,287.351 270.98,266.451L586.441,266.451L603.053,227.412L713.758,227.525L708.752,266.21L834.135,266.21C918.439,267.228 928.919,375.36 834.135,379.318L707.996,379.318L713.116,418.554L602.98,418.708Z" style="fill:rgb(230,230,230);"/>
    </g>
    <g id="outer-countour" transform="matrix(1.20686,0,0,1.3984,-103.953,-147.352)">
        <path d="M713.034,418.403L707.719,379.326L832.634,379.326C924.285,379.326 924.113,266.223 832.634,266.223C670.103,266.223 717.57,266.223 708.605,266.223L713.625,227.634" style="fill:none;stroke:rgb(94,94,94);stroke-width:1.53px;"/>
        <path d="M602.869,227.651L586.627,266.336L271.533,266.336L271.362,266.327C63.527,283.927 62.328,360.565 271.854,379.089L586.652,379.089L602.304,418.07" style="fill:none;stroke:rgb(94,94,94);stroke-width:1.53px;"/>
    </g>
    <g id="signs" transform="matrix(1.20686,0,0,1.3984,-103.953,-147.352)">
        <g id="exit-sign" transform="matrix(4.84637e-17,-0.791473,0.791473,4.84637e-17,126.449,578.376)">
            <path d="M269.375,200.802L269.375,192.212L275.744,192.212L275.744,193.665L271.109,193.665L271.109,195.57L275.421,195.57L275.421,197.017L271.109,197.017L271.109,199.355L275.908,199.355L275.908,200.802L269.375,200.802Z" style="fill:rgb(94,94,94);fill-rule:nonzero;"/>
            <path d="M276.505,200.802L279.441,196.32L276.781,192.212L278.808,192.212L280.531,194.972L282.218,192.212L284.228,192.212L281.556,196.384L284.492,200.802L282.4,200.802L280.496,197.831L278.586,200.802L276.505,200.802Z" style="fill:rgb(94,94,94);fill-rule:nonzero;"/>
            <rect x="285.33" y="192.212" width="1.734" height="8.59" style="fill:rgb(94,94,94);fill-rule:nonzero;"/>
            <path d="M290.65,200.802L290.65,193.665L288.101,193.665L288.101,192.212L294.927,192.212L294.927,193.665L292.384,193.665L292.384,200.802L290.65,200.802Z" style="fill:rgb(94,94,94);fill-rule:nonzero;"/>
        </g>
        <g id="exit-sign1" serif:id="exit-sign" transform="matrix(4.84637e-17,-0.791473,0.791473,4.84637e-17,465.763,578.376)">
            <path d="M269.375,200.802L269.375,192.212L275.744,192.212L275.744,193.665L271.109,193.665L271.109,195.57L275.421,195.57L275.421,197.017L271.109,197.017L271.109,199.355L275.908,199.355L275.908,200.802L269.375,200.802Z" style="fill:rgb(94,94,94);fill-rule:nonzero;"/>
            <path d="M276.505,200.802L279.441,196.32L276.781,192.212L278.808,192.212L280.531,194.972L282.218,192.212L284.228,192.212L281.556,196.384L284.492,200.802L282.4,200.802L280.496,197.831L278.586,200.802L276.505,200.802Z" style="fill:rgb(94,94,94);fill-rule:nonzero;"/>
            <rect x="285.33" y="192.212" width="1.734" height="8.59" style="fill:rgb(94,94,94);fill-rule:nonzero;"/>
            <path d="M290.65,200.802L290.65,193.665L288.101,193.665L288.101,192.212L294.927,192.212L294.927,193.665L292.384,193.665L292.384,200.802L290.65,200.802Z" style="fill:rgb(94,94,94);fill-rule:nonzero;"/>
        </g>
        <g id="exit-sign2" serif:id="exit-sign" transform="matrix(4.84637e-17,-0.791473,0.791473,4.84637e-17,465.763,513.295)">
            <path d="M269.375,200.802L269.375,192.212L275.744,192.212L275.744,193.665L271.109,193.665L271.109,195.57L275.421,195.57L275.421,197.017L271.109,197.017L271.109,199.355L275.908,199.355L275.908,200.802L269.375,200.802Z" style="fill:rgb(94,94,94);fill-rule:nonzero;"/>
            <path d="M276.505,200.802L279.441,196.32L276.781,192.212L278.808,192.212L280.531,194.972L282.218,192.212L284.228,192.212L281.556,196.384L284.492,200.802L282.4,200.802L280.496,197.831L278.586,200.802L276.505,200.802Z" style="fill:rgb(94,94,94);fill-rule:nonzero;"/>
            <rect x="285.33" y="192.212" width="1.734" height="8.59" style="fill:rgb(94,94,94);fill-rule:nonzero;"/>
            <path d="M290.65,200.802L290.65,193.665L288.101,193.665L288.101,192.212L294.927,192.212L294.927,193.665L292.384,193.665L292.384,200.802L290.65,200.802Z" style="fill:rgb(94,94,94);fill-rule:nonzero;"/>
        </g>
    </g>
    <g id="inner-countour" transform="matrix(1.20686,0,0,1.3984,-103.953,-147.352)">
        <path d="M272.109,371.697C74.2,358.676 71.302,286.115 272.095,273.818L833.019,273.818C915.342,273.818 913.22,371.697 833.682,371.697L272.109,371.697Z" style="fill:none;stroke:rgb(244,167,125);stroke-width:4.59px;"/>
    </g>
    <g id="seats" transform="matrix(1.20686,0,0,1.3984,-103.953,-147.352)">
        <g id="seat-46" transform="matrix(1.96268,0,0,1.713,-246.99,20.5534)">
            <path d="M298,190.533C298,190.239 297.759,190 297.461,190L288.539,190C288.241,190 288,190.239 288,190.533L288,200.467C288,200.761 288.241,201 288.539,201L297.461,201C297.759,201 298,200.761 298,200.467L298,190.533Z" style="fill:rgb(177,177,177);"/>
        </g>
        <g id="seat-1A" transform="matrix(1.96268,0,0,1.713,-246.99,20.5534)">
            <path d="M298,190.533C298,190.239 297.759,190 297.461,190L288.539,190C288.241,190 288,190.239 288,190.533L288,200.467C288,200.761 288.241,201 288.539,201L297.461,201C297.759,201 298,200.761 298,200.467L298,190.533Z" style="fill:rgb(177,177,177);"/>
        </g>
        <g id="seat-461" serif:id="seat-46" transform="matrix(1.96268,0,0,1.713,-219.342,20.5534)">
            <path d="M298,190.533C298,190.239 297.759,190 297.461,190L288.539,190C288.241,190 288,190.239 288,190.533L288,200.467C288,200.761 288.241,201 288.539,201L297.461,201C297.759,201 298,200.761 298,200.467L298,190.533Z" style="fill:rgb(177,177,177);"/>
        </g>
        <g id="seat-462" serif:id="seat-46" transform="matrix(1.96268,0,0,1.713,-191.808,20.5534)">
            <path d="M298,190.533C298,190.239 297.759,190 297.461,190L288.539,190C288.241,190 288,190.239 288,190.533L288,200.467C288,200.761 288.241,201 288.539,201L297.461,201C297.759,201 298,200.761 298,200.467L298,190.533Z" style="fill:rgb(177,177,177);"/>
        </g>
        <g id="seat-463" serif:id="seat-46" transform="matrix(1.96268,0,0,1.713,-81.785,20.5534)">
            <path d="M298,190.533C298,190.239 297.759,190 297.461,190L288.539,190C288.241,190 288,190.239 288,190.533L288,200.467C288,200.761 288.241,201 288.539,201L297.461,201C297.759,201 298,200.761 298,200.467L298,190.533Z" style="fill:rgb(177,177,177);"/>
        </g>
        <g id="seat-4A" transform="matrix(1.96268,0,0,1.713,-164.387,20.5534)">
            <path d="M298,190.533C298,190.239 297.759,190 297.461,190L288.539,190C288.241,190 288,190.239 288,190.533L288,200.467C288,200.761 288.241,201 288.539,201L297.461,201C297.759,201 298,200.761 298,200.467L298,190.533Z" style="fill:rgb(177,177,177);"/>
        </g>
        <g id="seat-2A" transform="matrix(1.96268,0,0,1.713,-219.342,20.5534)">
            <path d="M298,190.533C298,190.239 297.759,190 297.461,190L288.539,190C288.241,190 288,190.239 288,190.533L288,200.467C288,200.761 288.241,201 288.539,201L297.461,201C297.759,201 298,200.761 298,200.467L298,190.533Z" style="fill:rgb(177,177,177);"/>
        </g>
        <g id="seat-5A" transform="matrix(1.96268,0,0,1.713,-136.739,20.5534)">
            <path d="M298,190.533C298,190.239 297.759,190 297.461,190L288.539,190C288.241,190 288,190.239 288,190.533L288,200.467C288,200.761 288.241,201 288.539,201L297.461,201C297.759,201 298,200.761 298,200.467L298,190.533Z" style="fill:rgb(177,177,177);"/>
        </g>
        <g id="seat-3A" transform="matrix(1.96268,0,0,1.713,-191.808,20.5534)">
            <path d="M298,190.533C298,190.239 297.759,190 297.461,190L288.539,190C288.241,190 288,190.239 288,190.533L288,200.467C288,200.761 288.241,201 288.539,201L297.461,201C297.759,201 298,200.761 298,200.467L298,190.533Z" style="fill:rgb(177,177,177);"/>
        </g>
        <g id="seat-3D" transform="matrix(1.96268,0,0,1.713,-191.808,-45.1509)">
            <path d="M298,190.533C298,190.239 297.759,190 297.461,190L288.539,190C288.241,190 288,190.239 288,190.533L288,200.467C288,200.761 288.241,201 288.539,201L297.461,201C297.759,201 298,200.761 298,200.467L298,190.533Z" style="fill:rgb(177,177,177);"/>
        </g>
        <g id="seat-3C" transform="matrix(1.96268,0,0,1.713,-191.808,-23.391)">
            <path d="M298,190.533C298,190.239 297.759,190 297.461,190L288.539,190C288.241,190 288,190.239 288,190.533L288,200.467C288,200.761 288.241,201 288.539,201L297.461,201C297.759,201 298,200.761 298,200.467L298,190.533Z" style="fill:rgb(177,177,177);"/>
        </g>
        <g id="seat-4D" transform="matrix(1.96268,0,0,1.713,-164.074,-45.1509)">
            <path d="M298,190.533C298,190.239 297.759,190 297.461,190L288.539,190C288.241,190 288,190.239 288,190.533L288,200.467C288,200.761 288.241,201 288.539,201L297.461,201C297.759,201 298,200.761 298,200.467L298,190.533Z" style="fill:rgb(177,177,177);"/>
        </g>
        <g id="seat-4C" transform="matrix(1.96268,0,0,1.713,-164.074,-23.391)">
            <path d="M298,190.533C298,190.239 297.759,190 297.461,190L288.539,190C288.241,190 288,190.239 288,190.533L288,200.467C288,200.761 288.241,201 288.539,201L297.461,201C297.759,201 298,200.761 298,200.467L298,190.533Z" style="fill:rgb(177,177,177);"/>
        </g>
        <g id="seat-5D" transform="matrix(1.96268,0,0,1.713,-136.625,-45.1509)">
            <path d="M298,190.533C298,190.239 297.759,190 297.461,190L288.539,190C288.241,190 288,190.239 288,190.533L288,200.467C288,200.761 288.241,201 288.539,201L297.461,201C297.759,201 298,200.761 298,200.467L298,190.533Z" style="fill:rgb(177,177,177);"/>
        </g>
        <g id="seat-5C" transform="matrix(1.96268,0,0,1.713,-136.625,-23.391)">
            <path d="M298,190.533C298,190.239 297.759,190 297.461,190L288.539,190C288.241,190 288,190.239 288,190.533L288,200.467C288,200.761 288.241,201 288.539,201L297.461,201C297.759,201 298,200.761 298,200.467L298,190.533Z" style="fill:rgb(177,177,177);"/>
        </g>
        <g id="seat-6D" transform="matrix(1.96268,0,0,1.713,-109.177,-45.1509)">
            <path d="M298,190.533C298,190.239 297.759,190 297.461,190L288.539,190C288.241,190 288,190.239 288,190.533L288,200.467C288,200.761 288.241,201 288.539,201L297.461,201C297.759,201 298,200.761 298,200.467L298,190.533Z" style="fill:rgb(177,177,177);"/>
        </g>
        <g id="seat-6C" transform="matrix(1.96268,0,0,1.713,-109.177,-23.391)">
            <path d="M298,190.533C298,190.239 297.759,190 297.461,190L288.539,190C288.241,190 288,190.239 288,190.533L288,200.467C288,200.761 288.241,201 288.539,201L297.461,201C297.759,201 298,200.761 298,200.467L298,190.533Z" style="fill:rgb(177,177,177);"/>
        </g>
        <g id="seat-7D" transform="matrix(1.96268,0,0,1.713,-81.5855,-45.1509)">
            <path d="M298,190.533C298,190.239 297.759,190 297.461,190L288.539,190C288.241,190 288,190.239 288,190.533L288,200.467C288,200.761 288.241,201 288.539,201L297.461,201C297.759,201 298,200.761 298,200.467L298,190.533Z" style="fill:rgb(177,177,177);"/>
        </g>
        <g id="seat-7C" transform="matrix(1.96268,0,0,1.713,-81.5855,-23.391)">
            <path d="M298,190.533C298,190.239 297.759,190 297.461,190L288.539,190C288.241,190 288,190.239 288,190.533L288,200.467C288,200.761 288.241,201 288.539,201L297.461,201C297.759,201 298,200.761 298,200.467L298,190.533Z" style="fill:rgb(177,177,177);"/>
        </g>
        <g id="seat-464" serif:id="seat-46" transform="matrix(1.96268,0,0,1.713,-54.1367,-45.1509)">
            <path d="M298,190.533C298,190.239 297.759,190 297.461,190L288.539,190C288.241,190 288,190.239 288,190.533L288,200.467C288,200.761 288.241,201 288.539,201L297.461,201C297.759,201 298,200.761 298,200.467L298,190.533Z" style="fill:rgb(177,177,177);"/>
        </g>
        <g id="seat-465" serif:id="seat-46" transform="matrix(1.96268,0,0,1.713,-54.1367,-23.391)">
            <path d="M298,190.533C298,190.239 297.759,190 297.461,190L288.539,190C288.241,190 288,190.239 288,190.533L288,200.467C288,200.761 288.241,201 288.539,201L297.461,201C297.759,201 298,200.761 298,200.467L298,190.533Z" style="fill:rgb(177,177,177);"/>
        </g>
        <g id="seat-8D" transform="matrix(1.96268,0,0,1.713,-54.1367,-45.1509)">
            <path d="M298,190.533C298,190.239 297.759,190 297.461,190L288.539,190C288.241,190 288,190.239 288,190.533L288,200.467C288,200.761 288.241,201 288.539,201L297.461,201C297.759,201 298,200.761 298,200.467L298,190.533Z" style="fill:rgb(177,177,177);"/>
        </g>
        <g id="seat-8C" transform="matrix(1.96268,0,0,1.713,-54.1367,-23.391)">
            <path d="M298,190.533C298,190.239 297.759,190 297.461,190L288.539,190C288.241,190 288,190.239 288,190.533L288,200.467C288,200.761 288.241,201 288.539,201L297.461,201C297.759,201 298,200.761 298,200.467L298,190.533Z" style="fill:rgb(177,177,177);"/>
        </g>
        <g id="seat-9D" transform="matrix(1.96268,0,0,1.713,-26.5456,-45.1509)">
            <path d="M298,190.533C298,190.239 297.759,190 297.461,190L288.539,190C288.241,190 288,190.239 288,190.533L288,200.467C288,200.761 288.241,201 288.539,201L297.461,201C297.759,201 298,200.761 298,200.467L298,190.533Z" style="fill:rgb(177,177,177);"/>
        </g>
        <g id="seat-9C" transform="matrix(1.96268,0,0,1.713,-26.5456,-23.391)">
            <path d="M298,190.533C298,190.239 297.759,190 297.461,190L288.539,190C288.241,190 288,190.239 288,190.533L288,200.467C288,200.761 288.241,201 288.539,201L297.461,201C297.759,201 298,200.761 298,200.467L298,190.533Z" style="fill:rgb(177,177,177);"/>
        </g>
        <g id="seat-10D" transform="matrix(1.96268,0,0,1.713,1.04548,-45.1509)">
            <path d="M298,190.533C298,190.239 297.759,190 297.461,190L288.539,190C288.241,190 288,190.239 288,190.533L288,200.467C288,200.761 288.241,201 288.539,201L297.461,201C297.759,201 298,200.761 298,200.467L298,190.533Z" style="fill:rgb(177,177,177);"/>
        </g>
        <g id="seat-10C" transform="matrix(1.96268,0,0,1.713,1.04548,-23.391)">
            <path d="M298,190.533C298,190.239 297.759,190 297.461,190L288.539,190C288.241,190 288,190.239 288,190.533L288,200.467C288,200.761 288.241,201 288.539,201L297.461,201C297.759,201 298,200.761 298,200.467L298,190.533Z" style="fill:rgb(177,177,177);"/>
        </g>
        <g id="seat-11D" transform="matrix(1.96268,0,0,1.713,28.4943,-45.1509)">
            <path d="M298,190.533C298,190.239 297.759,190 297.461,190L288.539,190C288.241,190 288,190.239 288,190.533L288,200.467C288,200.761 288.241,201 288.539,201L297.461,201C297.759,201 298,200.761 298,200.467L298,190.533Z" style="fill:rgb(177,177,177);"/>
        </g>
        <g id="seat-11C" transform="matrix(1.96268,0,0,1.713,28.4943,-23.391)">
            <path d="M298,190.533C298,190.239 297.759,190 297.461,190L288.539,190C288.241,190 288,190.239 288,190.533L288,200.467C288,200.761 288.241,201 288.539,201L297.461,201C297.759,201 298,200.761 298,200.467L298,190.533Z" style="fill:rgb(177,177,177);"/>
        </g>
        <g id="seat-12D" transform="matrix(1.96268,0,0,1.713,63.6232,-45.1509)">
            <path d="M298,190.533C298,190.239 297.759,190 297.461,190L288.539,190C288.241,190 288,190.239 288,190.533L288,200.467C288,200.761 288.241,201 288.539,201L297.461,201C297.759,201 298,200.761 298,200.467L298,190.533Z" style="fill:rgb(177,177,177);"/>
        </g>
        <g id="seat-12C" transform="matrix(1.96268,0,0,1.713,63.6232,-23.391)">
            <path d="M298,190.533C298,190.239 297.759,190 297.461,190L288.539,190C288.241,190 288,190.239 288,190.533L288,200.467C288,200.761 288.241,201 288.539,201L297.461,201C297.759,201 298,200.761 298,200.467L298,190.533Z" style="fill:rgb(177,177,177);"/>
        </g>
        <g id="seat-13D" transform="matrix(1.96268,0,0,1.713,91.2143,-45.1509)">
            <path d="M298,190.533C298,190.239 297.759,190 297.461,190L288.539,190C288.241,190 288,190.239 288,190.533L288,200.467C288,200.761 288.241,201 288.539,201L297.461,201C297.759,201 298,200.761 298,200.467L298,190.533Z" style="fill:rgb(177,177,177);"/>
        </g>
        <g id="seat-13C" transform="matrix(1.96268,0,0,1.713,91.2143,-23.391)">
            <path d="M298,190.533C298,190.239 297.759,190 297.461,190L288.539,190C288.241,190 288,190.239 288,190.533L288,200.467C288,200.761 288.241,201 288.539,201L297.461,201C297.759,201 298,200.761 298,200.467L298,190.533Z" style="fill:rgb(177,177,177);"/>
        </g>
        <g id="seat-14D" transform="matrix(1.96268,0,0,1.713,118.805,-45.1509)">
            <path d="M298,190.533C298,190.239 297.759,190 297.461,190L288.539,190C288.241,190 288,190.239 288,190.533L288,200.467C288,200.761 288.241,201 288.539,201L297.461,201C297.759,201 298,200.761 298,200.467L298,190.533Z" style="fill:rgb(177,177,177);"/>
        </g>
        <g id="seat-14C" transform="matrix(1.96268,0,0,1.713,118.805,-23.391)">
            <path d="M298,190.533C298,190.239 297.759,190 297.461,190L288.539,190C288.241,190 288,190.239 288,190.533L288,200.467C288,200.761 288.241,201 288.539,201L297.461,201C297.759,201 298,200.761 298,200.467L298,190.533Z" style="fill:rgb(177,177,177);"/>
        </g>
        <g id="seat-15D" transform="matrix(1.96268,0,0,1.713,146.254,-45.1509)">
            <path d="M298,190.533C298,190.239 297.759,190 297.461,190L288.539,190C288.241,190 288,190.239 288,190.533L288,200.467C288,200.761 288.241,201 288.539,201L297.461,201C297.759,201 298,200.761 298,200.467L298,190.533Z" style="fill:rgb(177,177,177);"/>
        </g>
        <g id="seat-15C" transform="matrix(1.96268,0,0,1.713,146.254,-23.391)">
            <path d="M298,190.533C298,190.239 297.759,190 297.461,190L288.539,190C288.241,190 288,190.239 288,190.533L288,200.467C288,200.761 288.241,201 288.539,201L297.461,201C297.759,201 298,200.761 298,200.467L298,190.533Z" style="fill:rgb(177,177,177);"/>
        </g>
        <g id="seat-16D" transform="matrix(1.96268,0,0,1.713,173.845,-45.1509)">
            <path d="M298,190.533C298,190.239 297.759,190 297.461,190L288.539,190C288.241,190 288,190.239 288,190.533L288,200.467C288,200.761 288.241,201 288.539,201L297.461,201C297.759,201 298,200.761 298,200.467L298,190.533Z" style="fill:rgb(177,177,177);"/>
        </g>
        <g id="seat-16C" transform="matrix(1.96268,0,0,1.713,173.845,-23.391)">
            <path d="M298,190.533C298,190.239 297.759,190 297.461,190L288.539,190C288.241,190 288,190.239 288,190.533L288,200.467C288,200.761 288.241,201 288.539,201L297.461,201C297.759,201 298,200.761 298,200.467L298,190.533Z" style="fill:rgb(177,177,177);"/>
        </g>
        <g id="seat-17D" transform="matrix(1.96268,0,0,1.713,201.436,-45.1509)">
            <path d="M298,190.533C298,190.239 297.759,190 297.461,190L288.539,190C288.241,190 288,190.239 288,190.533L288,200.467C288,200.761 288.241,201 288.539,201L297.461,201C297.759,201 298,200.761 298,200.467L298,190.533Z" style="fill:rgb(177,177,177);"/>
        </g>
        <g id="seat-17C" transform="matrix(1.96268,0,0,1.713,201.436,-23.391)">
            <path d="M298,190.533C298,190.239 297.759,190 297.461,190L288.539,190C288.241,190 288,190.239 288,190.533L288,200.467C288,200.761 288.241,201 288.539,201L297.461,201C297.759,201 298,200.761 298,200.467L298,190.533Z" style="fill:rgb(177,177,177);"/>
        </g>
        <g id="seat-18D" transform="matrix(1.96268,0,0,1.713,228.885,-45.1509)">
            <path d="M298,190.533C298,190.239 297.759,190 297.461,190L288.539,190C288.241,190 288,190.239 288,190.533L288,200.467C288,200.761 288.241,201 288.539,201L297.461,201C297.759,201 298,200.761 298,200.467L298,190.533Z" style="fill:rgb(177,177,177);"/>
        </g>
        <g id="seat-18C" transform="matrix(1.96268,0,0,1.713,228.885,-23.391)">
            <path d="M298,190.533C298,190.239 297.759,190 297.461,190L288.539,190C288.241,190 288,190.239 288,190.533L288,200.467C288,200.761 288.241,201 288.539,201L297.461,201C297.759,201 298,200.761 298,200.467L298,190.533Z" style="fill:rgb(177,177,177);"/>
        </g>
        <g id="seat-6A" transform="matrix(1.96268,0,0,1.713,-109.205,20.5534)">
            <path d="M298,190.533C298,190.239 297.759,190 297.461,190L288.539,190C288.241,190 288,190.239 288,190.533L288,200.467C288,200.761 288.241,201 288.539,201L297.461,201C297.759,201 298,200.761 298,200.467L298,190.533Z" style="fill:rgb(177,177,177);"/>
        </g>
        <g id="seat-7A" transform="matrix(1.96268,0,0,1.713,-81.785,20.5534)">
            <path d="M298,190.533C298,190.239 297.759,190 297.461,190L288.539,190C288.241,190 288,190.239 288,190.533L288,200.467C288,200.761 288.241,201 288.539,201L297.461,201C297.759,201 298,200.761 298,200.467L298,190.533Z" style="fill:rgb(177,177,177);"/>
        </g>
        <g id="seat-8A" transform="matrix(1.96268,0,0,1.713,-54.137,20.5534)">
            <path d="M298,190.533C298,190.239 297.759,190 297.461,190L288.539,190C288.241,190 288,190.239 288,190.533L288,200.467C288,200.761 288.241,201 288.539,201L297.461,201C297.759,201 298,200.761 298,200.467L298,190.533Z" style="fill:rgb(177,177,177);"/>
        </g>
        <g id="seat-9A" transform="matrix(1.96268,0,0,1.713,-26.6028,20.5534)">
            <path d="M298,190.533C298,190.239 297.759,190 297.461,190L288.539,190C288.241,190 288,190.239 288,190.533L288,200.467C288,200.761 288.241,201 288.539,201L297.461,201C297.759,201 298,200.761 298,200.467L298,190.533Z" style="fill:rgb(177,177,177);"/>
        </g>
        <g id="seat-10A" transform="matrix(1.96268,0,0,1.713,1.18742,20.5534)">
            <path d="M298,190.533C298,190.239 297.759,190 297.461,190L288.539,190C288.241,190 288,190.239 288,190.533L288,200.467C288,200.761 288.241,201 288.539,201L297.461,201C297.759,201 298,200.761 298,200.467L298,190.533Z" style="fill:rgb(177,177,177);"/>
        </g>
        <g id="seat-11A" transform="matrix(1.96268,0,0,1.713,28.7216,20.5534)">
            <path d="M298,190.533C298,190.239 297.759,190 297.461,190L288.539,190C288.241,190 288,190.239 288,190.533L288,200.467C288,200.761 288.241,201 288.539,201L297.461,201C297.759,201 298,200.761 298,200.467L298,190.533Z" style="fill:rgb(177,177,177);"/>
        </g>
        <g id="seat-12A" transform="matrix(1.96268,0,0,1.713,63.4466,20.5534)">
            <path d="M298,190.533C298,190.239 297.759,190 297.461,190L288.539,190C288.241,190 288,190.239 288,190.533L288,200.467C288,200.761 288.241,201 288.539,201L297.461,201C297.759,201 298,200.761 298,200.467L298,190.533Z" style="fill:rgb(177,177,177);"/>
        </g>
        <g id="seat-13A" transform="matrix(1.96268,0,0,1.713,90.9808,20.5534)">
            <path d="M298,190.533C298,190.239 297.759,190 297.461,190L288.539,190C288.241,190 288,190.239 288,190.533L288,200.467C288,200.761 288.241,201 288.539,201L297.461,201C297.759,201 298,200.761 298,200.467L298,190.533Z" style="fill:rgb(177,177,177);"/>
        </g>
        <g id="seat-14A" transform="matrix(1.96268,0,0,1.713,118.78,20.5534)">
            <path d="M298,190.533C298,190.239 297.759,190 297.461,190L288.539,190C288.241,190 288,190.239 288,190.533L288,200.467C288,200.761 288.241,201 288.539,201L297.461,201C297.759,201 298,200.761 298,200.467L298,190.533Z" style="fill:rgb(177,177,177);"/>
        </g>
        <g id="seat-15A" transform="matrix(1.96268,0,0,1.713,146.314,20.5534)">
            <path d="M298,190.533C298,190.239 297.759,190 297.461,190L288.539,190C288.241,190 288,190.239 288,190.533L288,200.467C288,200.761 288.241,201 288.539,201L297.461,201C297.759,201 298,200.761 298,200.467L298,190.533Z" style="fill:rgb(177,177,177);"/>
        </g>
        <g id="seat-16A" transform="matrix(1.96268,0,0,1.713,173.891,20.5534)">
            <path d="M298,190.533C298,190.239 297.759,190 297.461,190L288.539,190C288.241,190 288,190.239 288,190.533L288,200.467C288,200.761 288.241,201 288.539,201L297.461,201C297.759,201 298,200.761 298,200.467L298,190.533Z" style="fill:rgb(177,177,177);"/>
        </g>
        <g id="seat-17A" transform="matrix(1.96268,0,0,1.713,201.425,20.5534)">
            <path d="M298,190.533C298,190.239 297.759,190 297.461,190L288.539,190C288.241,190 288,190.239 288,190.533L288,200.467C288,200.761 288.241,201 288.539,201L297.461,201C297.759,201 298,200.761 298,200.467L298,190.533Z" style="fill:rgb(177,177,177);"/>
        </g>
        <g id="seat-18A" transform="matrix(1.96268,0,0,1.713,228.641,20.5534)">
            <path d="M298,190.533C298,190.239 297.759,190 297.461,190L288.539,190C288.241,190 288,190.239 288,190.533L288,200.467C288,200.761 288.241,201 288.539,201L297.461,201C297.759,201 298,200.761 298,200.467L298,190.533Z" style="fill:rgb(177,177,177);"/>
        </g>
    </g>
    <g id="windshield" transform="matrix(1.20686,0,0,1.3984,-103.953,-147.352)">
        <path d="M203.952,352.853C203.952,352.853 191.952,342.853 191.508,324.853L178.619,324.853C178.619,324.853 177.411,355.228 203.952,352.853Z" style="fill:rgb(117,202,255);"/>
        <g transform="matrix(1,0,0,-1,-1.42109e-14,645.184)">
            <path d="M203.952,352.853C203.952,352.853 191.952,342.853 191.508,324.853L178.619,324.853C178.619,324.853 177.411,355.228 203.952,352.853Z" style="fill:rgb(117,202,255);"/>
        </g>
    </g>
</svg>
